<svg width="63" height="73" viewBox="0 0 63 73" fill="none" xmlns="http://www.w3.org/2000/svg">
<path d="M18.7988 2.36621C19.1556 2.85953 19.5207 3.36723 19.8887 3.89062L20.6572 4.99609L20.6631 5.00488C21.1097 5.64332 21.5552 6.29365 22 6.96191L22.0029 6.96484C23.2544 8.83325 24.5318 10.8251 25.7822 12.8877V12.8887C27.2784 15.3542 28.7316 17.9306 30.0547 20.5254L30.6143 21.6387C31.4969 23.4235 32.3112 25.2131 33.0283 26.9766L33.3291 27.7305C33.4632 28.0809 33.5951 28.4269 33.7227 28.7695L34.0967 29.7988C34.8999 32.1124 35.492 34.3268 35.8145 36.4023V36.4053C36.1532 38.551 36.1979 40.5094 35.9121 42.2275L35.8506 42.5654C34.5001 49.4094 30.4281 52.8128 26.5986 54.5508L26.5967 54.5518C22.7078 56.3228 19.0718 56.3564 18.8379 56.3564H18.6924C17.9712 56.3564 11.4633 56.2044 6.64355 51.7705L6.63965 51.7676L6.38379 51.5273C5.11175 50.3085 3.96027 48.7641 3.07715 46.8135L3.07617 46.8115L2.8916 46.3906C2.77132 46.1061 2.65619 45.8133 2.5459 45.5098L2.38477 45.0469C2.13178 44.2745 1.91382 43.4496 1.73926 42.5654V42.5635C1.6525 42.1275 1.59156 41.6667 1.54102 41.168C1.50527 40.6754 1.48763 40.1687 1.4873 39.6416C1.51212 37.2706 2.00367 34.6001 2.86914 31.7432V31.7422C2.94698 31.4849 3.02361 31.2391 3.10547 30.9893L3.1084 30.9785C3.79244 28.8344 4.67495 26.6132 5.69434 24.3643L5.69727 24.3574C6.05612 23.555 6.43323 22.7483 6.8291 21.9502L6.83301 21.9434C8.9419 17.6307 11.467 13.3295 13.9775 9.42285C14.5713 8.63519 15.1105 7.81246 15.6025 6.96191C16.701 5.32351 17.7788 3.77945 18.7988 2.36621Z" stroke="#5A5A5A" stroke-width="2.79455"/>
<circle cx="40.1777" cy="49.8362" r="22.8222" fill="#CE0F2D"/>
<path fill-rule="evenodd" clip-rule="evenodd" d="M54.8139 52.2801C54.7225 52.9214 54.5812 53.5546 54.3913 54.174C53.057 54.2976 51.7173 54.3538 50.3773 54.3424C50.0041 55.1651 49.5362 55.9419 48.983 56.6571C49.7013 57.9197 50.2928 59.0982 50.7999 60.2345C49.8777 61.1371 48.8407 61.9153 47.7154 62.5493C46.7436 61.7496 45.7718 60.8237 44.7577 59.8136C43.9145 60.1412 43.0351 60.3673 42.138 60.487C41.7155 61.8619 41.293 63.1245 40.8704 64.2748C40.2205 64.2747 39.5713 64.2326 38.9268 64.1486C38.283 64.0576 37.6473 63.9168 37.0254 63.7277C36.8953 62.3992 36.853 61.0635 36.8987 59.7295C36.0676 59.3674 35.2866 58.9007 34.5748 58.3406C33.3072 59.0561 32.0819 59.6453 30.941 60.1503C30.0476 59.221 29.2675 58.1897 28.6171 57.078C29.4199 56.11 30.3495 55.142 31.3636 54.1319C31.0484 53.2905 30.8356 52.4145 30.7298 51.5226L26.8848 50.26C26.8849 49.6126 26.9272 48.9659 27.0115 48.324C27.1383 47.6506 27.265 47.0193 27.4341 46.4301C28.7679 46.3012 30.1087 46.259 31.4481 46.3038C31.8116 45.476 32.2802 44.6981 32.8424 43.9891C32.1664 42.7265 31.5326 41.5059 31.0255 40.3696C31.9654 39.4695 33.016 38.6917 34.1522 38.0548C35.0818 38.8545 36.0959 39.7804 37.1099 40.7905C37.9518 40.4672 38.8325 40.255 39.7296 40.1592C40.0822 38.8606 40.5054 37.5821 40.9972 36.3293L42.9408 36.4555L44.8 36.8764C44.9267 38.139 44.969 39.4437 44.969 40.8746C45.795 41.2464 46.5748 41.7125 47.2929 42.2635L47.3929 42.2103C48.6228 41.5569 49.7736 40.9455 50.8844 40.4538C51.8011 41.3788 52.5833 42.4271 53.2083 43.5682C52.4055 44.4941 51.4759 45.5042 50.4618 46.5143C50.8008 47.3508 51.0281 48.2281 51.1379 49.1236C52.4297 49.4682 53.6996 49.8899 54.9406 50.3862C54.9405 51.0196 54.8982 51.6523 54.8139 52.2801ZM46.1943 50.3021C46.1943 53.2075 43.8297 55.5629 40.9127 55.5629C37.9958 55.5629 35.6311 53.2075 35.6311 50.3021C35.6311 47.3966 37.9958 45.0412 40.9127 45.0412C43.8297 45.0412 46.1943 47.3966 46.1943 50.3021Z" fill="#EFF1F3"/>
</svg>
