<svg width="88" height="69" viewBox="0 0 88 69" fill="none" xmlns="http://www.w3.org/2000/svg">
<path fill-rule="evenodd" clip-rule="evenodd" d="M64.8231 37.9593C64.6176 39.405 64.3 40.8325 63.873 42.2289C60.8729 42.5076 57.8606 42.6342 54.8476 42.6084C54.0085 44.4633 52.9564 46.2145 51.7125 47.8268C53.3276 50.6732 54.6576 53.3298 55.7977 55.8916C53.7242 57.9263 51.3926 59.6807 48.8624 61.1099C46.6773 59.3072 44.4922 57.2199 42.2121 54.9428C40.3162 55.6812 38.3388 56.1908 36.3218 56.4608C35.3718 59.5602 34.4218 62.4066 33.4717 65C32.0104 64.9998 30.5506 64.9047 29.1015 64.7154C27.654 64.5102 26.2247 64.193 24.8264 63.7666C24.5338 60.7715 24.4386 57.7605 24.5413 54.753C22.6727 53.9368 20.9166 52.8845 19.3161 51.622C16.466 53.2349 13.7109 54.5633 11.1458 55.7018C9.13688 53.6067 7.38297 51.2819 5.92056 48.7756C7.72563 46.5934 9.81572 44.4111 12.0958 42.134C11.3871 40.2371 10.9087 38.2622 10.6708 36.2515L2.02539 33.4051C2.02561 31.9457 2.12082 30.4878 2.3104 29.0407C2.59541 27.5226 2.88043 26.0994 3.26044 24.7711C6.25952 24.4805 9.27437 24.3854 12.2858 24.4864C13.1031 22.6202 14.1568 20.8665 15.421 19.2681C13.9009 16.4217 12.4758 13.6702 11.3358 11.1084C13.4489 9.07919 15.8112 7.32574 18.3661 5.89006C20.4562 7.69277 22.7363 9.78012 25.0164 12.0572C26.9093 11.3285 28.8895 10.8501 30.9066 10.634C31.6995 7.70663 32.6509 4.82437 33.7567 2L38.1269 2.28464L42.3071 3.23343C42.5921 6.07982 42.6871 9.02108 42.6871 12.247C44.5444 13.0851 46.2979 14.1358 47.9123 15.378L48.1374 15.2582C50.9026 13.7851 53.4902 12.4067 55.9877 11.2982C58.0489 13.3836 59.8077 15.7469 61.2129 18.3193C59.4078 20.4066 57.3177 22.6837 55.0376 24.9608C55.7998 26.8468 56.3109 28.8246 56.5577 30.8434C59.4624 31.6203 62.3176 32.5708 65.1081 33.6898C65.1078 35.1177 65.0126 36.544 64.8231 37.9593ZM45.4423 33.5C45.4423 40.0501 40.1254 45.36 33.5668 45.36C27.0081 45.36 21.6912 40.0501 21.6912 33.5C21.6912 26.95 27.0081 21.6401 33.5668 21.6401C40.1254 21.6401 45.4423 26.95 45.4423 33.5Z" stroke="#5A5A5A" stroke-width="3"/>
<path d="M66.6113 29.5C77.684 29.5002 86.6377 38.2428 86.6377 49C86.6377 59.7572 77.684 68.4998 66.6113 68.5C55.5384 68.5 46.584 59.7574 46.584 49C46.584 38.2426 55.5384 29.5 66.6113 29.5Z" fill="#CE0F2D" stroke="#EFF1F3"/>
<path d="M63.9841 52.8832L63.2711 47.861L63.4261 47.706C67.3322 47.551 68.8512 46.528 68.8512 44.823C68.8512 43.4279 67.7972 42.6219 65.9992 42.6219C64.2631 42.6219 62.7751 43.3349 61.349 44.761L58.497 41.6299C60.295 39.6458 62.7131 38.2818 66.0922 38.2818C70.5563 38.2818 73.5943 40.5759 73.5943 44.761C73.5943 48.6981 70.8663 50.3101 67.4872 50.9921L67.1462 52.8832H63.9841ZM62.9611 60.2614V55.3012H67.9832V60.2614H62.9611Z" fill="white"/>
</svg>
