<svg width="81" height="50" viewBox="0 0 81 50" fill="none" xmlns="http://www.w3.org/2000/svg">
<path fill-rule="evenodd" clip-rule="evenodd" d="M20.1477 23.7842C19.9596 23.4067 19.3954 23.0291 19.3954 23.0291L9.99064 20.0089C9.04117 19.6955 8.00858 19.7549 7.10104 20.1753C6.19351 20.5956 5.47851 21.3456 5.1002 22.2741C4.8443 22.9992 4.81525 23.7855 5.01695 24.5277C5.21864 25.2699 5.64145 25.9325 6.22876 26.4269C6.92332 27.1382 8.0579 27.5453 9.05017 27.5595H16.5739C17.1894 27.5898 17.8029 27.468 18.3604 27.2047C18.918 26.9414 19.4026 26.5446 19.7715 26.0494C20.1587 25.4577 20.1836 24.2927 20.1477 23.7842ZM7.88093 24.0867C7.91326 24.3137 7.99108 24.5319 8.1097 24.728C8.22631 24.8601 8.37208 24.9631 8.53536 25.0286C8.69865 25.0942 8.87494 25.1205 9.05017 25.1055H16.9501L9.42636 22.6516C9.12716 22.5815 8.81296 22.6186 8.53815 22.7565C8.26334 22.8944 8.04524 23.1244 7.92161 23.4067C7.86244 23.6283 7.84861 23.8596 7.88093 24.0867Z" fill="#5A5A5A"/>
<path fill-rule="evenodd" clip-rule="evenodd" d="M25.7906 26.6157H45.2135C45.3076 26.9932 45.3286 27.3707 45.3496 27.7482C45.3707 28.1258 45.3917 28.5033 45.4857 28.8808H25.0382C24.6031 28.8841 24.1763 28.7612 23.8092 28.5267C23.4422 28.2923 23.1504 27.9564 22.9691 27.5595L22.6768 26.6157L22.4049 25.2943L22.4049 24.1617C22.4049 23.973 22.5542 23.6178 22.781 23.4067C23.2933 22.93 23.9635 22.6609 24.662 22.6516H43.5V25.2943H25.2263L25.7906 26.6157ZM9.23827 10.7595H5.66448C5.70936 11.0261 5.8478 11.2678 6.05479 11.4409C6.26177 11.614 6.52364 11.7071 6.79304 11.7033H8.67399L9.23827 10.7595ZM12.5506 44.534C12.7231 44.3263 12.8158 44.0635 12.8121 43.7931V41.3392H5.47638V43.7931C5.47262 44.0635 5.56537 44.3263 5.73785 44.534C5.91034 44.7417 6.15119 44.8807 6.41686 44.9257H11.8716C12.1373 44.8807 12.3781 44.7417 12.5506 44.534ZM4.53591 38.8853H15.8216H48.6833C49.0487 39.7409 49.4893 40.5621 50 41.3392H15.4454V43.7931C15.4454 44.7443 15.0689 45.6566 14.3986 46.3292C13.7284 47.0018 12.8194 47.3796 11.8716 47.3796H6.22876C5.28093 47.3796 4.37193 47.0018 3.70171 46.3292C3.0315 45.6566 2.65497 44.7443 2.65497 43.7931V40.9617C2.05675 40.66 1.54961 40.2035 1.18589 39.6394C0.822177 39.0753 0.615065 38.424 0.585938 37.7527L0.585938 21.3303C0.594993 20.2419 0.896907 19.1762 1.45976 18.2459C2.02262 17.3155 2.8255 16.555 3.78354 16.0449L6.98114 14.5348H6.79304C6.30747 14.5355 5.82685 14.4368 5.38053 14.2449C4.93421 14.053 4.53153 13.7718 4.1971 13.4185C3.86266 13.0652 3.60347 12.6472 3.43535 12.1901C3.26722 11.7329 3.1937 11.2461 3.21926 10.7595C3.21926 10.1588 3.45706 9.58261 3.88035 9.15781C4.30365 8.73301 4.87776 8.49436 5.47638 8.49436H10.743L13.9406 3.20898C14.5806 2.23992 15.4458 1.44151 16.4616 0.882497C17.4773 0.323484 18.6132 0.020625 19.7715 0L50.4309 0C51.5892 0.020625 52.7251 0.323484 53.7409 0.882497C54.7566 1.44151 55.6218 2.23992 56.2618 3.20898L60.7571 11.6787L58.5 13L54.0047 4.53032C53.6069 3.9477 53.0735 3.47126 52.4507 3.14232C51.828 2.81338 51.1346 2.64188 50.4309 2.64269H19.7715C19.0678 2.64188 18.3745 2.81338 17.7517 3.14232C17.1289 3.47126 16.5955 3.9477 16.1978 4.53032L9.42636 16.2337L8.86208 16.6112L5.1002 18.4988C4.58883 18.7725 4.1612 19.1805 3.86303 19.6793C3.56486 20.178 3.40735 20.7487 3.40735 21.3303V37.7527C3.40735 38.0531 3.52625 38.3412 3.7379 38.5536C3.94955 38.7659 4.2366 38.8853 4.53591 38.8853ZM18.4549 32.8448L18.0787 34.5437H46.9905C47.1786 34.9212 47.3197 35.346 47.4607 35.7707C47.6018 36.1954 47.7429 36.6201 47.931 36.9976H17.5144C17.1932 37.0125 16.8729 36.9519 16.5791 36.8209C16.2852 36.6898 16.0259 36.4918 15.8216 36.2426C15.6276 36.0105 15.4922 35.7349 15.4267 35.4393C15.3613 35.1436 15.3677 34.8364 15.4454 34.5437L15.8216 31.901C15.9768 31.4185 16.2772 30.9962 16.6813 30.6919C17.0855 30.3877 17.5737 30.2166 18.0787 30.2022H46.05L46.6143 32.8448H18.4549Z" fill="#5A5A5A"/>
<path d="M46.1221 15.8779V17.1152L13.8779 16.8965V15.8779H46.1221Z" fill="#D11F37" stroke="#5A5A5A" stroke-width="1.7566"/>
<path d="M60.4902 9.60327C71.5476 9.60327 80.4902 18.3453 80.4902 29.1033C80.4902 39.8613 71.5476 48.6033 60.4902 48.6033C49.4328 48.6033 40.4902 39.8613 40.4902 29.1033C40.4902 18.3453 49.4328 9.60327 60.4902 9.60327Z" fill="#CE0F2D" stroke="#EFF1F3"/>
<path d="M57.8845 32.8832L57.1715 27.861L57.3265 27.706C61.2326 27.551 62.7516 26.528 62.7516 24.823C62.7516 23.4279 61.6976 22.6219 59.8995 22.6219C58.1635 22.6219 56.6755 23.3349 55.2494 24.761L52.3974 21.6299C54.1954 19.6458 56.6135 18.2818 59.9926 18.2818C64.4567 18.2818 67.4947 20.5759 67.4947 24.761C67.4947 28.6981 64.7667 30.3101 61.3876 30.9921L61.0466 32.8832H57.8845ZM56.8615 40.2614V35.3012H61.8836V40.2614H56.8615Z" fill="white"/>
</svg>
