<svg xmlns="http://www.w3.org/2000/svg" width="34" height="34" fill="none" viewBox="0 0 34 34"><g clip-path="url(#a)" filter="url(#b)"><mask id="c" fill="#fff"><path fill-rule="evenodd" d="M9.675 17.144c-.093-.177-.372-.353-.372-.353l-4.651-1.416a2.05 2.05 0 0 0-1.43.078 1.9 1.9 0 0 0-.99.984c-.126.34-.14.708-.04 1.056.1.347.308.658.599.89.343.333.905.524 1.395.53h3.722c.304.014.608-.043.883-.166.276-.123.516-.31.698-.541.192-.278.204-.823.186-1.062m-6.067.142a.8.8 0 0 0 .113.3q.088.094.21.141.125.046.255.036h3.908l-3.722-1.15a.68.68 0 0 0-.439.05.63.63 0 0 0-.305.304.8.8 0 0 0-.02.319" clip-rule="evenodd"/><path fill-rule="evenodd" d="M1.954 24.22a.57.57 0 0 1-.395-.155.52.52 0 0 1-.164-.376v-7.695c0-.272.078-.54.226-.773.147-.234.359-.425.612-.553l1.86-.885.28-.177 3.349-5.483c.196-.273.46-.497.768-.65a2.2 2.2 0 0 1 1-.235h7.581V6H9.49a3.7 3.7 0 0 0-1.637.414c-.502.261-.93.636-1.247 1.09L5.024 9.98H2.419c-.296 0-.58.112-.79.311a1.04 1.04 0 0 0-.327.75 1.6 1.6 0 0 0 .107.67c.083.215.212.41.377.576s.365.298.585.387c.221.09.459.137.699.136h.093l-1.581.708a2.9 2.9 0 0 0-1.15 1.031A2.73 2.73 0 0 0 0 15.994v7.695c.014.315.117.62.297.884.18.265.43.479.726.62v1.327c0 .445.187.873.518 1.188.332.315.781.492 1.25.492h2.79c.47 0 .92-.177 1.25-.492a1.64 1.64 0 0 0 .518-1.188v-1.15H20.56a7 7 0 0 1-.651-1.15zm2.325-13.179H2.512c.022.125.09.239.193.32a.58.58 0 0 0 .365.123H4zm1.639 15.826a.52.52 0 0 0 .129-.347v-1.15H2.419v1.15a.52.52 0 0 0 .13.347.56.56 0 0 0 .335.183h2.698a.56.56 0 0 0 .336-.183" clip-rule="evenodd"/><path fill-rule="evenodd" d="M12.466 18.47h5.727c.046.178.056.355.067.532.01.177.02.353.067.53h-6.233a1.16 1.16 0 0 1-.608-.166 1.1 1.1 0 0 1-.415-.453l-.145-.442-.134-.62v-.53c0-.088.074-.255.186-.354.253-.223.585-.35.93-.353h6.42v1.238h-6.14zm-3.628 2.92-.186.796h10.42c.093.177.162.376.232.575s.14.398.233.575H8.373a1.1 1.1 0 0 1-.463-.083 1 1 0 0 1-.374-.271.84.84 0 0 1-.186-.796l.186-1.239c.076-.226.225-.424.425-.566.2-.143.441-.223.69-.23h9.955l.28 1.239zm15.641-4.246c.093-.177.372-.353.372-.353l4.651-1.416c.47-.147.98-.119 1.43.078.448.197.802.549.99.984.126.34.14.708.04 1.056-.1.347-.308.658-.599.89-.344.333-.905.524-1.395.53h-3.722a1.94 1.94 0 0 1-.883-.166 1.84 1.84 0 0 1-.698-.541c-.192-.278-.204-.823-.186-1.062m6.067.142a.8.8 0 0 1-.113.3.59.59 0 0 1-.465.177H26.06l3.721-1.15a.68.68 0 0 1 .44.05.63.63 0 0 1 .305.304q.044.158.02.319" clip-rule="evenodd"/><path fill-rule="evenodd" d="M32.2 24.22c.148 0 .29-.056.395-.155a.52.52 0 0 0 .163-.376v-7.695c0-.272-.078-.54-.225-.773a1.55 1.55 0 0 0-.612-.553l-1.86-.885-.28-.177-3.349-5.483a2.1 2.1 0 0 0-.768-.65 2.2 2.2 0 0 0-1-.235h-7.581V6h7.582c.573.01 1.134.152 1.637.414.502.261.93.636 1.247 1.09L29.13 9.98h2.605c.296 0 .58.112.79.311.209.199.327.469.327.75a1.6 1.6 0 0 1-.107.67 1.7 1.7 0 0 1-.377.576 1.8 1.8 0 0 1-.586.387c-.22.09-.458.137-.698.136h-.093l1.581.708c.474.239.871.595 1.15 1.031s.427.936.432 1.445v7.695c-.015.315-.117.62-.297.884-.18.265-.43.479-.726.62v1.327c0 .445-.187.873-.518 1.188a1.82 1.82 0 0 1-1.25.492h-2.791c-.469 0-.918-.177-1.25-.492a1.64 1.64 0 0 1-.518-1.188v-1.15h-13.21c.253-.364.47-.75.651-1.15zm-2.326-13.179h1.768a.53.53 0 0 1-.193.32.58.58 0 0 1-.365.123h-.93zm-1.638 15.826a.52.52 0 0 1-.13-.347v-1.15h3.63v1.15a.52.52 0 0 1-.13.347.57.57 0 0 1-.336.183h-2.698a.56.56 0 0 1-.336-.183" clip-rule="evenodd"/><path fill-rule="evenodd" d="M21.688 18.47H15.96c-.046.178-.057.355-.067.532s-.02.353-.067.53h6.233a1.16 1.16 0 0 0 .608-.166 1.1 1.1 0 0 0 .415-.453l.145-.442.134-.62v-.53a.57.57 0 0 0-.186-.354 1.43 1.43 0 0 0-.93-.353h-6.42v1.238h6.14zm3.628 2.92.186.796h-10.42a4 4 0 0 0-.232.575c-.07.199-.14.398-.233.575h11.164a1.1 1.1 0 0 0 .463-.083 1 1 0 0 0 .374-.271.9.9 0 0 0 .196-.377.84.84 0 0 0-.01-.42l-.186-1.238a1.15 1.15 0 0 0-.425-.566 1.25 1.25 0 0 0-.691-.23h-9.954l-.28 1.239zm2.179-7.776v-.823H6.643v.76z" clip-rule="evenodd"/></mask><path stroke="#fff" stroke-width="3.41539" d="M9.675 17.144c-.093-.177-.372-.353-.372-.353l-4.651-1.416a2.05 2.05 0 0 0-1.43.078 1.9 1.9 0 0 0-.99.984c-.126.34-.14.708-.04 1.056.1.347.308.658.599.89.343.333.905.524 1.395.53h3.722c.304.014.608-.043.883-.166.276-.123.516-.31.698-.541.192-.278.204-.823.186-1.062Zm-6.067.142a.8.8 0 0 0 .113.3q.088.094.21.141.125.046.255.036h3.908l-3.722-1.15a.68.68 0 0 0-.439.05.63.63 0 0 0-.305.304.8.8 0 0 0-.02.319Z" clip-rule="evenodd" mask="url(#c)" shape-rendering="crispEdges"/><path stroke="#fff" stroke-width="3.41539" d="M1.954 24.22a.57.57 0 0 1-.395-.155.52.52 0 0 1-.164-.376v-7.695c0-.272.078-.54.226-.773.147-.234.359-.425.612-.553l1.86-.885.28-.177 3.349-5.483c.196-.273.46-.497.768-.65a2.2 2.2 0 0 1 1-.235h7.581V6H9.49a3.7 3.7 0 0 0-1.637.414c-.502.261-.93.636-1.247 1.09L5.024 9.98H2.419c-.296 0-.58.112-.79.311a1.04 1.04 0 0 0-.327.75 1.6 1.6 0 0 0 .107.67c.083.215.212.41.377.576s.365.298.585.387c.221.09.459.137.699.136h.093l-1.581.708a2.9 2.9 0 0 0-1.15 1.031A2.73 2.73 0 0 0 0 15.994v7.695c.014.315.117.62.297.884.18.265.43.479.726.62v1.327c0 .445.187.873.518 1.188.332.315.781.492 1.25.492h2.79c.47 0 .92-.177 1.25-.492a1.64 1.64 0 0 0 .518-1.188v-1.15H20.56a7 7 0 0 1-.651-1.15zm2.325-13.179H2.512c.022.125.09.239.193.32a.58.58 0 0 0 .365.123H4zm1.639 15.826a.52.52 0 0 0 .129-.347v-1.15H2.419v1.15a.52.52 0 0 0 .13.347.56.56 0 0 0 .335.183h2.698a.56.56 0 0 0 .336-.183Z" clip-rule="evenodd" mask="url(#c)" shape-rendering="crispEdges"/><path stroke="#fff" stroke-width="3.41539" d="M12.466 18.47h5.727c.046.178.056.355.067.532.01.177.02.353.067.53h-6.233a1.16 1.16 0 0 1-.608-.166 1.1 1.1 0 0 1-.415-.453l-.145-.442-.134-.62v-.53c0-.088.074-.255.186-.354.253-.223.585-.35.93-.353h6.42v1.238h-6.14zm-3.628 2.92-.186.796h10.42c.093.177.162.376.232.575s.14.398.233.575H8.373a1.1 1.1 0 0 1-.463-.083 1 1 0 0 1-.374-.271.84.84 0 0 1-.186-.796l.186-1.239c.076-.226.225-.424.425-.566.2-.143.441-.223.69-.23h9.955l.28 1.239zm15.641-4.246c.093-.177.372-.353.372-.353l4.651-1.416c.47-.147.98-.119 1.43.078.448.197.802.549.99.984.126.34.14.708.04 1.056-.1.347-.308.658-.599.89-.344.333-.905.524-1.395.53h-3.722a1.94 1.94 0 0 1-.883-.166 1.84 1.84 0 0 1-.698-.541c-.192-.278-.204-.823-.186-1.062Zm6.067.142a.8.8 0 0 1-.113.3.59.59 0 0 1-.465.177H26.06l3.721-1.15a.68.68 0 0 1 .44.05.63.63 0 0 1 .305.304q.044.158.02.319Z" clip-rule="evenodd" mask="url(#c)" shape-rendering="crispEdges"/><path stroke="#fff" stroke-width="3.41539" d="M32.2 24.22c.148 0 .29-.056.395-.155a.52.52 0 0 0 .163-.376v-7.695c0-.272-.078-.54-.225-.773a1.55 1.55 0 0 0-.612-.553l-1.86-.885-.28-.177-3.349-5.483a2.1 2.1 0 0 0-.768-.65 2.2 2.2 0 0 0-1-.235h-7.581V6h7.582c.573.01 1.134.152 1.637.414.502.261.93.636 1.247 1.09L29.13 9.98h2.605c.296 0 .58.112.79.311.209.199.327.469.327.75a1.6 1.6 0 0 1-.107.67 1.7 1.7 0 0 1-.377.576 1.8 1.8 0 0 1-.586.387c-.22.09-.458.137-.698.136h-.093l1.581.708c.474.239.871.595 1.15 1.031s.427.936.432 1.445v7.695c-.015.315-.117.62-.297.884-.18.265-.43.479-.726.62v1.327c0 .445-.187.873-.518 1.188a1.82 1.82 0 0 1-1.25.492h-2.791c-.469 0-.918-.177-1.25-.492a1.64 1.64 0 0 1-.518-1.188v-1.15h-13.21c.253-.364.47-.75.651-1.15zm-2.326-13.179h1.768a.53.53 0 0 1-.193.32.58.58 0 0 1-.365.123h-.93zm-1.638 15.826a.52.52 0 0 1-.13-.347v-1.15h3.63v1.15a.52.52 0 0 1-.13.347.57.57 0 0 1-.336.183h-2.698a.56.56 0 0 1-.336-.183Z" clip-rule="evenodd" mask="url(#c)" shape-rendering="crispEdges"/><path stroke="#fff" stroke-width="3.41539" d="M21.688 18.47H15.96c-.046.178-.057.355-.067.532s-.02.353-.067.53h6.233a1.16 1.16 0 0 0 .608-.166 1.1 1.1 0 0 0 .415-.453l.145-.442.134-.62v-.53a.57.57 0 0 0-.186-.354 1.43 1.43 0 0 0-.93-.353h-6.42v1.238h6.14zm3.628 2.92.186.796h-10.42a4 4 0 0 0-.232.575c-.07.199-.14.398-.233.575h11.164a1.1 1.1 0 0 0 .463-.083 1 1 0 0 0 .374-.271.9.9 0 0 0 .196-.377.84.84 0 0 0-.01-.42l-.186-1.238a1.15 1.15 0 0 0-.425-.566 1.25 1.25 0 0 0-.691-.23h-9.954l-.28 1.239zm2.179-7.776v-.823H6.643v.76z" clip-rule="evenodd" mask="url(#c)" shape-rendering="crispEdges"/></g><defs><clipPath id="a"><path fill="#fff" d="M0 0h34v34H0z"/></clipPath><filter id="b" width="36.4307" height="24.477" x="-1.13846" y="5.43077" color-interpolation-filters="sRGB" filterUnits="userSpaceOnUse"><feFlood flood-opacity="0" result="BackgroundImageFix"/><feColorMatrix in="SourceAlpha" result="hardAlpha" values="0 0 0 0 0 0 0 0 0 0 0 0 0 0 0 0 0 0 127 0"/><feOffset dy="0.569232"/><feGaussianBlur stdDeviation="0.569232"/><feComposite in2="hardAlpha" operator="out"/><feColorMatrix values="0 0 0 0 1 0 0 0 0 1 0 0 0 0 1 0 0 0 0.5 0"/><feBlend in2="BackgroundImageFix" result="effect1_dropShadow_3736_1868"/><feBlend in="SourceGraphic" in2="effect1_dropShadow_3736_1868" result="shape"/><feColorMatrix in="SourceAlpha" result="hardAlpha" values="0 0 0 0 0 0 0 0 0 0 0 0 0 0 0 0 0 0 127 0"/><feOffset dy="0.653861"/><feGaussianBlur stdDeviation="0.32693"/><feComposite in2="hardAlpha" k2="-1" k3="1" operator="arithmetic"/><feColorMatrix values="0 0 0 0 0 0 0 0 0 0 0 0 0 0 0 0 0 0 0.3 0"/><feBlend in2="shape" result="effect2_innerShadow_3736_1868"/></filter></defs></svg>