<svg xmlns="http://www.w3.org/2000/svg" width="60" height="60" fill="none" viewBox="0 0 60 60"><g filter="url(#a)"><path fill="#fff" fill-rule="evenodd" d="M29.525 3c.484 0 .95.195 1.292.542.343.346.535.817.535 1.307v5.398l4.19-4.24a1.816 1.816 0 0 1 2.538.046 1.86 1.86 0 0 1 .045 2.567l-6.773 6.854v10.824l9.263-5.411 2.48-9.363a1.86 1.86 0 0 1 .852-1.122 1.81 1.81 0 0 1 2.496.676 1.87 1.87 0 0 1 .183 1.403l-1.535 5.793 4.62-2.7c.419-.24.916-.304 1.381-.176a1.83 1.83 0 0 1 1.104.86c.241.422.307.924.184 1.396a1.85 1.85 0 0 1-.842 1.123l-4.617 2.697 5.725 1.553c.468.127.867.437 1.11.862.242.425.307.93.181 1.403a1.85 1.85 0 0 1-.852 1.122 1.8 1.8 0 0 1-1.387.185l-9.253-2.51-9.266 5.411 9.264 5.41 9.253-2.509a1.8 1.8 0 0 1 1.388.186c.42.245.726.65.851 1.123.125.474.06.98-.183 1.404a1.83 1.83 0 0 1-1.11.862l-5.724 1.55 4.62 2.7a1.83 1.83 0 0 1 .86 1.123 1.87 1.87 0 0 1-.654 1.953 1.82 1.82 0 0 1-1.357.363 1.8 1.8 0 0 1-.677-.237l-4.62-2.7 1.536 5.791a1.87 1.87 0 0 1-.183 1.403 1.84 1.84 0 0 1-1.11.861 1.8 1.8 0 0 1-1.386-.185 1.84 1.84 0 0 1-.852-1.122l-2.48-9.363-9.263-5.408v10.822l6.773 6.852a1.85 1.85 0 0 1 .559 1.314 1.87 1.87 0 0 1-.535 1.324 1.83 1.83 0 0 1-1.308.542 1.8 1.8 0 0 1-1.298-.564l-4.191-4.24v5.396c0 .49-.192.96-.535 1.307a1.82 1.82 0 0 1-1.292.542c-.485 0-.95-.195-1.292-.541a1.86 1.86 0 0 1-.536-1.308v-5.398l-4.19 4.24a1.816 1.816 0 0 1-2.538-.046 1.86 1.86 0 0 1-.045-2.568l6.773-6.852V32.701l-9.263 5.411-2.48 9.363a1.86 1.86 0 0 1-.851 1.122 1.81 1.81 0 0 1-2.497-.676 1.87 1.87 0 0 1-.182-1.403l1.535-5.793-4.62 2.702a1.8 1.8 0 0 1-1.387.184 1.83 1.83 0 0 1-1.11-.862 1.87 1.87 0 0 1-.182-1.404c.125-.474.432-.878.852-1.123l4.62-2.697-5.726-1.553a1.82 1.82 0 0 1-1.148-.852 1.86 1.86 0 0 1 .68-2.562 1.8 1.8 0 0 1 1.415-.155l9.254 2.507 9.263-5.41-9.263-5.41-9.254 2.509a1.8 1.8 0 0 1-1.387-.186 1.84 1.84 0 0 1-.852-1.123 1.87 1.87 0 0 1 .184-1.404 1.84 1.84 0 0 1 1.11-.862l5.723-1.55-4.62-2.697a1.84 1.84 0 0 1-.851-1.123 1.87 1.87 0 0 1 .182-1.404 1.84 1.84 0 0 1 1.11-.862 1.8 1.8 0 0 1 1.387.184l4.617 2.702-1.535-5.79a1.87 1.87 0 0 1 .183-1.405 1.83 1.83 0 0 1 1.11-.861 1.8 1.8 0 0 1 1.388.185c.42.246.727.65.852 1.124l2.478 9.362 9.265 5.406V15.473L20.924 8.62a1.86 1.86 0 0 1 .045-2.567 1.815 1.815 0 0 1 2.538-.045l4.19 4.24v-5.4c0-.49.193-.96.536-1.306A1.82 1.82 0 0 1 29.525 3" clip-rule="evenodd"/></g><defs><filter id="a" width="53" height="57" x="3" y="2" color-interpolation-filters="sRGB" filterUnits="userSpaceOnUse"><feFlood flood-opacity="0" result="BackgroundImageFix"/><feColorMatrix in="SourceAlpha" result="hardAlpha" values="0 0 0 0 0 0 0 0 0 0 0 0 0 0 0 0 0 0 127 0"/><feOffset dy="1"/><feGaussianBlur stdDeviation="1"/><feComposite in2="hardAlpha" operator="out"/><feColorMatrix values="0 0 0 0 1 0 0 0 0 1 0 0 0 0 1 0 0 0 0.5 0"/><feBlend in2="BackgroundImageFix" result="effect1_dropShadow_3813_8407"/><feBlend in="SourceGraphic" in2="effect1_dropShadow_3813_8407" result="shape"/><feColorMatrix in="SourceAlpha" result="hardAlpha" values="0 0 0 0 0 0 0 0 0 0 0 0 0 0 0 0 0 0 127 0"/><feOffset dy="1.14867"/><feGaussianBlur stdDeviation="0.574336"/><feComposite in2="hardAlpha" k2="-1" k3="1" operator="arithmetic"/><feColorMatrix values="0 0 0 0 0 0 0 0 0 0 0 0 0 0 0 0 0 0 0.3 0"/><feBlend in2="shape" result="effect2_innerShadow_3813_8407"/></filter></defs></svg>