<svg xmlns="http://www.w3.org/2000/svg" width="60" height="60" fill="none" viewBox="0 0 60 60"><g filter="url(#a)"><path stroke="#fff" stroke-width="3" d="M45.62 19.121c0-3.092-3.913-4.315-5.734-1.99l-.17.236c-.882 1.343-1.649 3.625-2.193 5.9-.553 2.316-.932 4.87-.932 6.867 0 4.076 1.61 7.502 3.2 9.833 1.74 2.551 5.828 1.383 5.828-1.779zM9.586 4.5h5.34c.196 0 .323.152.323.3v1.392H9.264V4.801c0-.149.126-.3.323-.301Zm-.595 22.332-.218-.358-.141-.233.17-15.8H16.3l.348.421h1.833l.393-.283 4.986-3.59.185-.094c.175-.09.42-.213.696-.346.577-.277 1.208-.554 1.643-.686.437-.132 1.137-.258 1.794-.353.314-.046.598-.081.802-.106l.238-.028h18.391l.104-.015h.013q.044-.005.149-.01a3.5 3.5 0 0 1 .563.03c.468.064.917.226 1.237.542.425.42.63.862.732 1.191a2.3 2.3 0 0 1 .093.461V55.28c0 .105-.09.221-.242.221H8.87a.27.27 0 0 1-.28-.252l-.085-4.04.379-.946.107-.269z" shape-rendering="crispEdges"/></g><defs><filter id="a" width="49" height="58" x="5" y="2" color-interpolation-filters="sRGB" filterUnits="userSpaceOnUse"><feFlood flood-opacity="0" result="BackgroundImageFix"/><feColorMatrix in="SourceAlpha" result="hardAlpha" values="0 0 0 0 0 0 0 0 0 0 0 0 0 0 0 0 0 0 127 0"/><feOffset dy="1"/><feGaussianBlur stdDeviation="1"/><feComposite in2="hardAlpha" operator="out"/><feColorMatrix values="0 0 0 0 1 0 0 0 0 1 0 0 0 0 1 0 0 0 0.5 0"/><feBlend in2="BackgroundImageFix" result="effect1_dropShadow_3813_8305"/><feBlend in="SourceGraphic" in2="effect1_dropShadow_3813_8305" result="shape"/><feColorMatrix in="SourceAlpha" result="hardAlpha" values="0 0 0 0 0 0 0 0 0 0 0 0 0 0 0 0 0 0 127 0"/><feOffset dy="1.14867"/><feGaussianBlur stdDeviation="0.574336"/><feComposite in2="hardAlpha" k2="-1" k3="1" operator="arithmetic"/><feColorMatrix values="0 0 0 0 0 0 0 0 0 0 0 0 0 0 0 0 0 0 0.3 0"/><feBlend in2="shape" result="effect2_innerShadow_3813_8305"/></filter></defs></svg>