<svg xmlns="http://www.w3.org/2000/svg" width="42" height="34" fill="none" viewBox="0 0 42 34"><g clip-path="url(#a)"><g filter="url(#b)"><path fill="#fff" d="M15.73 23.278h3v4.2h-.923v-3.366h-1.212v.318c0 2.472-.402 3.102-1.362 3.102a2.4 2.4 0 0 1-.486-.054l.06-.762a1 1 0 0 0 .144.012c.498 0 .78-.318.78-2.58zm3.827 4.2v-4.2h3.168v.822h-2.25v.852h1.98v.822h-1.98v.882h2.28v.822zm4.818 0V24.13h-1.278v-.852h3.48v.852h-1.278v3.348z"/></g><g filter="url(#c)"><path fill="#fff" d="M12.03 19.247V17.33l3.66-3c1.368-1.132 1.902-1.73 1.902-2.64 0-.928-.613-1.43-1.477-1.43-.849 0-1.43.47-2.247 1.476L12.17 10.37c1.084-1.477 2.137-2.278 4.1-2.278 2.28 0 3.788 1.336 3.788 3.425 0 1.839-.943 2.75-2.892 4.259l-1.79 1.382h4.792v2.09zm13.34.189c-1.76 0-3.048-.629-4.116-1.65l1.461-1.744c.833.754 1.65 1.194 2.624 1.194 1.132 0 1.839-.55 1.839-1.556 0-.942-.802-1.492-1.949-1.492-.691 0-1.32.188-1.838.408l-1.399-.927.314-5.421h6.757v2.121h-4.682l-.126 1.902a5.4 5.4 0 0 1 1.446-.189c2.136 0 3.85 1.037 3.85 3.551 0 2.326-1.65 3.803-4.18 3.803"/></g><g fill="#fff" filter="url(#d)"><path d="M15.087 31.088c-5.216-1.105-8.977-3.97-10.963-8.8-2.114-5.148-.778-10.59 2.388-14.063-.061.084-.117.172-.184.256-1.43 1.83-2.37 3.868-2.762 6.145-1.277 7.401 3.67 14.111 10.318 15.715.343.082.678.187 1.024.25.29.052.356.171.179.495"/><path d="M5.713 29.37c1.682-.613 3.309-.995 4.9.278-.21.46-.561.714-.957.9-.485.228-.989.254-1.507.167-.772-.13-1.972-.766-2.436-1.345m-2.286-2.744c1.668-.382 3.719.258 4.246 1.323-.39.425-.886.572-1.426.513-1.155-.124-2.048-.748-2.764-1.686-.026-.034-.031-.083-.056-.15m-1.633-3.364c1.404-.146 3.586.99 3.92 2.038-1.244.765-3.568-.446-3.92-2.038m-.98-3.605c1.405.565 2.593 1.254 3.184 2.71.175.426.08.547-.367.555-.626.013-1.146-.274-1.577-.71-.66-.663-1.05-1.492-1.24-2.555m2.277-.002a1.58 1.58 0 0 1-1.179-.43C1.017 18.39.817 17.281.814 16.064c1.145.607 2.409 2.178 2.277 3.59m-1.868-7.183c1.345.889 2.16 2.903 1.787 4.246-.394-.029-.718-.207-.99-.476a2.9 2.9 0 0 1-.872-1.942c-.03-.579.046-1.165.075-1.828M10.05 25.21c1.028.742 1.523 2.513 1.018 3.592-1.363-.127-1.865-1.87-1.019-3.593M2.698 9.532c.763 1.176 1.284 2.362.956 3.764a1.6 1.6 0 0 1-.1.307c-.088.187-.194.229-.395.103-.63-.394-.895-.987-1.007-1.68-.122-.764.125-1.943.546-2.494m5.62 13.718c.83.976.89 2.826.126 3.918-1.239-.447-1.62-2.482-.126-3.919M4.487 6.919c.77 1.51.811 3.186-.165 3.92-.368-.238-.646-.514-.773-.909-.362-1.135.124-2.07.938-3.011m1.865 17.963c-1.122-.854-.69-2.989.715-3.593.493.881.38 2.874-.715 3.593m-2.409-5.226c-.766-1.58.968-3.166 2.084-3.266.153 1.148-1.031 3.202-2.084 3.266m2.353-.652c.293 1.324-.374 2.81-1.45 3.265-.973-.784-.265-2.614 1.45-3.265M5.773 8.552c-.321-.344-.405-.808-.384-1.295.044-1.031.44-1.852 1.049-2.537.033-.036.08-.057.121-.087.328 1.262.044 3.367-.786 3.919M9.297 3c.1 1.12-.533 3.284-1.671 3.593-.371-.487-.318-1.049-.147-1.569.303-.922.924-1.589 1.818-2.024m-5.48 13.715c-.393-1.376 1.13-2.684 2.55-2.607-.054 1.122-1.58 2.678-2.55 2.607m.281-2.94c-.202-1.16 1.323-2.154 2.921-1.923-.088.902-1.727 1.989-2.921 1.923m5.535-5.79c-.888 1.034-2.297 1.55-3.266.993.113-.602.487-.946.954-1.16.776-.36 1.542-.34 2.312.167M7.997 9.738c-.705 1.072-1.494 1.83-2.644 1.747-.272-.02-.352-.164-.256-.449s.181-.526.326-.725c.53-.726 1.788-1.008 2.574-.573m4.248-5.961c-.46.955-1.7 1.923-2.665 1.83-.255-.027-.32-.13-.246-.391.301-1.051 1.987-1.889 2.911-1.439m-.979 2.753c-.521.459-1.118.597-1.737.683-.46.065-.909.05-1.333-.187-.221-.125-.263-.279-.085-.457.178-.179.32-.337.516-.418.929-.385 1.798-.236 2.639.38m23.249 1.368c.361.49.745.97 1.082 1.48.863 1.31 1.534 2.71 1.91 4.24 1.96 7.974-2.775 14.866-9.184 16.997-.55.182-1.114.328-1.68.463-.13.03-.38-.02-.417-.103-.117-.275.15-.273.312-.313 1.65-.388 3.261-.891 4.69-1.845 3.531-2.36 5.748-5.607 6.342-9.851.546-3.906-.4-7.46-2.816-10.595l-.311-.405z"/><path d="M35.668 29.397c-.254.194-.427.342-.613.47-.883.607-1.806 1.045-2.88.845-.642-.119-1.21-.553-1.406-1.083 1.547-1.255 3.162-.872 4.898-.232m-1.959-1.452c.598-1.162 2.648-1.67 4.246-1.323-.037.075-.059.156-.103.213-.69.872-1.538 1.468-2.619 1.618-.575.08-1.102-.057-1.524-.508m1.961-2.623c.259-1.03 2.542-2.229 3.919-2.056-.293 1.565-2.606 2.777-3.92 2.056m4.899-5.665c-.005 1.342-1.229 2.99-2.398 3.247-.272.06-.577-.047-.868-.076.068-.26.089-.546.212-.775.672-1.245 1.777-1.905 3.054-2.396m-2.604-.002c-.13-1.418 1.234-2.94 2.52-3.591.453 1.574-.997 3.66-2.52 3.59m.419-2.937c-.41-1.184.516-3.355 1.653-3.919.67 1.951-.391 3.847-1.653 3.92m-8.09 12.084c-.462-1.165.023-2.892.99-3.593.933 1.419.397 3.395-.99 3.593m8.446-19.27c.145.402.28.712.372 1.034.19.687.216 1.378-.022 2.062a2.08 2.08 0 0 1-.825 1.053c-.273.18-.417.098-.476-.155-.08-.356-.158-.72-.16-1.081-.011-1.056.454-1.956 1.111-2.913m-5.786 17.636c-.78-1.1-.717-3.019.116-3.919 1.333 1.254 1.284 3.258-.116 3.92m4.082-16.331c-.945-.764-.896-2.508-.173-3.919 1.107.761 1.697 3.143.173 3.92M35.05 24.882c-.956-.643-1.323-2.51-.72-3.593 1.37.503 1.823 2.711.72 3.593m2.137-5.226c-.898-.069-1.934-2.022-1.839-3.266 1.267.044 2.309 1.88 1.839 3.266m-.63 2.614c-1.067-.444-1.805-2.212-1.45-3.593.797.403 1.382.955 1.7 1.725.3.717.191 1.38-.25 1.867M34.531 4.633c1.356.662 1.966 3.12.973 3.919-1.107-.61-1.358-2.898-.973-3.92m-.777 1.961c-1.03-.486-1.889-2.394-1.633-3.593 1.471.581 2.413 2.624 1.633 3.593m1.263 7.518c1.518-.117 2.9 1.25 2.56 2.606-.277-.098-.572-.153-.81-.293-.904-.532-1.445-1.326-1.75-2.313m2.274-.345c-1.118.133-2.724-.917-2.93-1.896 1.507-.295 3.08.71 2.93 1.896M31.75 7.993c1.139-.864 2.948-.324 3.266.958-.868.606-2.418.069-3.266-.958m1.307 1.75c.889-.447 2.325-.157 2.89.612.198.269.256.668.376 1.01-.261.045-.524.149-.78.122-1.063-.11-1.824-.798-2.486-1.744m-3.92-6.02c.238-.029.412-.081.585-.068.877.073 1.68.33 2.176 1.248q.054.09.095.187c.166.396.09.577-.286.508a4.1 4.1 0 0 1-1.285-.456c-.525-.296-.922-.79-1.285-1.419m.653 2.829c.91-.632 1.83-.77 2.818-.438.363.122.67.33.774.72-.296.135-.584.357-.894.387-.953.1-1.852-.094-2.698-.67"/></g></g><defs><filter id="b" width="13.8332" height="6.25703" x="13.7455" y="22.7771" color-interpolation-filters="sRGB" filterUnits="userSpaceOnUse"><feFlood flood-opacity="0" result="BackgroundImageFix"/><feColorMatrix in="SourceAlpha" result="hardAlpha" values="0 0 0 0 0 0 0 0 0 0 0 0 0 0 0 0 0 0 127 0"/><feOffset dy="0.50078"/><feGaussianBlur stdDeviation="0.50078"/><feComposite in2="hardAlpha" operator="out"/><feColorMatrix values="0 0 0 0 1 0 0 0 0 1 0 0 0 0 1 0 0 0 0.5 0"/><feBlend in2="BackgroundImageFix" result="effect1_dropShadow_3736_1884"/><feBlend in="SourceGraphic" in2="effect1_dropShadow_3736_1884" result="shape"/><feColorMatrix in="SourceAlpha" result="hardAlpha" values="0 0 0 0 0 0 0 0 0 0 0 0 0 0 0 0 0 0 127 0"/><feOffset dy="0.575232"/><feGaussianBlur stdDeviation="0.287616"/><feComposite in2="hardAlpha" k2="-1" k3="1" operator="arithmetic"/><feColorMatrix values="0 0 0 0 0 0 0 0 0 0 0 0 0 0 0 0 0 0 0.3 0"/><feBlend in2="shape" result="effect2_innerShadow_3736_1884"/></filter><filter id="c" width="19.5241" height="13.3482" x="11.0277" y="7.59004" color-interpolation-filters="sRGB" filterUnits="userSpaceOnUse"><feFlood flood-opacity="0" result="BackgroundImageFix"/><feColorMatrix in="SourceAlpha" result="hardAlpha" values="0 0 0 0 0 0 0 0 0 0 0 0 0 0 0 0 0 0 127 0"/><feOffset dy="0.50078"/><feGaussianBlur stdDeviation="0.50078"/><feComposite in2="hardAlpha" operator="out"/><feColorMatrix values="0 0 0 0 1 0 0 0 0 1 0 0 0 0 1 0 0 0 0.5 0"/><feBlend in2="BackgroundImageFix" result="effect1_dropShadow_3736_1884"/><feBlend in="SourceGraphic" in2="effect1_dropShadow_3736_1884" result="shape"/><feColorMatrix in="SourceAlpha" result="hardAlpha" values="0 0 0 0 0 0 0 0 0 0 0 0 0 0 0 0 0 0 127 0"/><feOffset dy="0.575232"/><feGaussianBlur stdDeviation="0.287616"/><feComposite in2="hardAlpha" k2="-1" k3="1" operator="arithmetic"/><feColorMatrix values="0 0 0 0 0 0 0 0 0 0 0 0 0 0 0 0 0 0 0.3 0"/><feBlend in2="shape" result="effect2_innerShadow_3736_1884"/></filter><filter id="d" width="41.756" height="30.0906" x="-0.187107" y="2.49922" color-interpolation-filters="sRGB" filterUnits="userSpaceOnUse"><feFlood flood-opacity="0" result="BackgroundImageFix"/><feColorMatrix in="SourceAlpha" result="hardAlpha" values="0 0 0 0 0 0 0 0 0 0 0 0 0 0 0 0 0 0 127 0"/><feOffset dy="0.50078"/><feGaussianBlur stdDeviation="0.50078"/><feComposite in2="hardAlpha" operator="out"/><feColorMatrix values="0 0 0 0 1 0 0 0 0 1 0 0 0 0 1 0 0 0 0.5 0"/><feBlend in2="BackgroundImageFix" result="effect1_dropShadow_3736_1884"/><feBlend in="SourceGraphic" in2="effect1_dropShadow_3736_1884" result="shape"/><feColorMatrix in="SourceAlpha" result="hardAlpha" values="0 0 0 0 0 0 0 0 0 0 0 0 0 0 0 0 0 0 127 0"/><feOffset dy="0.575232"/><feGaussianBlur stdDeviation="0.287616"/><feComposite in2="hardAlpha" k2="-1" k3="1" operator="arithmetic"/><feColorMatrix values="0 0 0 0 0 0 0 0 0 0 0 0 0 0 0 0 0 0 0.3 0"/><feBlend in2="shape" result="effect2_innerShadow_3736_1884"/></filter><clipPath id="a"><path fill="#fff" d="M0 0h42v34H0z"/></clipPath></defs></svg>