<svg xmlns="http://www.w3.org/2000/svg" width="38" height="37" fill="none" viewBox="0 0 38 37"><g filter="url(#a)"><path fill="#fff" fill-rule="evenodd" d="M19.017 1c.336 0 .659.125.897.347.237.223.371.524.371.839v3.463l2.908-2.72c.24-.21.558-.323.887-.318s.642.13.874.347c.232.218.365.51.371.818s-.116.605-.34.83l-4.7 4.396v6.944l6.428-3.471 1.72-6.007c.044-.15.118-.291.22-.415.1-.123.227-.227.371-.305a1.33 1.33 0 0 1 .962-.118c.161.04.312.11.444.204q.2.144.326.348a1.1 1.1 0 0 1 .127.9l-1.065 3.716 3.205-1.731c.292-.155.636-.196.96-.114s.598.28.765.552c.168.27.214.593.128.896a1.2 1.2 0 0 1-.585.72l-3.203 1.73 3.973.996c.325.082.601.28.77.553.167.273.213.597.126.9a1.2 1.2 0 0 1-.592.72c-.291.158-.637.2-.962.119l-6.42-1.61L21.552 18l6.427 3.471 6.421-1.61c.325-.081.672-.038.963.12a1.2 1.2 0 0 1 .59.72 1.12 1.12 0 0 1-.126.9 1.26 1.26 0 0 1-.77.553l-3.972.995 3.205 1.732q.22.117.376.304.155.188.221.416a1.1 1.1 0 0 1-.125.904 1.2 1.2 0 0 1-.328.349 1.3 1.3 0 0 1-.446.204 1.35 1.35 0 0 1-.965-.123l-3.206-1.732 1.065 3.715a1.1 1.1 0 0 1-.127.9 1.2 1.2 0 0 1-.326.348 1.3 1.3 0 0 1-.444.204 1.35 1.35 0 0 1-.962-.118 1.3 1.3 0 0 1-.372-.305 1.2 1.2 0 0 1-.218-.415l-1.721-6.007-6.428-3.47v6.943l4.7 4.396q.183.166.284.385a1.12 1.12 0 0 1 .01.918 1.2 1.2 0 0 1-.278.39c-.119.11-.26.199-.416.258a1.35 1.35 0 0 1-.98-.007 1.3 1.3 0 0 1-.412-.266l-2.908-2.72v3.462c0 .315-.134.616-.371.839-.238.222-.56.347-.897.347s-.659-.125-.896-.347a1.15 1.15 0 0 1-.372-.839v-3.463l-2.907 2.72c-.24.21-.559.323-.887.318a1.3 1.3 0 0 1-.874-.347 1.15 1.15 0 0 1-.372-.818 1.14 1.14 0 0 1 .34-.83l4.7-4.396v-6.944l-6.427 3.471L9.6 29.532q-.066.227-.219.415a1.3 1.3 0 0 1-.372.305 1.33 1.33 0 0 1-.962.119c-.16-.04-.312-.11-.444-.205a1.2 1.2 0 0 1-.326-.348 1.1 1.1 0 0 1-.127-.9l1.065-3.716-3.205 1.733c-.292.157-.638.2-.963.118a1.26 1.26 0 0 1-.77-.553 1.12 1.12 0 0 1-.126-.9 1.2 1.2 0 0 1 .59-.72l3.206-1.731-3.973-.996a1.3 1.3 0 0 1-.457-.198 1.2 1.2 0 0 1-.339-.349 1.11 1.11 0 0 1-.136-.915 1.15 1.15 0 0 1 .225-.422 1.3 1.3 0 0 1 .383-.306 1.33 1.33 0 0 1 .982-.1l6.42 1.608L16.482 18l-6.427-3.471-6.421 1.61a1.35 1.35 0 0 1-.963-.12 1.3 1.3 0 0 1-.372-.305 1.2 1.2 0 0 1-.219-.415 1.1 1.1 0 0 1 .127-.9q.127-.205.327-.349c.132-.095.283-.164.444-.204l3.971-.995-3.205-1.73a1.3 1.3 0 0 1-.372-.305 1.2 1.2 0 0 1-.22-.416 1.1 1.1 0 0 1 .127-.9q.126-.204.326-.348a1.35 1.35 0 0 1 1.407-.087l3.203 1.733L7.15 7.084a1.12 1.12 0 0 1 .127-.9c.169-.273.446-.472.771-.554.325-.081.671-.038.963.12a1.2 1.2 0 0 1 .59.72l1.72 6.006 6.43 3.468V9.002l-4.7-4.396a1.14 1.14 0 0 1-.34-.83c.005-.307.138-.6.37-.818.233-.217.546-.341.875-.347s.646.109.886.318l2.908 2.72V2.186c0-.315.134-.616.372-.839.237-.222.56-.347.896-.347" clip-rule="evenodd"/></g><defs><filter id="a" width="36.5599" height="36.5599" x="0.720042" y="0.360021" color-interpolation-filters="sRGB" filterUnits="userSpaceOnUse"><feFlood flood-opacity="0" result="BackgroundImageFix"/><feColorMatrix in="SourceAlpha" result="hardAlpha" values="0 0 0 0 0 0 0 0 0 0 0 0 0 0 0 0 0 0 127 0"/><feOffset dy="0.639979"/><feGaussianBlur stdDeviation="0.639979"/><feComposite in2="hardAlpha" operator="out"/><feColorMatrix values="0 0 0 0 1 0 0 0 0 1 0 0 0 0 1 0 0 0 0.5 0"/><feBlend in2="BackgroundImageFix" result="effect1_dropShadow_3735_1829"/><feBlend in="SourceGraphic" in2="effect1_dropShadow_3735_1829" result="shape"/><feColorMatrix in="SourceAlpha" result="hardAlpha" values="0 0 0 0 0 0 0 0 0 0 0 0 0 0 0 0 0 0 127 0"/><feOffset dy="0.735125"/><feGaussianBlur stdDeviation="0.367563"/><feComposite in2="hardAlpha" k2="-1" k3="1" operator="arithmetic"/><feColorMatrix values="0 0 0 0 0 0 0 0 0 0 0 0 0 0 0 0 0 0 0.3 0"/><feBlend in2="shape" result="effect2_innerShadow_3735_1829"/></filter></defs></svg>