<svg xmlns="http://www.w3.org/2000/svg" width="34" height="34" fill="none" viewBox="0 0 34 34"><g clip-path="url(#a)" filter="url(#b)"><path stroke="#fff" stroke-width="1.77778" d="M25.22 10.553c-.001-1.891-2.471-2.602-3.499-1.04-.522.796-.977 2.149-1.3 3.497-.328 1.373-.552 2.886-.552 4.07 0 2.415.954 4.445 1.896 5.826 1.031 1.512 3.454.82 3.454-1.053zM3.866 1.889H7.03c.116 0 .191.09.191.178v.825H3.675v-.825c0-.088.075-.178.192-.178Zm-.353 13.234-.129-.213-.085-.139.103-9.362h4.44l.207.25h1.087l.233-.168 2.957-2.129.107-.054c.104-.054.248-.127.412-.205a8 8 0 0 1 .974-.407 8 8 0 0 1 1.063-.209c.187-.027.354-.048.475-.062l.141-.017h10.899l.055-.008.014-.002.088-.004a2 2 0 0 1 .334.017c.278.038.544.135.734.321.252.25.373.511.433.706a1.4 1.4 0 0 1 .055.26V31.98c0 .061-.054.13-.144.13H3.442a.16.16 0 0 1-.152-.095l-.013-.054-.052-2.395.226-.56.063-.16z" shape-rendering="crispEdges"/></g><defs><clipPath id="a"><path fill="#fff" d="M0 0h34v34H0z"/></clipPath><filter id="b" width="29.0369" height="34.3704" x="1.14831" y="0.407407" color-interpolation-filters="sRGB" filterUnits="userSpaceOnUse"><feFlood flood-opacity="0" result="BackgroundImageFix"/><feColorMatrix in="SourceAlpha" result="hardAlpha" values="0 0 0 0 0 0 0 0 0 0 0 0 0 0 0 0 0 0 127 0"/><feOffset dy="0.592593"/><feGaussianBlur stdDeviation="0.592593"/><feComposite in2="hardAlpha" operator="out"/><feColorMatrix values="0 0 0 0 1 0 0 0 0 1 0 0 0 0 1 0 0 0 0.5 0"/><feBlend in2="BackgroundImageFix" result="effect1_dropShadow_3736_1860"/><feBlend in="SourceGraphic" in2="effect1_dropShadow_3736_1860" result="shape"/><feColorMatrix in="SourceAlpha" result="hardAlpha" values="0 0 0 0 0 0 0 0 0 0 0 0 0 0 0 0 0 0 127 0"/><feOffset dy="0.680694"/><feGaussianBlur stdDeviation="0.340347"/><feComposite in2="hardAlpha" k2="-1" k3="1" operator="arithmetic"/><feColorMatrix values="0 0 0 0 0 0 0 0 0 0 0 0 0 0 0 0 0 0 0.3 0"/><feBlend in2="shape" result="effect2_innerShadow_3736_1860"/></filter></defs></svg>