<svg xmlns="http://www.w3.org/2000/svg" width="64" height="60" fill="none" viewBox="0 0 64 60"><g filter="url(#a)"><mask id="b" fill="#fff"><path fill-rule="evenodd" d="M18.997 29.578c-.163-.311-.654-.622-.654-.622l-8.171-2.486a3.6 3.6 0 0 0-2.511.137 3.34 3.34 0 0 0-1.739 1.728 2.96 2.96 0 0 0-.072 1.855 3.1 3.1 0 0 0 1.053 1.563c.604.586 1.59.92 2.452.932h6.537a3.4 3.4 0 0 0 1.552-.292 3.24 3.24 0 0 0 1.226-.95c.337-.488.358-1.447.327-1.865m-10.658.249c.028.187.095.366.198.528a1 1 0 0 0 .37.247c.142.054.295.076.448.063h6.864l-6.538-2.02a1.2 1.2 0 0 0-.771.087 1.1 1.1 0 0 0-.536.535 1.3 1.3 0 0 0-.035.56" clip-rule="evenodd"/><path fill-rule="evenodd" d="M5.432 42.008c-.26 0-.51-.098-.693-.273a.9.9 0 0 1-.287-.66V27.559c0-.479.136-.949.395-1.36.26-.41.631-.746 1.075-.97l3.27-1.555.49-.31 5.883-9.634c.346-.48.81-.872 1.35-1.142a3.9 3.9 0 0 1 1.755-.412h13.32V10H18.67a6.46 6.46 0 0 0-2.876.726 6.1 6.1 0 0 0-2.19 1.915l-2.779 4.351H6.25c-.52 0-1.019.197-1.387.546a1.82 1.82 0 0 0-.574 1.319c-.022.4.042.8.188 1.177.146.376.371.72.662 1.011.29.291.64.522 1.028.68s.805.24 1.227.24h.164l-2.779 1.242A5.13 5.13 0 0 0 2.76 25.02 4.8 4.8 0 0 0 2 27.558v13.518c.025.552.205 1.088.521 1.553s.757.84 1.277 1.088v2.33c0 .784.327 1.535.91 2.088A3.2 3.2 0 0 0 6.902 49h4.903c.824 0 1.613-.311 2.196-.865a2.88 2.88 0 0 0 .91-2.087v-2.02h23.207a12.7 12.7 0 0 1-1.144-2.02zm4.086-23.151H6.413c.039.219.159.418.339.56s.407.22.641.216h1.635zm2.878 27.8a.9.9 0 0 0 .227-.61v-2.02H6.25v2.02a.9.9 0 0 0 .227.61c.15.172.36.286.59.323h4.74a1 1 0 0 0 .59-.322" clip-rule="evenodd"/><path fill-rule="evenodd" d="M23.9 31.908h10.06c.082.311.1.622.118.933.018.31.037.621.118.932h-10.95a2.04 2.04 0 0 1-1.067-.292 1.9 1.9 0 0 1-.73-.796l-.254-.777-.237-1.087v-.933c0-.155.13-.447.327-.621a2.52 2.52 0 0 1 1.634-.622h11.277v2.176H23.41zm-6.374 5.128-.327 1.398h18.305c.163.311.286.66.408 1.01.123.35.246.7.409 1.01H16.709a1.9 1.9 0 0 1-.813-.145 1.8 1.8 0 0 1-.658-.476 1.5 1.5 0 0 1-.343-.662 1.5 1.5 0 0 1 .016-.737l.327-2.175c.135-.397.396-.745.747-.995s.776-.392 1.214-.403h17.488l.49 2.175zm27.477-7.458c.163-.311.654-.622.654-.622l8.171-2.486a3.6 3.6 0 0 1 2.511.137 3.34 3.34 0 0 1 1.739 1.728c.222.597.247 1.244.072 1.855a3.1 3.1 0 0 1-1.053 1.563c-.604.586-1.59.92-2.452.932h-6.537a3.4 3.4 0 0 1-1.552-.292 3.24 3.24 0 0 1-1.226-.95c-.337-.488-.358-1.447-.327-1.865m10.658.249a1.4 1.4 0 0 1-.198.528 1 1 0 0 1-.37.247 1 1 0 0 1-.448.063h-6.864l6.538-2.02c.26-.057.533-.027.771.087.24.113.429.303.536.535.052.182.064.373.035.56" clip-rule="evenodd"/><path fill-rule="evenodd" d="M58.568 42.008c.26 0 .51-.098.693-.273a.9.9 0 0 0 .287-.66V27.559c0-.479-.136-.949-.395-1.36a2.7 2.7 0 0 0-1.075-.97l-3.27-1.555-.49-.31-5.883-9.634a3.7 3.7 0 0 0-1.35-1.142 3.9 3.9 0 0 0-1.755-.412H32.01V10h13.32a6.46 6.46 0 0 1 2.876.726 6.1 6.1 0 0 1 2.19 1.915l2.779 4.351h4.576c.52 0 1.019.197 1.387.546.367.35.574.824.574 1.319.022.4-.042.8-.188 1.177-.146.376-.371.72-.662 1.011-.29.291-.64.522-1.028.68s-.805.24-1.227.24h-.164l2.779 1.242a5.13 5.13 0 0 1 2.019 1.812c.489.766.751 1.643.759 2.539v13.518a3 3 0 0 1-.521 1.553c-.316.464-.757.84-1.277 1.088v2.33a2.88 2.88 0 0 1-.91 2.088 3.2 3.2 0 0 1-2.195.865h-4.903a3.2 3.2 0 0 1-2.196-.865 2.88 2.88 0 0 1-.91-2.087v-2.02H25.882c.444-.64.827-1.316 1.144-2.02zm-4.086-23.151h3.105a.92.92 0 0 1-.339.56c-.18.143-.407.22-.641.216h-1.635zm-2.878 27.8a.9.9 0 0 1-.227-.61v-2.02h6.374v2.02a.9.9 0 0 1-.227.61 1 1 0 0 1-.59.323h-4.74a1 1 0 0 1-.59-.322" clip-rule="evenodd"/><path fill-rule="evenodd" d="M40.1 31.908H30.04c-.082.311-.1.622-.118.933-.018.31-.037.621-.118.932h10.95c.378.003.749-.099 1.068-.292.318-.193.572-.469.73-.796l.253-.777.237-1.087v-.933c0-.155-.13-.447-.327-.621a2.52 2.52 0 0 0-1.635-.622H29.805v2.176H40.59zm6.374 5.128.327 1.398H28.496c-.163.311-.286.66-.408 1.01-.123.35-.246.7-.409 1.01h19.612c.28.012.557-.037.813-.145s.48-.271.658-.476a1.5 1.5 0 0 0 .343-.662 1.5 1.5 0 0 0-.016-.737l-.327-2.175a2.03 2.03 0 0 0-.747-.995 2.2 2.2 0 0 0-1.214-.403H29.313l-.49 2.175zm3.828-13.66V21.93H13.671v1.334z" clip-rule="evenodd"/></mask><path stroke="#fff" stroke-width="6" d="M18.997 29.578c-.163-.311-.654-.622-.654-.622l-8.171-2.486a3.6 3.6 0 0 0-2.511.137 3.34 3.34 0 0 0-1.739 1.728 2.96 2.96 0 0 0-.072 1.855 3.1 3.1 0 0 0 1.053 1.563c.604.586 1.59.92 2.452.932h6.537a3.4 3.4 0 0 0 1.552-.292 3.24 3.24 0 0 0 1.226-.95c.337-.488.358-1.447.327-1.865Zm-10.658.249c.028.187.095.366.198.528a1 1 0 0 0 .37.247c.142.054.295.076.448.063h6.864l-6.538-2.02a1.2 1.2 0 0 0-.771.087 1.1 1.1 0 0 0-.536.535 1.3 1.3 0 0 0-.035.56Z" clip-rule="evenodd" mask="url(#b)" shape-rendering="crispEdges"/><path stroke="#fff" stroke-width="6" d="M5.432 42.008c-.26 0-.51-.098-.693-.273a.9.9 0 0 1-.287-.66V27.559c0-.479.136-.949.395-1.36.26-.41.631-.746 1.075-.97l3.27-1.555.49-.31 5.883-9.634c.346-.48.81-.872 1.35-1.142a3.9 3.9 0 0 1 1.755-.412h13.32V10H18.67a6.46 6.46 0 0 0-2.876.726 6.1 6.1 0 0 0-2.19 1.915l-2.779 4.351H6.25c-.52 0-1.019.197-1.387.546a1.82 1.82 0 0 0-.574 1.319c-.022.4.042.8.188 1.177.146.376.371.72.662 1.011.29.291.64.522 1.028.68s.805.24 1.227.24h.164l-2.779 1.242A5.13 5.13 0 0 0 2.76 25.02 4.8 4.8 0 0 0 2 27.558v13.518c.025.552.205 1.088.521 1.553s.757.84 1.277 1.088v2.33c0 .784.327 1.535.91 2.088A3.2 3.2 0 0 0 6.902 49h4.903c.824 0 1.613-.311 2.196-.865a2.88 2.88 0 0 0 .91-2.087v-2.02h23.207a12.7 12.7 0 0 1-1.144-2.02zm4.086-23.151H6.413c.039.219.159.418.339.56s.407.22.641.216h1.635zm2.878 27.8a.9.9 0 0 0 .227-.61v-2.02H6.25v2.02a.9.9 0 0 0 .227.61c.15.172.36.286.59.323h4.74a1 1 0 0 0 .59-.322Z" clip-rule="evenodd" mask="url(#b)" shape-rendering="crispEdges"/><path stroke="#fff" stroke-width="6" d="M23.9 31.908h10.06c.082.311.1.622.118.933.018.31.037.621.118.932h-10.95a2.04 2.04 0 0 1-1.067-.292 1.9 1.9 0 0 1-.73-.796l-.254-.777-.237-1.087v-.933c0-.155.13-.447.327-.621a2.52 2.52 0 0 1 1.634-.622h11.277v2.176H23.41zm-6.374 5.128-.327 1.398h18.305c.163.311.286.66.408 1.01.123.35.246.7.409 1.01H16.709a1.9 1.9 0 0 1-.813-.145 1.8 1.8 0 0 1-.658-.476 1.5 1.5 0 0 1-.343-.662 1.5 1.5 0 0 1 .016-.737l.327-2.175c.135-.397.396-.745.747-.995s.776-.392 1.214-.403h17.488l.49 2.175zm27.477-7.458c.163-.311.654-.622.654-.622l8.171-2.486a3.6 3.6 0 0 1 2.511.137 3.34 3.34 0 0 1 1.739 1.728c.222.597.247 1.244.072 1.855a3.1 3.1 0 0 1-1.053 1.563c-.604.586-1.59.92-2.452.932h-6.537a3.4 3.4 0 0 1-1.552-.292 3.24 3.24 0 0 1-1.226-.95c-.337-.488-.358-1.447-.327-1.865Zm10.658.249a1.4 1.4 0 0 1-.198.528 1 1 0 0 1-.37.247 1 1 0 0 1-.448.063h-6.864l6.538-2.02c.26-.057.533-.027.771.087.24.113.429.303.536.535.052.182.064.373.035.56Z" clip-rule="evenodd" mask="url(#b)" shape-rendering="crispEdges"/><path stroke="#fff" stroke-width="6" d="M58.568 42.008c.26 0 .51-.098.693-.273a.9.9 0 0 0 .287-.66V27.559c0-.479-.136-.949-.395-1.36a2.7 2.7 0 0 0-1.075-.97l-3.27-1.555-.49-.31-5.883-9.634a3.7 3.7 0 0 0-1.35-1.142 3.9 3.9 0 0 0-1.755-.412H32.01V10h13.32a6.46 6.46 0 0 1 2.876.726 6.1 6.1 0 0 1 2.19 1.915l2.779 4.351h4.576c.52 0 1.019.197 1.387.546.367.35.574.824.574 1.319.022.4-.042.8-.188 1.177-.146.376-.371.72-.662 1.011-.29.291-.64.522-1.028.68s-.805.24-1.227.24h-.164l2.779 1.242a5.13 5.13 0 0 1 2.019 1.812c.489.766.751 1.643.759 2.539v13.518a3 3 0 0 1-.521 1.553c-.316.464-.757.84-1.277 1.088v2.33a2.88 2.88 0 0 1-.91 2.088 3.2 3.2 0 0 1-2.195.865h-4.903a3.2 3.2 0 0 1-2.196-.865 2.88 2.88 0 0 1-.91-2.087v-2.02H25.882c.444-.64.827-1.316 1.144-2.02zm-4.086-23.151h3.105a.92.92 0 0 1-.339.56c-.18.143-.407.22-.641.216h-1.635zm-2.878 27.8a.9.9 0 0 1-.227-.61v-2.02h6.374v2.02a.9.9 0 0 1-.227.61 1 1 0 0 1-.59.323h-4.74a1 1 0 0 1-.59-.322Z" clip-rule="evenodd" mask="url(#b)" shape-rendering="crispEdges"/><path stroke="#fff" stroke-width="6" d="M40.1 31.908H30.04c-.082.311-.1.622-.118.933-.018.31-.037.621-.118.932h10.95c.378.003.749-.099 1.068-.292.318-.193.572-.469.73-.796l.253-.777.237-1.087v-.933c0-.155-.13-.447-.327-.621a2.52 2.52 0 0 0-1.635-.622H29.805v2.176H40.59zm6.374 5.128.327 1.398H28.496c-.163.311-.286.66-.408 1.01-.123.35-.246.7-.409 1.01h19.612c.28.012.557-.037.813-.145s.48-.271.658-.476a1.5 1.5 0 0 0 .343-.662 1.5 1.5 0 0 0-.016-.737l-.327-2.175a2.03 2.03 0 0 0-.747-.995 2.2 2.2 0 0 0-1.214-.403H29.313l-.49 2.175zm3.828-13.66V21.93H13.671v1.334z" clip-rule="evenodd" mask="url(#b)" shape-rendering="crispEdges"/></g><defs><filter id="a" width="64" height="43" x="0" y="9" color-interpolation-filters="sRGB" filterUnits="userSpaceOnUse"><feFlood flood-opacity="0" result="BackgroundImageFix"/><feColorMatrix in="SourceAlpha" result="hardAlpha" values="0 0 0 0 0 0 0 0 0 0 0 0 0 0 0 0 0 0 127 0"/><feOffset dy="1"/><feGaussianBlur stdDeviation="1"/><feComposite in2="hardAlpha" operator="out"/><feColorMatrix values="0 0 0 0 1 0 0 0 0 1 0 0 0 0 1 0 0 0 0.5 0"/><feBlend in2="BackgroundImageFix" result="effect1_dropShadow_3813_8313"/><feBlend in="SourceGraphic" in2="effect1_dropShadow_3813_8313" result="shape"/><feColorMatrix in="SourceAlpha" result="hardAlpha" values="0 0 0 0 0 0 0 0 0 0 0 0 0 0 0 0 0 0 127 0"/><feOffset dy="1.14867"/><feGaussianBlur stdDeviation="0.574336"/><feComposite in2="hardAlpha" k2="-1" k3="1" operator="arithmetic"/><feColorMatrix values="0 0 0 0 0 0 0 0 0 0 0 0 0 0 0 0 0 0 0.3 0"/><feBlend in2="shape" result="effect2_innerShadow_3813_8313"/></filter></defs></svg>