<svg xmlns="http://www.w3.org/2000/svg" width="42" height="34" fill="none" viewBox="0 0 42 34"><g clip-path="url(#a)"><g filter="url(#b)"><path stroke="#fff" stroke-linejoin="round" stroke-width="1.92857" d="M20.6 28.393H4.8a1.8 1.8 0 0 1-1.8-1.8v-23.4a1.8 1.8 0 0 1 1.8-1.8h32.4a1.8 1.8 0 0 1 1.8 1.8v23.4a1.8 1.8 0 0 1-1.8 1.8h-5m-22-19.8h21.6m-21.6 6.3h5.4m-5.4 6.3h3.6" shape-rendering="crispEdges"/></g><g filter="url(#c)"><path fill="#fff" d="m25.42 30.233 2.812 1.374v-7.232s-.802 1.05-2.813 1.05c-2.01 0-2.812-1.03-2.812-1.03v7.212z"/></g><g filter="url(#d)"><path fill="#fff" d="M25.5 23.893a4.5 4.5 0 1 0 0-9 4.5 4.5 0 0 0 0 9"/></g></g><defs><filter id="b" width="40.5001" height="31.4999" x="0.74993" y="-0.214268" color-interpolation-filters="sRGB" filterUnits="userSpaceOnUse"><feFlood flood-opacity="0" result="BackgroundImageFix"/><feColorMatrix in="SourceAlpha" result="hardAlpha" values="0 0 0 0 0 0 0 0 0 0 0 0 0 0 0 0 0 0 127 0"/><feOffset dy="0.642857"/><feGaussianBlur stdDeviation="0.642857"/><feComposite in2="hardAlpha" operator="out"/><feColorMatrix values="0 0 0 0 1 0 0 0 0 1 0 0 0 0 1 0 0 0 0.5 0"/><feBlend in2="BackgroundImageFix" result="effect1_dropShadow_3736_1996"/><feBlend in="SourceGraphic" in2="effect1_dropShadow_3736_1996" result="shape"/><feColorMatrix in="SourceAlpha" result="hardAlpha" values="0 0 0 0 0 0 0 0 0 0 0 0 0 0 0 0 0 0 127 0"/><feOffset dy="0.738432"/><feGaussianBlur stdDeviation="0.369216"/><feComposite in2="hardAlpha" k2="-1" k3="1" operator="arithmetic"/><feColorMatrix values="0 0 0 0 0 0 0 0 0 0 0 0 0 0 0 0 0 0 0.3 0"/><feBlend in2="shape" result="effect2_innerShadow_3736_1996"/></filter><filter id="c" width="7.92135" height="9.52853" x="21.4588" y="23.8009" color-interpolation-filters="sRGB" filterUnits="userSpaceOnUse"><feFlood flood-opacity="0" result="BackgroundImageFix"/><feColorMatrix in="SourceAlpha" result="hardAlpha" values="0 0 0 0 0 0 0 0 0 0 0 0 0 0 0 0 0 0 127 0"/><feOffset dy="0.574087"/><feGaussianBlur stdDeviation="0.574087"/><feComposite in2="hardAlpha" operator="out"/><feColorMatrix values="0 0 0 0 1 0 0 0 0 1 0 0 0 0 1 0 0 0 0.5 0"/><feBlend in2="BackgroundImageFix" result="effect1_dropShadow_3736_1996"/><feBlend in="SourceGraphic" in2="effect1_dropShadow_3736_1996" result="shape"/><feColorMatrix in="SourceAlpha" result="hardAlpha" values="0 0 0 0 0 0 0 0 0 0 0 0 0 0 0 0 0 0 127 0"/><feOffset dy="0.659437"/><feGaussianBlur stdDeviation="0.329719"/><feComposite in2="hardAlpha" k2="-1" k3="1" operator="arithmetic"/><feColorMatrix values="0 0 0 0 0 0 0 0 0 0 0 0 0 0 0 0 0 0 0.3 0"/><feBlend in2="shape" result="effect2_innerShadow_3736_1996"/></filter><filter id="d" width="11.2963" height="11.2963" x="19.8518" y="14.3187" color-interpolation-filters="sRGB" filterUnits="userSpaceOnUse"><feFlood flood-opacity="0" result="BackgroundImageFix"/><feColorMatrix in="SourceAlpha" result="hardAlpha" values="0 0 0 0 0 0 0 0 0 0 0 0 0 0 0 0 0 0 127 0"/><feOffset dy="0.574087"/><feGaussianBlur stdDeviation="0.574087"/><feComposite in2="hardAlpha" operator="out"/><feColorMatrix values="0 0 0 0 1 0 0 0 0 1 0 0 0 0 1 0 0 0 0.5 0"/><feBlend in2="BackgroundImageFix" result="effect1_dropShadow_3736_1996"/><feBlend in="SourceGraphic" in2="effect1_dropShadow_3736_1996" result="shape"/><feColorMatrix in="SourceAlpha" result="hardAlpha" values="0 0 0 0 0 0 0 0 0 0 0 0 0 0 0 0 0 0 127 0"/><feOffset dy="0.659437"/><feGaussianBlur stdDeviation="0.329719"/><feComposite in2="hardAlpha" k2="-1" k3="1" operator="arithmetic"/><feColorMatrix values="0 0 0 0 0 0 0 0 0 0 0 0 0 0 0 0 0 0 0.3 0"/><feBlend in2="shape" result="effect2_innerShadow_3736_1996"/></filter><clipPath id="a"><path fill="#fff" d="M0 0h42v34H0z"/></clipPath></defs></svg>