<svg xmlns="http://www.w3.org/2000/svg" width="75" height="54" fill="none" viewBox="0 0 75 54"><g filter="url(#a)"><path fill="#fff" d="M30.978 42.732c-.198 0-.485-.044-.624-.08l.088-.743c.066.022.183.044.294.044.521 0 1.006-.33 1.006-3.409V37.53h3.527v5.143h-.904v-4.327h-1.778v.463c0 3.27-.595 3.923-1.609 3.923m5.398-.059V37.53h3.814v.808h-2.91v1.337h2.579v.809h-2.58v1.381h2.947v.808zm5.966 0v-4.305H40.71v-.838h4.173v.838h-1.631v4.305z"/></g><g filter="url(#b)"><path fill="#fff" d="M22.028 30v-3.418l6.529-5.352c2.438-2.018 3.39-3.082 3.39-4.708 0-1.653-1.093-2.55-2.634-2.55-1.513 0-2.55.841-4.007 2.635l-3.026-2.438c1.933-2.634 3.81-4.063 7.313-4.063 4.064 0 6.753 2.381 6.753 6.108 0 3.279-1.68 4.904-5.155 7.594l-3.195 2.466h8.547V30zm23.791.337c-3.138 0-5.436-1.121-7.342-2.942l2.606-3.11c1.486 1.344 2.943 2.129 4.68 2.129 2.017 0 3.278-.98 3.278-2.774 0-1.681-1.429-2.662-3.474-2.662-1.233 0-2.354.336-3.279.728l-2.494-1.653.56-9.667h12.05v3.783h-8.35l-.224 3.39c.784-.196 1.485-.336 2.577-.336 3.811 0 6.866 1.85 6.866 6.333 0 4.147-2.943 6.78-7.454 6.78"/></g><g fill="#fff" filter="url(#c)"><path d="M27.492 51c-9.317-1.967-16.033-7.067-19.58-15.666-3.777-9.162-1.39-18.848 4.265-25.032-.11.151-.21.306-.33.457-2.555 3.259-4.233 6.886-4.932 10.938-2.281 13.176 6.555 25.121 18.428 27.976.612.146 1.211.333 1.829.444.516.093.635.306.32.883"/><path d="M10.75 47.943c3.003-1.092 5.909-1.771 8.75.494-.373.819-1.002 1.272-1.71 1.601-.866.407-1.765.453-2.691.299-1.379-.232-3.52-1.365-4.35-2.394m-4.082-4.885c2.979-.68 6.642.46 7.583 2.355-.697.757-1.582 1.019-2.546.913-2.063-.22-3.659-1.331-4.936-3.002-.048-.06-.057-.147-.1-.266M3.75 37.069c2.507-.259 6.404 1.761 7 3.628-2.221 1.362-6.372-.793-7-3.628M2 30.651c2.509 1.007 4.63 2.234 5.686 4.825.313.759.141.975-.655.989-1.118.022-2.047-.488-2.817-1.264C3.034 34.02 2.339 32.545 2 30.65m4.066-.002c-.82.03-1.528-.226-2.105-.764-1.598-1.49-1.957-3.462-1.961-5.629 2.043 1.082 4.301 3.879 4.066 6.393M2.73 17.86c2.4 1.582 3.857 5.167 3.191 7.559-.704-.052-1.282-.37-1.769-.847a5.15 5.15 0 0 1-1.557-3.459c-.053-1.03.082-2.073.135-3.252m15.763 22.675c1.837 1.322 2.722 4.475 1.82 6.395-2.434-.226-3.332-3.33-1.82-6.395M5.364 12.628c1.362 2.093 2.294 4.205 1.707 6.7q-.06.283-.18.547c-.155.332-.345.407-.704.183-1.126-.701-1.6-1.758-1.798-2.991-.217-1.36.223-3.458.975-4.44M15.4 37.046c1.483 1.739 1.59 5.033.226 6.977-2.212-.796-2.892-4.42-.226-6.977M8.56 7.976c1.376 2.69 1.448 5.671-.295 6.977-.657-.422-1.153-.913-1.38-1.616-.647-2.021.222-3.684 1.675-5.36m3.33 31.976c-2.005-1.52-1.234-5.32 1.276-6.395.882 1.568.68 5.114-1.277 6.395M7.588 30.65c-1.369-2.813 1.729-5.635 3.721-5.813.274 2.043-1.841 5.7-3.72 5.814m4.201-1.162c.523 2.358-.669 5.001-2.589 5.814-1.74-1.397-.474-4.654 2.59-5.814m-.935-18.606c-.574-.612-.723-1.438-.686-2.306.079-1.835.787-3.296 1.873-4.515.06-.064.143-.1.218-.156.584 2.247.078 5.995-1.405 6.977M17.15 1c.18 1.994-.952 5.845-2.985 6.395-.663-.866-.568-1.866-.262-2.792.541-1.64 1.65-2.828 3.246-3.603M7.362 25.414c-.7-2.448 2.019-4.777 4.555-4.64-.097 1.998-2.82 4.768-4.555 4.64m.501-5.234c-.36-2.063 2.364-3.834 5.218-3.423-.157 1.607-3.084 3.541-5.218 3.424M17.75 9.874c-1.586 1.841-4.102 2.76-5.833 1.767.201-1.071.87-1.683 1.704-2.063 1.385-.642 2.753-.607 4.13.296m-2.921 3.121c-1.26 1.908-2.67 3.257-4.724 3.11-.487-.036-.628-.292-.457-.8.17-.507.324-.935.582-1.29.948-1.292 3.193-1.794 4.598-1.02m7.586-10.611c-.823 1.7-3.036 3.422-4.76 3.256-.455-.047-.57-.232-.438-.695.537-1.871 3.548-3.362 5.198-2.561m-1.748 4.901c-.932.815-1.998 1.062-3.103 1.214-.822.116-1.623.09-2.38-.332-.396-.223-.47-.497-.152-.814.317-.318.57-.6.922-.744 1.658-.685 3.212-.42 4.713.676M62.19 9.72c.646.875 1.332 1.726 1.933 2.635 1.541 2.332 2.74 4.823 3.412 7.547 3.5 14.197-4.957 26.464-16.403 30.258-.985.325-1.991.584-3.002.824-.232.054-.677-.035-.744-.182-.21-.49.267-.486.557-.558 2.948-.69 5.825-1.587 8.377-3.285 6.307-4.199 10.266-9.98 11.326-17.536.975-6.953-.713-13.279-5.028-18.86l-.557-.722z"/><path d="M64.249 47.99c-.452.346-.762.609-1.094.836-1.578 1.082-3.226 1.861-5.145 1.505-1.145-.211-2.16-.985-2.511-1.928 2.764-2.233 5.649-1.552 8.75-.413m-3.5-2.583c1.067-2.07 4.73-2.973 7.583-2.356-.065.134-.104.277-.183.378-1.232 1.553-2.748 2.614-4.678 2.88-1.028.144-1.968-.1-2.722-.902m3.501-4.671c.463-1.834 4.541-3.967 7-3.66-.522 2.786-4.654 4.944-7 3.66M73 30.651c-.01 2.39-2.195 5.323-4.282 5.782-.487.108-1.033-.084-1.551-.136.121-.463.157-.973.378-1.38 1.2-2.217 3.174-3.391 5.455-4.266m-4.652-.003c-.232-2.523 2.204-5.234 4.501-6.393.808 2.803-1.782 6.515-4.5 6.393m.747-5.229c-.732-2.108.922-5.974 2.954-6.977 1.195 3.473-.7 6.849-2.954 6.977M54.649 46.931c-.826-2.073.04-5.147 1.768-6.395 1.665 2.525.709 6.043-1.769 6.395m15.086-34.303c.257.716.5 1.267.663 1.842.339 1.221.387 2.452-.038 3.67-.272.775-.764 1.39-1.475 1.873-.487.322-.745.175-.85-.276-.143-.633-.281-1.28-.286-1.924-.019-1.878.811-3.481 1.986-5.185M59.399 44.023c-1.395-1.959-1.282-5.374.206-6.977 2.382 2.233 2.293 5.8-.206 6.977m7.291-29.07c-1.689-1.36-1.6-4.465-.31-6.977 1.977 1.356 3.03 5.595.31 6.977m-3.545 25c-1.708-1.144-2.363-4.468-1.287-6.395 2.45.894 3.258 4.825 1.287 6.395m3.817-9.303c-1.605-.122-3.453-3.6-3.284-5.813 2.263.078 4.124 3.345 3.284 5.814m-1.124 4.651c-1.906-.789-3.224-3.937-2.591-6.395 1.424.717 2.47 1.7 3.038 3.071.535 1.277.34 2.458-.447 3.324M62.22 3.906c2.42 1.179 3.511 5.555 1.736 6.977-1.977-1.086-2.425-5.159-1.736-6.977m-1.389 3.489c-1.84-.864-3.374-4.26-2.917-6.395 2.628 1.035 4.31 4.672 2.917 6.395m2.255 13.385c2.712-.21 5.18 2.225 4.575 4.639-.496-.175-1.024-.274-1.448-.521-1.615-.949-2.58-2.363-3.127-4.118m4.064-.614c-1.999.235-4.867-1.634-5.233-3.376 2.69-.525 5.498 1.264 5.232 3.376M57.252 9.888c2.034-1.537 5.265-.576 5.833 1.705-1.55 1.08-4.319.123-5.833-1.705m2.333 3.115c1.588-.795 4.153-.279 5.163 1.09.354.479.456 1.19.67 1.8-.465.079-.935.263-1.392.215-1.899-.194-3.258-1.42-4.44-3.105M52.585 2.288c.424-.052.737-.145 1.045-.122 1.566.13 2.999.588 3.886 2.223q.098.157.17.331c.296.705.159 1.027-.512.906a7.4 7.4 0 0 1-2.295-.813c-.937-.527-1.645-1.405-2.294-2.525m1.165 5.034c1.626-1.123 3.27-1.368 5.034-.779.649.217 1.197.59 1.383 1.282-.53.24-1.044.635-1.597.69-1.702.176-3.309-.168-4.82-1.193"/></g><defs><filter id="a" width="18.1026" height="8.77425" x="28.5675" y="36.637" color-interpolation-filters="sRGB" filterUnits="userSpaceOnUse"><feFlood flood-opacity="0" result="BackgroundImageFix"/><feColorMatrix in="SourceAlpha" result="hardAlpha" values="0 0 0 0 0 0 0 0 0 0 0 0 0 0 0 0 0 0 127 0"/><feOffset dy="0.893024"/><feGaussianBlur stdDeviation="0.893024"/><feComposite in2="hardAlpha" operator="out"/><feColorMatrix values="0 0 0 0 1 0 0 0 0 1 0 0 0 0 1 0 0 0 0.5 0"/><feBlend in2="BackgroundImageFix" result="effect1_dropShadow_3813_8351"/><feBlend in="SourceGraphic" in2="effect1_dropShadow_3813_8351" result="shape"/><feColorMatrix in="SourceAlpha" result="hardAlpha" values="0 0 0 0 0 0 0 0 0 0 0 0 0 0 0 0 0 0 127 0"/><feOffset dy="1.02579"/><feGaussianBlur stdDeviation="0.512896"/><feComposite in2="hardAlpha" k2="-1" k3="1" operator="arithmetic"/><feColorMatrix values="0 0 0 0 0 0 0 0 0 0 0 0 0 0 0 0 0 0 0.3 0"/><feBlend in2="shape" result="effect2_innerShadow_3813_8351"/></filter><filter id="b" width="34.8167" height="23.8033" x="20.2418" y="9.21257" color-interpolation-filters="sRGB" filterUnits="userSpaceOnUse"><feFlood flood-opacity="0" result="BackgroundImageFix"/><feColorMatrix in="SourceAlpha" result="hardAlpha" values="0 0 0 0 0 0 0 0 0 0 0 0 0 0 0 0 0 0 127 0"/><feOffset dy="0.893024"/><feGaussianBlur stdDeviation="0.893024"/><feComposite in2="hardAlpha" operator="out"/><feColorMatrix values="0 0 0 0 1 0 0 0 0 1 0 0 0 0 1 0 0 0 0.5 0"/><feBlend in2="BackgroundImageFix" result="effect1_dropShadow_3813_8351"/><feBlend in="SourceGraphic" in2="effect1_dropShadow_3813_8351" result="shape"/><feColorMatrix in="SourceAlpha" result="hardAlpha" values="0 0 0 0 0 0 0 0 0 0 0 0 0 0 0 0 0 0 127 0"/><feOffset dy="1.02579"/><feGaussianBlur stdDeviation="0.512896"/><feComposite in2="hardAlpha" k2="-1" k3="1" operator="arithmetic"/><feColorMatrix values="0 0 0 0 0 0 0 0 0 0 0 0 0 0 0 0 0 0 0.3 0"/><feBlend in2="shape" result="effect2_innerShadow_3813_8351"/></filter><filter id="c" width="74.5721" height="53.5721" x="0.213951" y="0.106976" color-interpolation-filters="sRGB" filterUnits="userSpaceOnUse"><feFlood flood-opacity="0" result="BackgroundImageFix"/><feColorMatrix in="SourceAlpha" result="hardAlpha" values="0 0 0 0 0 0 0 0 0 0 0 0 0 0 0 0 0 0 127 0"/><feOffset dy="0.893024"/><feGaussianBlur stdDeviation="0.893024"/><feComposite in2="hardAlpha" operator="out"/><feColorMatrix values="0 0 0 0 1 0 0 0 0 1 0 0 0 0 1 0 0 0 0.5 0"/><feBlend in2="BackgroundImageFix" result="effect1_dropShadow_3813_8351"/><feBlend in="SourceGraphic" in2="effect1_dropShadow_3813_8351" result="shape"/><feColorMatrix in="SourceAlpha" result="hardAlpha" values="0 0 0 0 0 0 0 0 0 0 0 0 0 0 0 0 0 0 127 0"/><feOffset dy="1.02579"/><feGaussianBlur stdDeviation="0.512896"/><feComposite in2="hardAlpha" k2="-1" k3="1" operator="arithmetic"/><feColorMatrix values="0 0 0 0 0 0 0 0 0 0 0 0 0 0 0 0 0 0 0.3 0"/><feBlend in2="shape" result="effect2_innerShadow_3813_8351"/></filter></defs></svg>