<svg width="204" height="107" viewBox="0 0 204 107" fill="none" xmlns="http://www.w3.org/2000/svg">
<path d="M123.975 27.0461L193.918 6.06366V50.881L123.975 70.8478V86.7101L121.181 87.5373L102.113 93.1896L97.1011 94.675V83.9816L96.1987 84.2599L81.6245 88.7404L79.3999 89.424V95.0969L76.5991 95.9201L70.4048 97.7424L67.8823 98.4836L66.2476 96.426L56.9995 84.7814V101.794L54.2065 102.622L47.0933 104.732L42.0815 106.219V59.1799L44.8608 58.3449L52.7554 55.9719L55.3745 55.1848L57.0083 57.3771L63.5796 66.1965V52.7199L66.354 51.882L74.3696 49.4621L79.3999 47.9435V55.5939C81.3853 53.4824 83.8911 52.2262 86.1782 51.7863L86.5933 51.717C87.023 51.6562 87.4839 51.6231 87.9663 51.6223L87.0522 50.2277L79.8862 39.2961L77.8862 36.2453L80.7954 34.0451L117.718 6.10956L123.975 1.37616V27.0461ZM90.3159 48.0881L101.003 41.1652V89.4484L120.073 83.7961L101.004 89.4474V41.1642L90.3159 48.0881ZM79.3999 74.9435L79.6577 74.8664C79.5707 74.7899 79.4849 74.7116 79.3999 74.632V74.9435ZM87.0464 64.5812C86.8345 64.5727 86.6412 64.6028 86.478 64.6516C86.6266 64.735 86.8084 64.8067 87.0171 64.8449L87.1421 64.8635C87.403 64.8925 87.6406 64.8599 87.8354 64.8019C87.6872 64.719 87.5061 64.6476 87.2983 64.6096L87.1724 64.591L87.0464 64.5812ZM84.3813 64.4182C84.3749 64.4757 84.3731 64.5338 84.3687 64.591L84.3813 64.4191C84.3957 64.2901 84.4146 64.1629 84.438 64.0383V64.0373C84.4145 64.162 84.3957 64.2891 84.3813 64.4182ZM88.7368 61.4885C88.7743 61.5192 88.8111 61.5511 88.8472 61.5842L88.7368 61.4875C88.6993 61.4567 88.6605 61.4279 88.6216 61.3996L88.7368 61.4885ZM86.354 61.2092C86.1629 61.3026 85.9792 61.4212 85.8062 61.5637C85.9791 61.4212 86.1629 61.3026 86.354 61.2092ZM86.5942 61.1057C86.5874 61.1081 86.5806 61.1109 86.5737 61.1135C86.6253 61.0942 86.6775 61.0771 86.73 61.0617L86.5942 61.1057ZM87.0054 60.9992C86.9589 61.0066 86.9126 61.0151 86.8667 61.0256L87.0063 60.9992C87.0527 60.9918 87.0992 60.986 87.146 60.9816L87.0054 60.9992ZM92.437 51.3635L91.2808 52.1115C92.242 52.3982 93.2108 52.8193 94.1313 53.4074C95.2699 54.1349 96.2801 55.0795 97.1011 56.2394V48.342L92.437 51.3635ZM86.6157 55.6818C86.5939 55.687 86.5722 55.693 86.5503 55.6984C86.673 55.6684 86.7944 55.6415 86.9146 55.6183L86.6157 55.6818Z" fill="#282828"/>
<path d="M191.421 49.6325L119.518 70.1586L117.332 27.0415L191.421 4.81499V49.6325Z" fill="white"/>
<path d="M124.075 41.8698L125.802 41.3746V49.9393L124.075 50.4345V41.8698ZM134.622 38.8456V47.4103L132.645 47.9772L129.419 43.2526V48.9022L127.692 49.3974V40.8326L129.658 40.2689L132.895 44.9904V39.3408L134.622 38.8456ZM141.706 42.1474L140.62 42.4588V45.6904L138.893 46.1856V37.6208L142.108 36.6989C144.128 36.1196 145.138 36.7226 145.138 38.5079C145.138 39.8186 144.577 40.8081 143.455 41.4765L145.486 44.2951L143.553 44.8495L141.706 42.1474ZM140.62 40.9334L142.108 40.5067C142.963 40.2617 143.39 39.7626 143.39 39.0093C143.39 38.6101 143.285 38.3502 143.075 38.2296C142.865 38.1015 142.543 38.0997 142.108 38.2243L140.62 38.651V40.9334ZM150.313 43.103C149.155 43.4353 148.286 43.3831 147.706 42.9466C147.127 42.5101 146.837 41.7381 146.837 40.6308V35.3428L148.564 34.8476V40.1356C148.564 40.7759 148.709 41.2202 148.999 41.4686C149.296 41.7074 149.734 41.7438 150.313 41.5777C150.885 41.4136 151.316 41.1281 151.606 40.7212C151.902 40.3046 152.051 39.7762 152.051 39.1359V33.8479L153.778 33.3527V38.6407C153.778 39.748 153.492 40.685 152.92 41.4516C152.348 42.2183 151.479 42.7688 150.313 43.103ZM158.313 40.8091C157.191 41.1309 156.199 41.2045 155.337 41.0297V39.3913C156.242 39.6289 157.234 39.5931 158.313 39.2837C158.776 39.1508 159.117 38.9628 159.334 38.7198C159.559 38.4746 159.671 38.2051 159.671 37.9114C159.671 37.6251 159.569 37.4395 159.367 37.3545C159.171 37.2674 158.842 37.2226 158.378 37.2199L157.64 37.217C157.212 37.2114 156.84 37.1714 156.521 37.0971C156.21 37.0131 155.945 36.8365 155.728 36.5674C155.511 36.2982 155.402 35.9 155.402 35.3727C155.402 34.5065 155.652 33.7795 156.152 33.1918C156.658 32.5945 157.368 32.165 158.28 31.9034C158.824 31.7477 159.301 31.6633 159.714 31.6505C160.134 31.628 160.558 31.6609 160.985 31.7493V33.3312C160.181 33.1097 159.28 33.1422 158.28 33.4288C157.86 33.5492 157.56 33.7182 157.379 33.9359C157.205 34.1514 157.118 34.4136 157.118 34.7224C157.126 35.0141 157.212 35.2039 157.379 35.2918C157.553 35.37 157.871 35.4104 158.335 35.4131L159.084 35.4129C159.54 35.4102 159.931 35.4525 160.257 35.5398C160.583 35.6272 160.851 35.814 161.061 36.1003C161.278 36.377 161.387 36.7903 161.387 37.3402C161.38 38.1483 161.104 38.8599 160.561 39.4751C160.018 40.0904 159.269 40.535 158.313 40.8091ZM165.526 38.7409C164.403 39.0627 163.411 39.1362 162.55 38.9615V37.3231C163.455 37.5607 164.447 37.5249 165.526 37.2155C165.989 37.0826 166.329 36.8946 166.547 36.6515C166.771 36.4064 166.883 36.1369 166.883 35.8432C166.883 35.5569 166.782 35.3713 166.579 35.2863C166.384 35.1992 166.054 35.1544 165.591 35.1517L164.852 35.1488C164.425 35.1432 164.052 35.1032 163.734 35.0289C163.422 34.9449 163.158 34.7683 162.941 34.4992C162.723 34.23 162.615 33.8318 162.615 33.3045C162.615 32.4382 162.865 31.7113 163.364 31.1236C163.871 30.5263 164.581 30.0968 165.493 29.8352C166.036 29.6795 166.514 29.5951 166.927 29.5823C167.347 29.5598 167.77 29.5927 168.198 29.6811V31.263C167.394 31.0415 166.492 31.074 165.493 31.3606C165.073 31.481 164.773 31.65 164.592 31.8676C164.418 32.0832 164.331 32.3454 164.331 32.6542C164.338 32.9459 164.425 33.1357 164.592 33.2235C164.765 33.3018 165.084 33.3422 165.547 33.3449L166.297 33.3447C166.753 33.342 167.144 33.3843 167.47 33.4716C167.796 33.559 168.064 33.7458 168.274 34.0321C168.491 34.3088 168.6 34.7221 168.6 35.272C168.592 36.0801 168.317 36.7917 167.774 37.4069C167.231 38.0222 166.482 38.4668 165.526 38.7409ZM170.077 28.6789L171.804 28.1837V36.7484L170.077 37.2436V28.6789ZM178.701 32.8386L175.454 33.7698L174.802 35.8888L173.064 36.3871L175.997 26.8798L178.148 26.2631L181.091 34.0855L179.353 34.5838L178.701 32.8386ZM178.18 31.4401L177.072 28.4584L175.964 32.0754L178.18 31.4401ZM185.727 25.7054L187.433 26.0073L186.759 27.4207L185.239 26.7155L185.434 28.5916L184.087 28.9778L184.283 26.9896L182.762 28.5669L182.089 27.5396L183.805 26.2566L182.089 25.9578L182.762 24.5444L184.283 25.2495L184.087 23.3734L185.434 22.9873L185.239 24.9755L186.759 23.3982L187.433 24.4254L185.727 25.7054Z" fill="black"/>
<path d="M74.9514 92.388L73.551 92.8001L67.3567 94.6214L66.0959 94.9925L65.2786 93.9632L52.551 77.9378V99.0882L51.1545 99.5022L44.0413 101.613L41.5354 102.356V59.3821L42.925 58.9641L50.8196 56.5911L52.1292 56.1975L52.9456 57.2942L63.0334 70.8333V52.9202L64.4202 52.5012L72.4368 50.0813L74.9514 49.3216V92.388ZM119.527 84.0042L118.129 84.4182L99.0608 90.0696L96.5549 90.8128V43.5052L88.8792 48.4768L87.2502 49.5315L86.1868 47.9085L79.0208 36.9778L78.0208 35.4524L79.4749 34.3518L116.398 6.41726L119.527 4.05008V84.0042ZM84.3792 52.3987C86.08 52.1602 88.4839 52.4618 90.5833 53.803C92.9464 55.3129 94.7407 58.0234 94.8694 62.2044L94.8772 62.6233C94.9024 66.6985 93.4283 69.5176 91.4709 71.3772L91.9963 71.221L94.5061 70.471V80.722L93.1282 81.1458L78.554 85.6272L76.0295 86.4026V75.9925L77.4211 75.5764L82.1868 74.1516C81.1361 73.8649 80.0471 73.3733 79.053 72.6389C76.8551 71.0153 75.179 68.2694 75.179 64.2073L75.1926 63.5354C75.4849 56.7046 80.218 53.1901 84.0491 52.4534L84.3792 52.3987ZM84.8245 61.677C84.7611 61.6853 84.6187 61.7292 84.4202 61.9427C84.1882 62.1921 83.9609 62.6049 83.8586 63.1458L83.8235 63.385C83.7502 64.0442 83.8931 64.5877 84.0891 64.9241C84.2852 65.2605 84.4499 65.2804 84.4602 65.2815L84.4954 65.2805C84.5583 65.2726 84.7011 65.2285 84.9006 65.0139C85.1657 64.7288 85.4241 64.2306 85.4973 63.5716L85.5149 63.3304C85.534 62.7802 85.4032 62.3279 85.2317 62.0335C85.0355 61.6969 84.871 61.6772 84.8606 61.6761L84.8245 61.677Z" fill="white" stroke="white" stroke-width="3.90234"/>
<path d="M73.0005 90.9277L66.8062 92.7496L50.6008 72.2932V97.6508L43.4866 99.7419L43.4866 60.8329L51.3813 58.4598L64.9844 76.7173V54.3693L73.0005 51.949V90.9277Z" fill="#CE0F2D"/>
<path d="M117.575 82.5472L98.5064 88.1992V39.916L87.8182 46.839L80.6523 35.9079L117.575 7.97293V82.5472Z" fill="#CE0F2D"/>
<path d="M92.555 79.2806L77.9803 83.7618V77.4461L92.555 73.0907V79.2806Z" fill="#CE0F2D"/>
<path fill-rule="evenodd" clip-rule="evenodd" d="M84.4174 54.3693C86.9437 53.8835 92.6989 55.0981 92.9194 62.264C93.1623 70.1587 87.1875 72.1249 85.0247 72.4664C82.7171 72.8307 77.1301 71.1303 77.1301 64.2073C77.1301 57.9888 81.2596 54.9766 84.4174 54.3693ZM85.0763 59.7364C83.5429 59.566 82.1137 61.1032 81.8839 63.1699C81.6542 65.2366 82.711 67.0502 84.2444 67.2206C85.7777 67.3911 87.207 65.8538 87.4368 63.7871C87.6665 61.7204 86.6097 59.9068 85.0763 59.7364Z" fill="#CE0F2D"/>
</svg>
