<svg width="187" height="99" viewBox="0 0 187 99" fill="none" xmlns="http://www.w3.org/2000/svg">
<path d="M113.643 25.2453L177.758 6.01095V47.094L113.643 65.3967V79.9358L111.083 80.6945L93.603 85.8762L89.0093 87.2375V77.4348L88.1821 77.6897L74.8228 81.7981L72.7837 82.424V87.6242L70.2153 88.3791L64.5376 90.049L62.2261 90.7287L60.7271 88.842L52.2495 78.1682V93.7629L49.689 94.5227L43.1694 96.4563L38.5747 97.8195V54.7004L41.1226 53.9348L48.3589 51.759L50.7593 51.0383L52.2573 53.0481L58.2808 61.132V48.7785L60.8237 48.0109L68.1724 45.7922L72.7837 44.4006V51.4123C74.6036 49.4772 76.9003 48.3262 78.9966 47.9231L79.3765 47.8596C79.7705 47.8038 80.1929 47.7734 80.6353 47.7727L79.7974 46.4943L73.229 36.4738L71.396 33.677L74.062 31.6594L107.908 6.05294L113.643 1.7131V25.2453ZM72.7837 69.1496L73.019 69.0793C72.9395 69.0094 72.8614 68.9372 72.7837 68.8645V69.1496ZM79.9077 59.6594C79.6685 59.6329 79.4506 59.6628 79.272 59.716C79.408 59.7924 79.5742 59.8588 79.7651 59.8938L79.8804 59.9104C80.1198 59.937 80.3374 59.907 80.5161 59.8537C80.3804 59.7778 80.2142 59.7128 80.0239 59.6779L79.9087 59.6604L79.9077 59.6594ZM79.3774 56.466C79.2953 56.4958 79.2147 56.5316 79.1353 56.5715L79.2554 56.5158C79.3362 56.4809 79.4182 56.4505 79.5015 56.426L79.3774 56.466ZM80.0132 56.344C79.9265 56.3462 79.8405 56.3548 79.7554 56.3684L79.8843 56.3527C79.9702 56.3448 80.0569 56.3422 80.144 56.3459L80.0132 56.344ZM84.7339 47.5354L83.6733 48.2209C84.5547 48.4837 85.4435 48.8701 86.2876 49.4094C87.3309 50.076 88.257 50.9414 89.0093 52.0041V44.7658L84.7339 47.5354Z" fill="#282828"/>
<path d="M175.469 45.949L109.558 64.7647L107.554 25.2407L175.469 4.86634V45.949Z" fill="white"/>
<path d="M113.575 38.7125L115.158 38.2585V46.1096L113.575 46.5635V38.7125ZM123.243 35.9403V43.7914L121.431 44.3109L118.474 39.9801V45.1589L116.891 45.6128V37.7618L118.693 37.245L121.66 41.573V36.3942L123.243 35.9403ZM129.737 38.967L128.741 39.2524V42.2147L127.158 42.6686V34.8176L130.105 33.9725C131.957 33.4415 132.883 33.9943 132.883 35.6308C132.883 36.8322 132.369 37.7393 131.34 38.3519L133.202 40.9357L131.43 41.4439L129.737 38.967ZM128.741 37.8542L130.105 37.463C130.889 37.2385 131.28 36.7809 131.28 36.0904C131.28 35.7244 131.184 35.4862 130.991 35.3757C130.799 35.2582 130.504 35.2566 130.105 35.3708L128.741 35.7619V37.8542ZM137.627 39.843C136.565 40.1475 135.768 40.0997 135.237 39.6996C134.706 39.2994 134.441 38.5918 134.441 37.5768V32.7294L136.024 32.2755V37.1229C136.024 37.7098 136.156 38.1171 136.422 38.3448C136.694 38.5637 137.096 38.597 137.627 38.4447C138.151 38.2944 138.546 38.0326 138.811 37.6596C139.084 37.2777 139.22 36.7934 139.22 36.2064V31.3591L140.803 30.9051V35.7525C140.803 36.7675 140.54 37.6264 140.016 38.3292C139.492 39.032 138.695 39.5366 137.627 39.843ZM144.96 37.7402C143.931 38.0352 143.022 38.1026 142.232 37.9424V36.4406C143.062 36.6584 143.971 36.6255 144.96 36.3419C145.385 36.2201 145.697 36.0478 145.896 35.825C146.102 35.6003 146.204 35.3532 146.204 35.0839C146.204 34.8216 146.111 34.6514 145.926 34.5735C145.746 34.4937 145.444 34.4526 145.02 34.4501L144.343 34.4474C143.951 34.4423 143.609 34.4057 143.317 34.3375C143.032 34.2605 142.789 34.0987 142.59 33.852C142.391 33.6053 142.292 33.2402 142.292 32.7569C142.292 31.9628 142.521 31.2964 142.979 30.7577C143.443 30.2101 144.094 29.8164 144.93 29.5766C145.428 29.4339 145.866 29.3566 146.244 29.3448C146.629 29.3242 147.018 29.3544 147.409 29.4354V30.8855C146.672 30.6824 145.846 30.7122 144.93 30.9749C144.545 31.0853 144.27 31.2402 144.104 31.4397C143.944 31.6373 143.865 31.8777 143.865 32.1608C143.871 32.4282 143.951 32.6021 144.104 32.6826C144.263 32.7543 144.555 32.7914 144.98 32.7939L145.667 32.7937C146.085 32.7912 146.443 32.83 146.742 32.9101C147.041 32.9901 147.286 33.1614 147.479 33.4238C147.678 33.6774 147.778 34.0563 147.778 34.5604C147.771 35.3011 147.519 35.9535 147.021 36.5174C146.523 37.0814 145.836 37.489 144.96 37.7402ZM151.571 35.8443C150.543 36.1393 149.633 36.2068 148.843 36.0466V34.5447C149.673 34.7625 150.583 34.7297 151.571 34.4461C151.996 34.3243 152.308 34.1519 152.507 33.9291C152.713 33.7044 152.816 33.4574 152.816 33.1881C152.816 32.9257 152.723 32.7556 152.537 32.6776C152.358 32.5978 152.056 32.5567 151.631 32.5542L150.954 32.5516C150.563 32.5465 150.221 32.5098 149.929 32.4417C149.643 32.3647 149.401 32.2028 149.202 31.9561C149.003 31.7094 148.903 31.3444 148.903 30.861C148.903 30.0669 149.132 29.4005 149.59 28.8618C150.055 28.3143 150.705 27.9206 151.542 27.6808C152.039 27.538 152.478 27.4607 152.856 27.4489C153.241 27.4283 153.629 27.4585 154.021 27.5396V28.9896C153.284 28.7866 152.458 28.8164 151.542 29.079C151.157 29.1894 150.881 29.3444 150.715 29.5439C150.556 29.7415 150.476 29.9818 150.476 30.2649C150.483 30.5323 150.563 30.7063 150.715 30.7868C150.875 30.8585 151.167 30.8956 151.591 30.8981L152.278 30.8979C152.697 30.8953 153.055 30.9341 153.354 31.0142C153.652 31.0943 153.898 31.2655 154.09 31.528C154.29 31.7816 154.389 32.1604 154.389 32.6645C154.383 33.4053 154.13 34.0576 153.632 34.6216C153.135 35.1855 152.448 35.5931 151.571 35.8443ZM155.744 26.6208L157.327 26.1669V34.0179L155.744 34.4719V26.6208ZM163.649 30.4339L160.672 31.2875L160.075 33.2299L158.482 33.6867L161.17 24.9716L163.141 24.4064L165.84 31.5769L164.247 32.0337L163.649 30.4339ZM163.171 29.1519L162.156 26.4187L161.14 29.7343L163.171 29.1519ZM170.09 23.8951L171.653 24.1719L171.036 25.4675L169.642 24.8211L169.821 26.5409L168.586 26.8949L168.766 25.0723L167.372 26.5182L166.754 25.5765L168.327 24.4004L166.754 24.1265L167.372 22.8309L168.766 23.4773L168.586 21.7575L169.821 21.4035L169.642 23.226L171.036 21.7802L171.653 22.7219L170.09 23.8951Z" fill="black"/>
<path d="M68.7051 85.141L67.4219 85.5189L61.7432 87.1888L60.5879 87.5287L59.8379 86.5853L48.1709 71.8949V91.2836L46.8916 91.6635L40.3711 93.597L38.0742 94.2787V54.8861L39.3477 54.5033L46.584 52.3275L47.7842 51.9672L48.5332 52.972L57.7803 65.3822V48.9633L59.0518 48.5785L66.3994 46.3607L68.7051 45.6644V85.141ZM109.565 77.4564L108.285 77.8353L90.8057 83.017L88.5088 83.6976V40.3314L81.4717 44.89L79.9795 45.8568L79.0039 44.3685L72.4355 34.349L71.5186 32.9506L72.8516 31.9418L106.697 6.33435L109.565 4.16541V77.4564ZM77.3477 48.4847C78.9067 48.2663 81.11 48.5426 83.0342 49.7719C85.2004 51.1559 86.8459 53.6404 86.9639 57.473L86.9707 57.8578C86.9937 61.5938 85.6413 64.1776 83.8467 65.8822L84.3301 65.7387L86.6299 65.0512V74.4476L85.3672 74.8363L72.0068 78.9437L69.6934 79.6556V70.1127L70.9697 69.7308L75.3379 68.4252C74.3746 68.1623 73.3763 67.7117 72.4648 67.0385C70.4501 65.5501 68.9141 63.0326 68.9141 59.309L68.9268 58.6937C69.1945 52.4319 73.5331 49.2099 77.0449 48.5345L77.3477 48.4847ZM77.7559 56.9896C77.698 56.997 77.5673 57.0375 77.3848 57.2338C77.1722 57.4625 76.9638 57.8406 76.8701 58.3363L76.8379 58.556C76.7707 59.1602 76.9014 59.6578 77.0811 59.9662C77.2593 60.2721 77.4091 60.293 77.4209 60.2943L77.4541 60.2924C77.512 60.2849 77.6429 60.2453 77.8252 60.0492C78.0681 59.7879 78.3048 59.331 78.3721 58.7269L78.3887 58.5053C78.4062 58.0009 78.2861 57.5856 78.1289 57.3158C77.9515 57.0115 77.802 56.9902 77.7891 56.9887L77.7559 56.9896Z" fill="white" stroke="white" stroke-width="3.57714"/>
<path d="M66.9168 83.803L61.2387 85.4731L46.3837 66.7213V89.9658L39.8623 91.8826L39.8623 56.2161L47.0991 54.0408L59.5686 70.7768V50.2911L66.9168 48.0725V83.803Z" fill="#CE0F2D"/>
<path d="M107.777 76.1209L90.2971 81.3018V37.0423L80.4997 43.3884L73.9309 33.3682L107.777 7.76111V76.1209Z" fill="#CE0F2D"/>
<path d="M84.8417 73.1265L71.4815 77.2342V71.4448L84.8417 67.4524V73.1265Z" fill="#CE0F2D"/>
<path fill-rule="evenodd" clip-rule="evenodd" d="M77.3823 50.2911C79.698 49.8458 84.9736 50.9592 85.1757 57.5279C85.3984 64.7647 79.9215 66.5671 77.939 66.8801C75.8236 67.2141 70.7022 65.6554 70.7022 59.3093C70.7022 53.6089 74.4876 50.8478 77.3823 50.2911ZM77.9862 55.211C76.5806 55.0547 75.2705 56.4639 75.0599 58.3583C74.8493 60.2528 75.8181 61.9153 77.2236 62.0715C78.6292 62.2277 79.9394 60.8186 80.15 58.9241C80.3606 57.0297 79.3918 55.3672 77.9862 55.211Z" fill="#CE0F2D"/>
</svg>
