<svg width="140" height="73" viewBox="0 0 140 73" fill="none" xmlns="http://www.w3.org/2000/svg">
<path fill-rule="evenodd" clip-rule="evenodd" d="M20.6212 15.5114C12.6351 19.0768 0.886947 26.2401 0.886947 36.344C0.886947 46.448 12.6351 53.6005 20.632 57.1767C35.4972 63.8229 53.8557 66.3004 70.0107 66.3004C86.1658 66.3004 104.514 63.8229 119.389 57.1767C127.376 53.6112 139.124 46.448 139.124 36.344C139.124 26.2401 127.376 19.0876 119.389 15.5114C104.524 8.86519 86.1658 6.38767 70.0107 6.38767C53.8557 6.38767 35.4972 8.86519 20.632 15.5114H20.6212ZM0.5 36.344C0.5 56.4119 31.617 72.6881 70 72.6881C108.383 72.6881 139.5 56.4119 139.5 36.344C139.5 16.2762 108.383 0 70 0C31.617 0 0.5 16.2654 0.5 36.344Z" fill="#CE0F2D"/>
<path fill-rule="evenodd" clip-rule="evenodd" d="M128.139 45.6508C126.322 45.7585 124.312 45.7262 122.356 45.7262C118.486 45.7262 115.498 45.123 113.316 43.2272C111.242 41.4067 110.199 38.9831 110.199 35.9347C110.199 33.0909 111.124 30.775 112.972 28.9761C115.165 26.8433 118.411 26.1431 122.635 26.1431C124.484 26.1431 126.225 26.0785 128.085 26.1646L127.999 30.8827C126.72 30.8504 123.624 30.8288 122.248 30.8288C120.615 30.8288 119.282 31.292 118.272 32.2184C117.25 33.1448 116.734 34.3297 116.734 35.7623C116.734 37.0549 117.068 38.1321 117.723 38.9938C118.669 40.2326 120.228 40.8466 122.388 40.8466C123.807 40.8466 126.774 40.9328 128.128 40.8897V45.6508H128.139ZM43.7519 26.0892H43.1393V45.737H49.3197V33.4248L58.6494 45.7262H65.4317V26.0892H58.6924V38.4337L49.3197 26.0892H43.7519ZM108.996 45.7478H90.9702V26.1H108.791V30.7319H98.7844V33.5649H108.351V38.0567H98.7844L98.7629 40.8358H108.974L108.996 45.7478ZM88.9388 30.7319H82.049V45.7478H74.2348V30.7319H67.345V26.1H88.928V30.7319H88.9388ZM40.7961 45.737H38.1842H32.7025C32.7025 39.9418 32.8099 26.1 32.8099 26.1H40.7961V45.7478V45.737ZM30.585 39.4786C30.585 41.1482 30.0368 42.5162 28.9512 43.6042C27.2959 45.2523 24.5443 45.7154 20.6319 45.7154H11.9148L12.0008 41.3636C14.4514 41.4714 16.8484 41.3636 19.213 41.3636C20.4814 41.3636 21.3735 41.2452 21.9109 40.9974C22.4484 40.7496 22.7171 40.4157 22.7171 39.9848C22.7171 39.4786 22.3624 39.1016 21.6422 38.8646C21.4057 38.7892 20.6641 38.6168 19.3958 38.3583C17.1386 37.9059 15.5371 37.3996 14.5804 36.8395C12.8284 35.8054 11.9578 34.2327 11.9578 32.1214C11.9578 30.398 12.6242 28.9976 13.9678 27.9097C15.752 26.4662 18.5789 26.1646 22.4591 26.1646L30.628 26.1215L30.5527 30.5272C28.6718 30.538 25.2 30.4734 23.1793 30.4734C22.1152 30.4734 21.3628 30.5272 20.9328 30.6457C20.1912 30.8396 19.8257 31.2166 19.8257 31.7983C19.8257 32.283 20.2019 32.6385 20.9651 32.8647C21.3305 32.9724 21.8034 33.0694 22.3624 33.1771C24.2541 33.5218 25.4902 33.8018 26.0921 33.9957C27.4787 34.4266 28.5213 35.0298 29.2414 35.7946C30.1336 36.7318 30.585 37.9705 30.585 39.5001V39.4786Z" fill="#CE0F2D"/>
</svg>
