<svg width="1071" height="552" viewBox="0 0 1071 552" fill="none" xmlns="http://www.w3.org/2000/svg">
  <g style="mix-blend-mode:multiply" opacity="0.3" filter="url(#filter0_f_4193_162)">
    <path d="M881.015 63.4618C910.694 60.1133 917.335 59.5567 923.975 59C926.097 59.8603 931.259 69.1364 930.99 73.7012C929.426 100.194 917.712 135.883 911.463 152.091C908.097 160.82 904.227 169.09 898.036 180.22C892.256 190.611 888.079 201.847 877 216.201C870.268 224.922 863.343 235.445 814.102 276.709C800.776 287.877 793.375 295.399 768.124 312.843C748.295 326.54 714.49 348.807 683.595 365.963C652.699 383.118 625.794 395.399 608.532 401.514C584.889 409.889 572.642 412.791 520.966 411.821C474.714 410.952 390.203 408.725 339.552 406.178C288.9 403.631 272.358 401.556 256.678 396.588C225.663 386.762 197.932 376.989 177.28 364.293C163.56 355.858 152.722 349.828 146.21 339.816C141.646 332.798 138.152 304.73 141.07 268.596C142.286 253.532 142.988 236.115 148.716 210.094C153.28 189.363 159.209 171.5 169.158 159.589C175.231 152.319 183.358 145.318 227.127 131.89C264.352 120.47 330.753 101.543 423.038 91.5063C515.323 81.4693 630.016 80.356 714.417 76.6448C798.818 72.9337 851.336 66.8103 881.015 63.4618Z" fill="#242C29" />
  </g>
  <defs>
    <filter id="filter0_f_4193_162" x="0" y="-81" width="1071" height="633" filterUnits="userSpaceOnUse" color-interpolation-filters="sRGB">
      <feFlood flood-opacity="0" result="BackgroundImageFix" />
      <feBlend mode="normal" in="SourceGraphic" in2="BackgroundImageFix" result="shape" />
      <feGaussianBlur stdDeviation="70" result="effect1_foregroundBlur_4193_162" />
    </filter>
  </defs>
</svg>