<svg width="32" height="14" viewBox="0 0 32 14" fill="none" xmlns="http://www.w3.org/2000/svg">
  <path d="M5.355 13.32L5.76 7.605L0.99 10.845L0 9.18L5.31 6.66L0 4.14L0.99 2.475L5.76 5.715L5.355 0H7.245L6.84 5.715L11.61 2.475L12.6 4.14L7.29 6.66L12.6 9.18L11.61 10.845L6.84 7.605L7.245 13.32H5.355Z" fill="white" />
  <path d="M23.7909 13.32L24.1959 7.605L19.4259 10.845L18.4359 9.18L23.7459 6.66L18.4359 4.14L19.4259 2.475L24.1959 5.715L23.7909 0H25.6809L25.2759 5.715L30.0459 2.475L31.0359 4.14L25.7259 6.66L31.0359 9.18L30.0459 10.845L25.2759 7.605L25.6809 13.32H23.7909Z" fill="white" />
</svg>