<svg width="63" height="62" viewBox="0 0 63 62" fill="none" xmlns="http://www.w3.org/2000/svg">
<path fill-rule="evenodd" clip-rule="evenodd" d="M43.4606 33.4599C43.3437 34.2824 43.163 35.0946 42.92 35.8891C41.2131 36.0477 39.4991 36.1197 37.7848 36.1051C37.3074 37.1604 36.7088 38.1568 36.001 39.0742C36.92 40.6937 37.6767 42.2052 38.3254 43.6628C37.1457 44.8205 35.819 45.8187 34.3794 46.6319C33.1361 45.6062 31.8929 44.4186 30.5956 43.123C29.5169 43.5431 28.3918 43.8331 27.2442 43.9867C26.7036 45.7502 26.1631 47.3697 25.6226 48.8452C24.7911 48.8451 23.9605 48.791 23.136 48.6833C22.3124 48.5666 21.4992 48.3861 20.7036 48.1435C20.5371 46.4394 20.4829 44.7262 20.5414 43.015C19.4782 42.5506 18.4791 41.9519 17.5684 41.2335C15.9468 42.1513 14.3792 42.907 12.9197 43.5548C11.7767 42.3628 10.7788 41.04 9.94671 39.614C10.9737 38.3724 12.1629 37.1308 13.4603 35.8351C13.057 34.7558 12.7848 33.6322 12.6494 32.4882L7.73047 30.8686C7.7306 30.0383 7.78476 29.2088 7.89263 28.3854C8.0548 27.5216 8.21696 26.7119 8.43318 25.9561C10.1396 25.7908 11.8549 25.7367 13.5684 25.7942C14.0334 24.7323 14.6329 23.7345 15.3522 22.825C14.4873 21.2055 13.6765 19.64 13.0278 18.1824C14.2301 17.0279 15.5742 16.0302 17.0279 15.2133C18.2171 16.239 19.5144 17.4267 20.8117 18.7223C21.8887 18.3077 23.0154 18.0354 24.1631 17.9125C24.6142 16.2469 25.1555 14.607 25.7847 13L28.2712 13.162L30.6496 13.7018C30.8118 15.3213 30.8659 16.9948 30.8659 18.8302C31.9226 19.3071 32.9203 19.9049 33.8389 20.6117L33.9669 20.5435C35.5403 19.7054 37.0125 18.9211 38.4335 18.2904C39.6063 19.477 40.607 20.8216 41.4065 22.2852C40.3795 23.4729 39.1903 24.7685 37.893 26.0641C38.3266 27.1372 38.6174 28.2624 38.7578 29.4111C40.4105 29.8531 42.0351 30.3939 43.6227 31.0306C43.6226 31.843 43.5684 32.6546 43.4606 33.4599ZM32.4335 30.9226C32.4335 34.6494 29.4083 37.6706 25.6766 37.6706C21.9449 37.6706 18.9198 34.6494 18.9198 30.9226C18.9198 27.1958 21.9449 24.1747 25.6766 24.1747C29.4083 24.1747 32.4335 27.1958 32.4335 30.9226Z" stroke="#5A5A5A" stroke-width="2"/>
<circle cx="44.5" cy="39.5" r="12.1908" fill="#CE0F2D" stroke="#EFF1F3" stroke-width="0.618448"/>
<path d="M42.8512 41.5584L42.4102 38.4525L42.5061 38.3567C44.9218 38.2608 45.8612 37.6281 45.8612 36.5736C45.8612 35.7109 45.2094 35.2124 44.0974 35.2124C43.0237 35.2124 42.1035 35.6533 41.2215 36.5353L39.4577 34.5989C40.5697 33.3718 42.0651 32.5283 44.1549 32.5283C46.9157 32.5283 48.7946 33.947 48.7946 36.5353C48.7946 38.9702 47.1074 39.9671 45.0177 40.3889L44.8068 41.5584H42.8512ZM42.2185 46.1215V43.0539H45.3244V46.1215H42.2185Z" fill="white"/>
</svg>
