<svg width="63" height="62" viewBox="0 0 63 62" fill="none" xmlns="http://www.w3.org/2000/svg">
<path d="M28.0039 8.68652C28.4678 9.32369 28.9471 9.99605 29.4336 10.6992L29.4385 10.7051C29.773 11.1806 30.1063 11.6652 30.4395 12.1631L30.4414 12.165C31.3785 13.5567 32.3351 15.0408 33.2715 16.5771C34.3918 18.4136 35.4799 20.3327 36.4707 22.2656L36.8896 23.0947C37.4561 24.2342 37.985 25.3765 38.4629 26.5068L38.9238 27.6328C39.1252 28.1562 39.3181 28.667 39.4961 29.1699V29.1709C40.0985 30.8964 40.5432 32.5485 40.7852 34.0977L40.7861 34.0996C41.0569 35.8057 41.0765 37.3545 40.8125 38.6982C39.799 43.8072 36.7413 46.352 33.8633 47.6514H33.8613C30.9412 48.9742 28.2115 49 28.0332 49H27.9238C27.3802 49 22.4929 48.8866 18.8721 45.5732L18.8691 45.5703C17.8371 44.6328 16.9006 43.423 16.1934 41.8691L16.1924 41.8672C16.0509 41.5573 15.9189 41.2359 15.7949 40.8965L15.6738 40.5498C15.484 39.9734 15.3204 39.3579 15.1895 38.6982V38.6973L15.1436 38.4463C15.1015 38.1945 15.0684 37.9312 15.04 37.6523C15.0133 37.2852 15.0002 36.9075 15 36.5146C15.0186 34.745 15.3877 32.7533 16.0361 30.624V30.623C16.0944 30.4313 16.1515 30.2479 16.2129 30.0615L16.2148 30.0537C16.7274 28.4557 17.3888 26.8005 18.1523 25.125L18.1543 25.1201C18.4231 24.5223 18.7063 23.9209 19.0029 23.3262L19.0049 23.3213C20.5856 20.1058 22.479 16.8999 24.3604 13.9883C24.8035 13.403 25.2058 12.7914 25.5732 12.1592C26.409 10.9194 27.2293 9.75269 28.0039 8.68652Z" stroke="#5A5A5A" stroke-width="2"/>
<circle cx="41.5" cy="45.5" r="12.5" fill="#CE0F2D"/>
<path fill-rule="evenodd" clip-rule="evenodd" d="M49.5783 46.654C49.5252 47.0282 49.4431 47.3976 49.3328 47.759C48.5574 47.8311 47.7788 47.8639 47.0001 47.8572C46.7832 48.3372 46.5113 48.7904 46.1898 49.2077C46.6072 49.9444 46.951 50.6319 47.2456 51.2949C46.7097 51.8215 46.1071 52.2755 45.4531 52.6454C44.8884 52.1788 44.3236 51.6386 43.7343 51.0493C43.2443 51.2404 42.7332 51.3723 42.2119 51.4422C41.9664 52.2443 41.7208 52.981 41.4753 53.6521C41.0976 53.6521 40.7203 53.6275 40.3458 53.5785C39.9716 53.5254 39.6022 53.4433 39.2408 53.3329C39.1652 52.5578 39.1406 51.7786 39.1671 51.0002C38.6842 50.789 38.2303 50.5167 37.8166 50.1899C37.08 50.6073 36.3679 50.9511 35.7049 51.2458C35.1857 50.7036 34.7324 50.1019 34.3544 49.4533C34.8209 48.8885 35.3611 48.3237 35.9505 47.7344C35.7673 47.2435 35.6436 46.7324 35.5821 46.212L33.3477 45.4754C33.3477 45.0977 33.3723 44.7204 33.4213 44.3459C33.495 43.953 33.5686 43.5847 33.6669 43.2409C34.442 43.1657 35.2212 43.1411 35.9996 43.1673C36.2108 42.6843 36.4831 42.2304 36.8099 41.8167C36.417 41.0801 36.0487 40.368 35.754 39.705C36.3002 39.1799 36.9107 38.7261 37.5711 38.3545C38.1113 38.8211 38.7006 39.3613 39.2899 39.9506C39.7791 39.762 40.291 39.6382 40.8123 39.5823C41.0172 38.8246 41.2631 38.0787 41.5489 37.3478L42.6785 37.4214L43.7589 37.667C43.8325 38.4036 43.8571 39.1648 43.8571 39.9997C44.3371 40.2166 44.7903 40.4885 45.2076 40.81L45.2658 40.779C45.9805 40.3978 46.6492 40.041 47.2948 39.7541C47.8275 40.2939 48.2821 40.9055 48.6453 41.5712C48.1787 42.1114 47.6385 42.7007 47.0492 43.29C47.2462 43.7781 47.3783 44.29 47.4421 44.8124C48.1928 45.0135 48.9308 45.2595 49.652 45.5491C49.6519 45.9186 49.6273 46.2877 49.5783 46.654ZM44.5692 45.5C44.5692 47.1951 43.195 48.5693 41.4998 48.5693C39.8047 48.5693 38.4305 47.1951 38.4305 45.5C38.4305 43.8048 39.8047 42.4306 41.4998 42.4306C43.195 42.4306 44.5692 43.8048 44.5692 45.5Z" fill="#EFF1F3"/>
</svg>
