<svg width="63" height="62" viewBox="0 0 63 62" fill="none" xmlns="http://www.w3.org/2000/svg">
<path fill-rule="evenodd" clip-rule="evenodd" d="M21.3862 31.0598C21.2671 30.8207 20.9098 30.5817 20.9098 30.5817L14.9549 28.6693C14.3537 28.4708 13.6999 28.5085 13.1253 28.7746C12.5506 29.0408 12.0979 29.5157 11.8584 30.1036C11.6963 30.5627 11.6779 31.0606 11.8056 31.5305C11.9334 32.0005 12.2011 32.42 12.5729 32.7331C13.0127 33.1835 13.7311 33.4412 14.3594 33.4502H19.1233C19.513 33.4694 19.9015 33.3923 20.2545 33.2256C20.6076 33.0588 20.9144 32.8076 21.148 32.494C21.3932 32.1194 21.4089 31.3818 21.3862 31.0598ZM13.6191 31.2513C13.6395 31.3951 13.6888 31.5332 13.7639 31.6574C13.8378 31.741 13.9301 31.8062 14.0334 31.8477C14.1368 31.8892 14.2485 31.9059 14.3594 31.8964H19.3615L14.5976 30.3426C14.4082 30.2982 14.2092 30.3217 14.0352 30.409C13.8612 30.4964 13.7231 30.642 13.6448 30.8207C13.6074 30.961 13.5986 31.1075 13.6191 31.2513Z" fill="#5A5A5A"/>
<path fill-rule="evenodd" clip-rule="evenodd" d="M24.9591 32.8526H37.2574C37.317 33.0916 37.3303 33.3307 37.3436 33.5697C37.3569 33.8088 37.3703 34.0478 37.4298 34.2869H24.4828C24.2073 34.289 23.937 34.2111 23.7046 34.0627C23.4722 33.9142 23.2875 33.7015 23.1727 33.4502L22.9876 32.8526L22.8154 32.0159L22.8154 31.2988C22.8154 31.1793 22.9099 30.9544 23.0536 30.8207C23.3779 30.5189 23.8023 30.3485 24.2446 30.3426H36.1725V32.0159H24.6019L24.9591 32.8526ZM14.4785 22.8127H12.2156C12.2441 22.9816 12.3317 23.1346 12.4628 23.2442C12.5938 23.3538 12.7597 23.4128 12.9302 23.4104H14.1212L14.4785 22.8127ZM16.5758 44.1982C16.685 44.0667 16.7438 43.9003 16.7414 43.7291V42.1753H12.0966V43.7291C12.0942 43.9003 12.1529 44.0667 12.2621 44.1982C12.3713 44.3297 12.5238 44.4177 12.692 44.4462H16.1459C16.3141 44.4177 16.4666 44.3297 16.5758 44.1982ZM11.5011 40.6215H18.6469H39.4545C39.6858 41.1633 39.9648 41.6833 40.2882 42.1753H18.4087V43.7291C18.4087 44.3314 18.1703 44.909 17.746 45.3349C17.3216 45.7607 16.746 46 16.1459 46H12.5729C11.9728 46 11.3972 45.7607 10.9729 45.3349C10.5485 44.909 10.3101 44.3314 10.3101 43.7291V41.9363C9.9313 41.7452 9.61018 41.4562 9.37988 41.099C9.14958 40.7418 9.01844 40.3294 9 39.9044V29.506C9.00573 28.8168 9.1969 28.1421 9.55329 27.553C9.90968 26.9639 10.4181 26.4824 11.0247 26.1594L13.0493 25.2032H12.9302C12.6228 25.2036 12.3185 25.1412 12.0359 25.0196C11.7533 24.8981 11.4983 24.7201 11.2865 24.4964C11.0748 24.2727 10.9107 24.008 10.8042 23.7185C10.6977 23.4291 10.6512 23.1209 10.6674 22.8127C10.6674 22.4324 10.8179 22.0675 11.086 21.7986C11.354 21.5296 11.7175 21.3785 12.0966 21.3785H15.4313L17.456 18.0319C17.8612 17.4183 18.409 16.9127 19.0522 16.5588C19.6953 16.2048 20.4146 16.0131 21.148 16H40.561C41.2944 16.0131 42.0137 16.2048 42.6568 16.5588C43.3 16.9127 43.8478 17.4183 44.253 18.0319L47.0994 23.3947L45.6702 24.2314L42.8239 18.8685C42.572 18.4996 42.2343 18.1979 41.8399 17.9897C41.4456 17.7814 41.0066 17.6728 40.561 17.6733H21.148C20.7024 17.6728 20.2634 17.7814 19.8691 17.9897C19.4747 18.1979 19.137 18.4996 18.8851 18.8685L14.5976 26.2789L14.2403 26.5179L11.8584 27.7131C11.5346 27.8864 11.2638 28.1448 11.075 28.4606C10.8862 28.7764 10.7865 29.1377 10.7865 29.506V39.9044C10.7865 40.0946 10.8618 40.277 10.9958 40.4115C11.1298 40.546 11.3115 40.6215 11.5011 40.6215ZM20.3143 36.7968L20.0761 37.8725H38.3826C38.5017 38.1116 38.591 38.3805 38.6803 38.6494C38.7697 38.9183 38.859 39.1873 38.9781 39.4263H19.7188C19.5154 39.4357 19.3127 39.3974 19.1266 39.3144C18.9405 39.2314 18.7763 39.106 18.6469 38.9482C18.5242 38.8012 18.4384 38.6268 18.397 38.4396C18.3555 38.2523 18.3595 38.0578 18.4087 37.8725L18.6469 36.1992C18.7452 35.8937 18.9354 35.6263 19.1913 35.4336C19.4473 35.241 19.7564 35.1327 20.0761 35.1235H37.7871L38.1444 36.7968H20.3143Z" fill="#5A5A5A"/>
<path d="M37.833 26.0535V26.8376L17.417 26.698V26.0535H37.833Z" fill="#D11F37" stroke="#5A5A5A" stroke-width="1.11225"/>
<path d="M46.501 22.4012C46.7811 22.4012 47.052 22.4949 47.2744 22.663L56.6787 28.2655H56.6777C56.8875 28.3884 57.0614 28.5641 57.1816 28.7753C57.3021 28.9868 57.3645 29.2264 57.3633 29.4696V32.7128L57.3613 33.3466C57.2906 36.5067 56.335 39.5883 54.5986 42.2362C52.7465 45.0607 50.0904 47.2617 46.9756 48.5526L46.8662 48.5985H46.0352L45.9229 48.5497C42.8359 47.2317 40.21 45.0221 38.3789 42.202C36.5479 39.382 35.5942 36.0789 35.6396 32.7137V29.4696C35.6384 29.2263 35.7009 28.9868 35.8213 28.7753C35.9414 28.5643 36.1148 28.3883 36.3242 28.2655L45.7275 22.663C45.9499 22.4947 46.2207 22.4013 46.501 22.4012Z" fill="#D11F37" stroke="#EFF1F3" stroke-width="1.19636"/>
<path d="M50.5771 32.4267C50.4151 32.2812 50.2053 32.2008 49.9879 32.2008C49.7704 32.2008 49.5606 32.2812 49.3985 32.4267L44.7824 37.0593L43.6038 35.8765C43.4417 35.731 43.2319 35.6506 43.0145 35.6506C42.7971 35.6506 42.5873 35.731 42.4252 35.8765C42.3235 35.9378 42.2393 36.0245 42.1809 36.1282C42.1225 36.2318 42.0918 36.3488 42.0918 36.4679C42.0918 36.587 42.1225 36.704 42.1809 36.8076C42.2393 36.9113 42.3235 36.998 42.4252 37.0593L44.1931 38.8335C44.2542 38.9355 44.3406 39.02 44.4438 39.0786C44.5471 39.1372 44.6637 39.1681 44.7824 39.1681C44.901 39.1681 45.0176 39.1372 45.1209 39.0786C45.2242 39.02 45.3106 38.9355 45.3717 38.8335L50.5771 33.6095C50.7221 33.4468 50.8022 33.2363 50.8022 33.0181C50.8022 32.7999 50.7221 32.5893 50.5771 32.4267Z" fill="white"/>
</svg>
