<svg xmlns="http://www.w3.org/2000/svg" width="88" height="69" fill="none" viewBox="0 0 88 69"><path stroke="#5A5A5A" stroke-width="3" d="M64.823 37.96a28 28 0 0 1-.95 4.269c-3 .279-6.012.405-9.025.38a26.3 26.3 0 0 1-3.136 5.218 92 92 0 0 1 4.086 8.065 33.3 33.3 0 0 1-6.936 5.218c-2.185-1.803-4.37-3.89-6.65-6.167a25.6 25.6 0 0 1-5.89 1.518q-1.425 4.65-2.85 8.539-2.195 0-4.37-.285a28 28 0 0 1-4.276-.948 69 69 0 0 1-.285-9.014 24 24 0 0 1-5.225-3.131c-2.85 1.613-5.605 2.941-8.17 4.08a36.8 36.8 0 0 1-5.225-6.926c1.805-2.183 3.895-4.365 6.175-6.642a25.3 25.3 0 0 1-1.425-5.882l-8.646-2.847q0-2.192.285-4.364c.285-1.518.57-2.942.95-4.27 3-.29 6.014-.386 9.026-.285a23.8 23.8 0 0 1 3.135-5.218c-1.52-2.846-2.945-5.598-4.085-8.16a34.7 34.7 0 0 1 7.03-5.218c2.09 1.803 4.37 3.89 6.65 6.167a23.3 23.3 0 0 1 5.89-1.423A84 84 0 0 1 33.757 2l4.37.285 4.181.948c.285 2.847.38 5.788.38 9.014a26.3 26.3 0 0 1 5.225 3.131l.225-.12c2.766-1.473 5.353-2.851 7.85-3.96a31.4 31.4 0 0 1 5.226 7.021 125 125 0 0 1-6.175 6.642 23.2 23.2 0 0 1 1.52 5.882 75 75 0 0 1 8.55 2.847q0 2.144-.285 4.27Zm-19.38-4.46c0 6.55-5.318 11.86-11.876 11.86-6.559 0-11.876-5.31-11.876-11.86s5.317-11.86 11.876-11.86 11.875 5.31 11.875 11.86Z" clip-rule="evenodd"/><path fill="#CE0F2D" stroke="#EFF1F3" d="M66.611 29.5c11.073 0 20.027 8.743 20.027 19.5S77.684 68.5 66.61 68.5 46.584 59.757 46.584 49s8.954-19.5 20.027-19.5Z"/><path fill="#fff" d="m63.984 52.883-.713-5.022.155-.155c3.906-.155 5.425-1.178 5.425-2.883 0-1.395-1.054-2.201-2.852-2.201-1.736 0-3.224.713-4.65 2.139l-2.852-3.131c1.798-1.984 4.216-3.348 7.595-3.348 4.464 0 7.502 2.294 7.502 6.479 0 3.937-2.728 5.55-6.107 6.231l-.34 1.891zm-1.023 7.378v-4.96h5.022v4.96z"/></svg>