<svg xmlns="http://www.w3.org/2000/svg" width="81" height="50" fill="none" viewBox="0 0 81 50"><path fill="#5A5A5A" fill-rule="evenodd" d="M20.148 23.784c-.188-.377-.753-.755-.753-.755l-9.404-3.02a3.94 3.94 0 0 0-2.89.166 3.96 3.96 0 0 0-2 2.1 3.79 3.79 0 0 0 1.128 4.152c.694.711 1.829 1.118 2.821 1.133h7.524a3.75 3.75 0 0 0 3.197-1.51c.388-.592.413-1.757.377-2.266m-12.267.303c.032.227.11.445.229.641a1.13 1.13 0 0 0 .94.377h7.9l-7.524-2.453a1.31 1.31 0 0 0-1.504.755c-.06.221-.073.453-.041.68" clip-rule="evenodd"/><path fill="#5A5A5A" fill-rule="evenodd" d="M25.79 26.616h19.424c.094.377.115.755.136 1.132.02.378.042.755.136 1.133H25.038a2.25 2.25 0 0 1-2.069-1.322l-.292-.943-.272-1.322v-1.132c0-.189.15-.544.376-.755a2.82 2.82 0 0 1 1.881-.755H43.5v2.642H25.226zM9.239 10.76H5.664a1.13 1.13 0 0 0 1.129.943h1.881zm3.313 33.774c.172-.208.265-.47.261-.74v-2.455H5.476v2.454a1.135 1.135 0 0 0 .94 1.133h5.456a1.13 1.13 0 0 0 .679-.392m-8.015-5.649h44.147A15.7 15.7 0 0 0 50 41.339H15.445v2.454c0 .951-.376 1.864-1.046 2.536a3.57 3.57 0 0 1-2.527 1.05H6.229a3.57 3.57 0 0 1-2.527-1.05 3.6 3.6 0 0 1-1.047-2.536v-2.831a3.79 3.79 0 0 1-2.069-3.209V21.33a6.06 6.06 0 0 1 .874-3.084 6.03 6.03 0 0 1 2.324-2.201l3.197-1.51h-.188a3.56 3.56 0 0 1-2.596-1.117 3.6 3.6 0 0 1-.978-2.658c0-.601.238-1.177.661-1.602a2.25 2.25 0 0 1 1.596-.664h5.267l3.198-5.285A7.16 7.16 0 0 1 16.46.882 7.1 7.1 0 0 1 19.772 0h30.66a7.1 7.1 0 0 1 3.31.882 7.16 7.16 0 0 1 2.52 2.327l4.496 8.47L58.5 13l-4.495-8.47a4.33 4.33 0 0 0-3.574-1.887H19.77a4.31 4.31 0 0 0-3.573 1.887L9.426 16.234l-.564.377L5.1 18.5a3.2 3.2 0 0 0-1.693 2.831v16.423a1.135 1.135 0 0 0 1.129 1.132m13.919-6.04-.376 1.699H46.99c.189.377.33.802.47 1.227.142.424.283.85.471 1.227H17.514a2.06 2.06 0 0 1-1.692-.755 1.89 1.89 0 0 1-.377-1.7l.377-2.642a2.44 2.44 0 0 1 2.257-1.699H46.05l.564 2.643z" clip-rule="evenodd"/><path fill="#D11F37" stroke="#5A5A5A" stroke-width="1.7566" d="M46.122 15.878v1.237l-32.244-.218v-1.02z"/><path fill="#CE0F2D" stroke="#EFF1F3" d="M60.49 9.603c11.058 0 20 8.742 20 19.5s-8.942 19.5-20 19.5-20-8.742-20-19.5 8.943-19.5 20-19.5Z"/><path fill="#fff" d="m57.885 32.883-.713-5.022.155-.155c3.906-.155 5.425-1.178 5.425-2.883 0-1.395-1.054-2.201-2.852-2.201-1.736 0-3.224.713-4.65 2.139l-2.853-3.131c1.798-1.984 4.217-3.348 7.596-3.348 4.464 0 7.502 2.294 7.502 6.479 0 3.937-2.728 5.55-6.107 6.231l-.341 1.891zm-1.023 7.378v-4.96h5.022v4.96z"/></svg>