<svg xmlns="http://www.w3.org/2000/svg" width="63" height="73" fill="none" viewBox="0 0 63 73"><path stroke="#5A5A5A" stroke-width="2.79455" d="M18.799 2.366a140 140 0 0 1 1.09 1.525l.768 1.105.006.009q.67.956 1.337 1.957l.003.003a156 156 0 0 1 3.78 5.923 119 119 0 0 1 4.272 7.637l.56 1.114a81 81 0 0 1 2.413 5.338l.301.753q.201.525.394 1.04l.374 1.029c.803 2.313 1.395 4.528 1.718 6.603v.003c.338 2.146.383 4.104.097 5.822l-.061.338c-1.35 6.844-5.423 10.248-9.252 11.986h-.002c-3.89 1.772-7.525 1.805-7.76 1.805h-.145c-.72 0-7.229-.152-12.048-4.586l-.004-.002-.256-.24c-1.272-1.22-2.424-2.764-3.307-4.715v-.002l-.185-.42q-.18-.427-.346-.881l-.161-.463a21 21 0 0 1-.646-2.482v-.002a15 15 0 0 1-.198-1.395q-.053-.738-.054-1.526c.025-2.371.517-5.042 1.382-7.899.078-.258.155-.504.236-.754l.003-.01c.684-2.145 1.567-4.366 2.586-6.615l.003-.007c.36-.802.736-1.609 1.132-2.407l.004-.007c2.109-4.312 4.634-8.614 7.144-12.52a24 24 0 0 0 1.625-2.461A163 163 0 0 1 18.8 2.366Z"/><circle cx="40.1777" cy="49.8362" r="22.8222" fill="#CE0F2D"/><path fill="#EFF1F3" fill-rule="evenodd" d="M54.814 52.28a12.5 12.5 0 0 1-.423 1.894q-2.002.186-4.014.168c-.373.823-.84 1.6-1.394 2.315a41 41 0 0 1 1.817 3.578c-.922.902-1.96 1.68-3.085 2.314-.971-.8-1.943-1.725-2.957-2.735-.844.327-1.723.553-2.62.673a74 74 0 0 1-1.268 3.788q-.976 0-1.943-.126a12.6 12.6 0 0 1-1.902-.421 30 30 0 0 1-.126-3.998 10.6 10.6 0 0 1-2.324-1.39 42 42 0 0 1-3.634 1.81 16.3 16.3 0 0 1-2.324-3.072c.803-.968 1.732-1.936 2.747-2.946a11.2 11.2 0 0 1-.634-2.61l-3.845-1.262q0-.972.127-1.936a21 21 0 0 1 .422-1.894 31 31 0 0 1 4.014-.126 10.6 10.6 0 0 1 1.394-2.315c-.676-1.262-1.31-2.483-1.816-3.62.94-.9 1.99-1.677 3.126-2.314.93.8 1.944 1.725 2.958 2.736a10.4 10.4 0 0 1 2.62-.632 37 37 0 0 1 1.267-3.83l1.944.127 1.859.42c.127 1.263.169 2.568.169 3.999a11.7 11.7 0 0 1 2.324 1.389l.1-.054c1.23-.653 2.38-1.264 3.491-1.756a14 14 0 0 1 2.324 3.114 56 56 0 0 1-2.746 2.946c.339.837.566 1.714.676 2.61q1.94.517 3.803 1.262 0 .952-.127 1.894m-8.62-1.978c0 2.906-2.364 5.26-5.281 5.26s-5.282-2.354-5.282-5.26 2.365-5.26 5.282-5.26 5.281 2.355 5.281 5.26" clip-rule="evenodd"/></svg>