<svg xmlns="http://www.w3.org/2000/svg" width="73" height="80" fill="none" viewBox="0 0 73 80"><path stroke="#5A5A5A" stroke-linecap="round" stroke-linejoin="round" stroke-width="3" d="M1.53 25.927v26.039m0-13.02h7.01m25.49-26.038v6.51m32.33 6.448h-4.626v4.298h-6.938L43.233 19.42H24.732l-6.938 6.447H8.543v25.79h13.876l9.25 8.596h23.127V47.357h6.938v4.299h4.625c2.56 0 4.64-5.76 4.64-12.895s-2.08-12.895-4.64-12.895M25.106 12.908h18.482"/><path fill="#CE0F2D" d="M61.737 0a11.38 11.38 0 0 0 9.736 9.737 11.38 11.38 0 0 0-9.736 9.736A11.38 11.38 0 0 0 52 9.737 11.38 11.38 0 0 0 61.737 0"/><path fill="url(#a)" d="M13.684 56a13.66 13.66 0 0 0 11.684 11.684 13.66 13.66 0 0 0-11.684 11.684A13.66 13.66 0 0 0 2 67.684 13.66 13.66 0 0 0 13.684 56"/><defs><linearGradient id="a" x1="27.9778" x2="1.8416" y1="63.045" y2="60.018" gradientUnits="userSpaceOnUse"><stop stop-color="#BC1F29"/><stop offset="1" stop-color="#E2000F"/></linearGradient></defs></svg>