<svg xmlns="http://www.w3.org/2000/svg" width="63" height="62" fill="none" viewBox="0 0 63 62"><path fill="#5A5A5A" fill-rule="evenodd" d="M21.386 31.06c-.119-.24-.476-.478-.476-.478l-5.955-1.913a2.5 2.5 0 0 0-1.83.106 2.5 2.5 0 0 0-1.267 1.329 2.4 2.4 0 0 0 .715 2.63c.44.45 1.158.707 1.786.716h4.764a2.38 2.38 0 0 0 2.025-.956c.245-.375.26-1.112.238-1.434m-7.767.191c.02.144.07.282.145.406a.72.72 0 0 0 .595.24h5.002l-4.763-1.554a.83.83 0 0 0-.953.478 1.1 1.1 0 0 0-.026.43" clip-rule="evenodd"/><path fill="#5A5A5A" fill-rule="evenodd" d="M24.96 32.853h12.297c.06.239.073.478.087.717a4 4 0 0 0 .086.717H24.483a1.43 1.43 0 0 1-1.31-.837l-.185-.597-.173-.837v-.717c0-.12.095-.345.239-.478a1.78 1.78 0 0 1 1.19-.478h11.929v1.673H24.602zm-10.481-10.04h-2.263a.72.72 0 0 0 .714.597h1.191zm2.097 21.385a.72.72 0 0 0 .165-.469v-1.554h-4.644v1.554a.72.72 0 0 0 .595.717h3.454a.7.7 0 0 0 .43-.248M11.5 40.621h27.954q.347.814.833 1.554h-21.88v1.554c0 .602-.238 1.18-.662 1.606a2.26 2.26 0 0 1-1.6.665h-3.573c-.6 0-1.176-.24-1.6-.665a2.28 2.28 0 0 1-.663-1.606v-1.793A2.38 2.38 0 0 1 9 39.904V29.506a3.84 3.84 0 0 1 2.025-3.347l2.024-.956h-.119a2.26 2.26 0 0 1-1.643-.707 2.27 2.27 0 0 1-.62-1.683 1.433 1.433 0 0 1 1.429-1.434h3.335l2.025-3.347A4.53 4.53 0 0 1 21.148 16h19.413a4.51 4.51 0 0 1 3.692 2.032l2.846 5.363-1.429.836-2.846-5.363a2.74 2.74 0 0 0-2.263-1.195H21.148a2.73 2.73 0 0 0-2.263 1.196l-4.287 7.41-.358.239-2.382 1.195a2.03 2.03 0 0 0-1.072 1.793v10.398a.72.72 0 0 0 .715.717m8.813-3.824-.238 1.076h18.307a6 6 0 0 1 .297.776c.09.27.179.538.298.777h-19.26a1.3 1.3 0 0 1-1.071-.478 1.2 1.2 0 0 1-.238-1.075l.238-1.674a1.55 1.55 0 0 1 1.43-1.075h17.71l.357 1.673z" clip-rule="evenodd"/><path fill="#D11F37" stroke="#5A5A5A" stroke-width="1.11225" d="M37.833 26.054v.784l-20.416-.14v-.645z"/><circle cx="46.5" cy="35.5" r="12.1908" fill="#CE0F2D" stroke="#EFF1F3" stroke-width="0.618448"/><path fill="#fff" d="m44.851 37.558-.44-3.105.095-.096c2.416-.096 3.355-.729 3.355-1.783 0-.863-.652-1.362-1.764-1.362-1.073 0-1.994.441-2.876 1.323L41.459 30.6c1.112-1.227 2.607-2.07 4.697-2.07 2.76 0 4.64 1.418 4.64 4.006 0 2.435-1.688 3.432-3.777 3.854l-.211 1.17zm-.633 4.563v-3.067h3.106v3.067z"/></svg>