<svg xmlns="http://www.w3.org/2000/svg" width="63" height="62" fill="none" viewBox="0 0 63 62"><path stroke="#5A5A5A" stroke-width="2" d="M43.46 33.46a16 16 0 0 1-.54 2.43q-2.561.237-5.135.215A15 15 0 0 1 36 39.075a53 53 0 0 1 2.324 4.588 19 19 0 0 1-3.946 2.969c-1.243-1.026-2.486-2.213-3.783-3.509a14.6 14.6 0 0 1-3.352.864 96 96 0 0 1-1.621 4.858q-1.25 0-2.487-.162a16 16 0 0 1-2.432-.54 39 39 0 0 1-.163-5.128 13.6 13.6 0 0 1-2.973-1.782 53 53 0 0 1-4.648 2.322 21 21 0 0 1-2.973-3.941c1.027-1.242 2.216-2.483 3.513-3.779a14.4 14.4 0 0 1-.81-3.347l-4.92-1.62q0-1.247.163-2.483c.162-.863.324-1.673.54-2.429a39.5 39.5 0 0 1 5.135-.162 13.6 13.6 0 0 1 1.784-2.969c-.865-1.62-1.675-3.185-2.324-4.643a19.7 19.7 0 0 1 4-2.969 71 71 0 0 1 3.784 3.51 13.3 13.3 0 0 1 3.351-.81A48 48 0 0 1 25.785 13l2.486.162 2.379.54c.162 1.62.216 3.293.216 5.128a15 15 0 0 1 2.973 1.782l.128-.068c1.573-.839 3.046-1.623 4.467-2.254a18 18 0 0 1 2.973 3.995 71 71 0 0 1-3.514 3.78c.434 1.072.724 2.197.865 3.346 1.652.442 3.277.983 4.865 1.62q0 1.22-.162 2.429Zm-11.026-2.537a6.75 6.75 0 0 1-6.757 6.748 6.75 6.75 0 0 1-6.757-6.748 6.75 6.75 0 0 1 6.757-6.748 6.75 6.75 0 0 1 6.757 6.748Z" clip-rule="evenodd"/><circle cx="44.5" cy="39.5" r="12.1908" fill="#CE0F2D" stroke="#EFF1F3" stroke-width="0.618448"/><path fill="#fff" d="m42.851 41.558-.44-3.105.095-.096c2.416-.096 3.355-.729 3.355-1.783 0-.863-.652-1.362-1.764-1.362-1.073 0-1.994.441-2.876 1.323L39.459 34.6c1.112-1.227 2.607-2.07 4.697-2.07 2.76 0 4.64 1.418 4.64 4.006 0 2.435-1.688 3.432-3.777 3.854l-.211 1.17zm-.633 4.563v-3.067h3.106v3.067z"/></svg>