<svg xmlns="http://www.w3.org/2000/svg" width="63" height="62" fill="none" viewBox="0 0 63 62"><path stroke="#5A5A5A" stroke-linecap="round" stroke-linejoin="round" stroke-width="1.66315" d="M11.611 22.373V36.81m0-7.22h3.887m14.131-14.434v3.609m17.923 3.575h-2.564v2.383h-3.846l-6.41-5.958H24.474l-3.847 3.575H15.5v14.297h7.692l5.129 4.766h12.82v-7.149h3.847v2.383h2.564c1.42 0 2.573-3.193 2.573-7.149s-1.154-7.148-2.573-7.148m-22.87-7.184h10.246"/><path fill="#CE0F2D" d="M44.99 8a6.31 6.31 0 0 0 5.397 5.398 6.31 6.31 0 0 0-5.397 5.398 6.31 6.31 0 0 0-5.398-5.398A6.31 6.31 0 0 0 44.99 8"/><path fill="url(#a)" d="M18.35 39.045a7.57 7.57 0 0 0 6.478 6.478A7.57 7.57 0 0 0 18.35 52a7.57 7.57 0 0 0-6.477-6.477 7.57 7.57 0 0 0 6.477-6.478"/><defs><linearGradient id="a" x1="26.2747" x2="11.7852" y1="42.951" y2="41.2729" gradientUnits="userSpaceOnUse"><stop stop-color="#BC1F29"/><stop offset="1" stop-color="#E2000F"/></linearGradient></defs></svg>