<svg xmlns="http://www.w3.org/2000/svg" width="63" height="62" fill="none" viewBox="0 0 63 62"><path stroke="#5A5A5A" stroke-width="2" d="M28.004 8.687q.698.957 1.43 2.012l.005.006q.5.713 1 1.458l.002.002a116 116 0 0 1 2.83 4.412 89 89 0 0 1 3.2 5.689l.419.829a61 61 0 0 1 1.573 3.412l.46 1.126q.304.784.573 1.537c.602 1.726 1.047 3.378 1.29 4.928v.002c.27 1.706.29 3.255.026 4.598-1.013 5.11-4.07 7.654-6.949 8.953h-.002C30.941 48.974 28.211 49 28.033 49h-.11c-.543 0-5.43-.113-9.05-3.427l-.004-.003a11.2 11.2 0 0 1-2.676-3.7v-.003a13 13 0 0 1-.398-.97l-.121-.347a16 16 0 0 1-.484-1.852l-.046-.252a13 13 0 0 1-.104-.794q-.04-.55-.04-1.137c.019-1.77.388-3.762 1.036-5.891v-.001c.058-.192.115-.375.177-.562l.002-.007c.512-1.598 1.174-3.253 1.937-4.929l.002-.005c.27-.598.552-1.2.849-1.794l.002-.005c1.58-3.215 3.474-6.421 5.355-9.333q.664-.88 1.213-1.829c.836-1.24 1.656-2.406 2.43-3.472Z"/><circle cx="41.5" cy="45.5" r="12.5" fill="#CE0F2D"/><path fill="#EFF1F3" fill-rule="evenodd" d="M49.578 46.654a7 7 0 0 1-.245 1.105q-1.164.108-2.333.098c-.217.48-.489.933-.81 1.35.417.737.761 1.425 1.056 2.088a8.6 8.6 0 0 1-1.793 1.35 25 25 0 0 1-1.719-1.596 6.6 6.6 0 0 1-1.522.393 44 44 0 0 1-.737 2.21q-.567 0-1.13-.074a7 7 0 0 1-1.104-.245q-.114-1.163-.074-2.333a6.2 6.2 0 0 1-1.35-.81c-.737.417-1.45.761-2.112 1.056a9.5 9.5 0 0 1-1.35-1.793 25 25 0 0 1 1.596-1.719 6.6 6.6 0 0 1-.369-1.522l-2.234-.737q0-.566.073-1.13c.074-.392.148-.76.246-1.104q1.163-.113 2.333-.074a6.2 6.2 0 0 1 .81-1.35 34 34 0 0 1-1.056-2.112 9 9 0 0 1 1.817-1.35c.54.466 1.13 1.006 1.719 1.596a6 6 0 0 1 1.522-.369q.308-1.136.737-2.234l1.13.073 1.08.246c.074.737.098 1.498.098 2.333.48.217.933.489 1.35.81l.059-.031c.715-.381 1.383-.738 2.029-1.025.532.54.987 1.152 1.35 1.817-.466.54-1.007 1.13-1.596 1.719.197.488.33 1 .393 1.522q1.127.303 2.21.737 0 .555-.074 1.105M44.57 45.5a3.07 3.07 0 1 1-6.139 0 3.07 3.07 0 0 1 6.14 0" clip-rule="evenodd"/></svg>