<svg xmlns="http://www.w3.org/2000/svg" width="187" height="99" fill="none" viewBox="0 0 187 99"><path fill="#282828" d="m113.643 25.245 64.115-19.234v41.083l-64.115 18.303v14.539l-2.56.758-17.48 5.182-4.594 1.361v-9.802l-.827.255-13.36 4.108-2.038.626v5.2l-2.569.755-5.677 1.67-2.312.68-1.499-1.887-8.477-10.674v15.595l-2.561.76-6.52 1.933-4.594 1.364V54.7l2.548-.765 7.236-2.176 2.4-.72 1.498 2.01 6.024 8.083V48.779l2.543-.768 7.348-2.219 4.612-1.391v7.011c1.82-1.935 4.116-3.086 6.213-3.489l.38-.063a9 9 0 0 1 1.258-.087l-.838-1.279-6.568-10.02-1.833-2.797 2.666-2.018 33.846-25.606 5.735-4.34zM72.783 69.15l.236-.07q-.12-.106-.235-.215zm7.125-9.49a1.6 1.6 0 0 0-.636.056c.136.076.302.143.493.178l.115.016c.24.027.457-.003.636-.056a1.6 1.6 0 0 0-.492-.176zm-.53-3.194a2 2 0 0 0-.243.105l.12-.055q.122-.053.246-.09zm.635-.122q-.13.003-.258.024l.13-.015q.128-.012.259-.007zm4.72-8.809-1.06.686c.882.263 1.77.65 2.615 1.188a9.8 9.8 0 0 1 2.721 2.595v-7.238z"/><path fill="#fff" d="m175.469 45.949-65.911 18.816-2.004-39.524 67.915-20.375z"/><path fill="#000" d="m113.575 38.713 1.583-.455v7.852l-1.583.453zm9.668-2.773v7.851l-1.812.52-2.957-4.33v5.178l-1.583.454v-7.851l1.802-.517 2.967 4.328v-5.179zm6.494 3.027-.996.285v2.963l-1.583.454v-7.851l2.947-.846q2.778-.796 2.778 1.659 0 1.802-1.543 2.72l1.862 2.585-1.772.508zm-.996-1.113 1.364-.391q1.175-.336 1.175-1.373 0-.549-.289-.714-.288-.177-.886-.005l-1.364.39zm8.886 1.989q-1.593.457-2.39-.143-.796-.6-.796-2.123v-4.848l1.583-.453v4.847q0 .88.398 1.222.408.328 1.205.1.786-.225 1.184-.785.41-.573.409-1.454V31.36l1.583-.454v4.847q0 1.523-.787 2.577-.786 1.055-2.389 1.514m7.333-2.103q-1.543.443-2.728.202v-1.501q1.245.326 2.728-.1.638-.18.936-.516.309-.338.308-.741 0-.394-.278-.51-.27-.12-.906-.124l-.677-.003a5 5 0 0 1-1.026-.11 1.4 1.4 0 0 1-.727-.485q-.298-.37-.298-1.095 0-1.19.687-2 .696-.82 1.951-1.18.747-.214 1.314-.232.578-.03 1.165.09v1.45q-1.105-.304-2.479.09-.577.165-.826.465-.24.296-.239.72.01.402.239.523.238.107.876.11h.687a4 4 0 0 1 1.075.117q.448.12.737.514.299.38.299 1.136a2.9 2.9 0 0 1-.757 1.957q-.747.846-2.061 1.223m6.611-1.896q-1.542.443-2.728.203v-1.502q1.246.327 2.728-.099.638-.183.936-.517.309-.338.309-.74 0-.394-.279-.511-.268-.12-.906-.124l-.677-.002a5 5 0 0 1-1.025-.11 1.38 1.38 0 0 1-.727-.486q-.299-.37-.299-1.095 0-1.19.687-2 .697-.82 1.952-1.18.746-.214 1.314-.232.577-.03 1.165.09v1.45q-1.105-.304-2.479.09-.578.165-.827.465a1.1 1.1 0 0 0-.239.72q.01.402.239.523.24.108.876.111h.687q.628-.004 1.076.116.447.12.736.514.3.38.299 1.136a2.9 2.9 0 0 1-.757 1.958q-.745.845-2.061 1.222m4.173-9.223 1.583-.454v7.85l-1.583.455zm7.905 3.813-2.977.854-.597 1.942-1.593.457 2.688-8.715 1.971-.566 2.699 7.17-1.593.458zm-.478-1.282-1.015-2.733-1.016 3.315zm6.919-5.257 1.563.277-.617 1.296-1.394-.647.179 1.72-1.235.354.18-1.823-1.394 1.446-.618-.942 1.573-1.176-1.573-.273.618-1.296 1.394.646-.18-1.72 1.235-.354-.179 1.823 1.394-1.446.617.942z"/><path fill="#fff" stroke="#fff" stroke-width="3.57714" d="m68.705 85.141-1.283.378-5.679 1.67-1.155.34-.75-.944-11.667-14.69v19.389l-1.28.38-6.52 1.933-2.297.682V54.886l1.274-.383 7.236-2.175 1.2-.36.75 1.004 9.246 12.41V48.963l1.272-.385 7.347-2.217 2.306-.697zm40.86-7.685-1.28.38-17.48 5.181-2.296.68V40.332l-7.037 4.559-1.492.967-.976-1.489-6.568-10.019-.917-1.398 1.333-1.01 33.845-25.607 2.868-2.169zM77.348 48.485c1.559-.219 3.762.058 5.686 1.287 2.166 1.384 3.812 3.868 3.93 7.701l.007.385c.023 3.736-1.33 6.32-3.124 8.024l.483-.143 2.3-.688v9.397l-1.263.388-13.36 4.108-2.314.712v-9.543l1.277-.382 4.368-1.306a8.7 8.7 0 0 1-2.873-1.386c-2.015-1.489-3.55-4.006-3.55-7.73l.012-.615c.267-6.262 4.606-9.484 8.118-10.16zm.408 8.505c-.058.007-.189.047-.371.244-.213.228-.421.607-.515 1.102l-.032.22c-.067.604.063 1.102.243 1.41.178.306.328.327.34.328l.033-.002c.058-.007.189-.047.371-.243.243-.261.48-.718.547-1.322l.017-.222c.017-.504-.103-.92-.26-1.19-.178-.303-.327-.325-.34-.326z"/><path fill="#CE0F2D" d="m66.917 83.803-5.678 1.67-14.855-18.752v23.245l-6.522 1.917V56.216l7.237-2.175 12.47 16.736V50.29l7.348-2.218zm40.86-7.683-17.48 5.182v-44.26L80.5 43.388l-6.57-10.02 33.847-25.607zm-22.935-2.993-13.36 4.107v-5.79l13.36-3.992z"/><path fill="#CE0F2D" fill-rule="evenodd" d="M77.382 50.291c2.316-.445 7.592.668 7.794 7.237.222 7.237-5.255 9.04-7.237 9.352-2.115.334-7.237-1.225-7.237-7.57 0-5.701 3.786-8.462 6.68-9.019m.604 4.92c-1.405-.156-2.716 1.253-2.926 3.147-.21 1.895.758 3.557 2.164 3.714 1.405.156 2.715-1.253 2.926-3.148.21-1.894-.758-3.557-2.164-3.713" clip-rule="evenodd"/></svg>