<svg xmlns="http://www.w3.org/2000/svg" width="204" height="107" fill="none" viewBox="0 0 204 107"><path fill="#282828" d="m123.975 27.046 69.943-20.982V50.88l-69.943 19.967V86.71l-2.794.827-19.068 5.653-5.012 1.485V83.982l-.902.278-14.574 4.48-2.225.684v5.673l-2.8.823-6.195 1.822-2.523.742-1.634-2.058-9.249-11.645v17.013l-2.793.828-7.113 2.11-5.012 1.487v-47.04l2.78-.834 7.894-2.373 2.62-.787 1.633 2.192 6.572 8.82V52.72l2.774-.838 8.016-2.42 5.03-1.519v7.65c1.985-2.11 4.491-3.367 6.778-3.807l.415-.069q.647-.092 1.373-.095l-.914-1.394-7.166-10.932-2-3.05 2.91-2.2L117.717 6.11l6.257-4.734zm-33.66 21.042 10.688-6.923v48.283l19.07-5.652-19.069 5.651V41.164zM79.4 74.944l.258-.078a11 11 0 0 1-.258-.234zm7.646-10.363a1.8 1.8 0 0 0-.568.07c.149.084.33.156.54.194l.124.019c.261.028.499-.004.693-.062a1.8 1.8 0 0 0-.537-.192l-.126-.019zm-2.665-.163-.012.173.012-.172q.022-.194.057-.38v-.002a5 5 0 0 0-.057.381m4.356-2.93q.056.047.11.096zl-.115-.087zm-2.143-.382-.02.008q.076-.03.156-.052zm.411-.107a2 2 0 0 0-.138.027l.14-.027q.069-.01.139-.017zm5.432-9.635-1.156.748c.961.286 1.93.707 2.85 1.295a10.7 10.7 0 0 1 2.97 2.832v-7.897zm-5.821 4.318-.066.016q.184-.044.365-.08z"/><path fill="#fff" d="m191.421 49.633-71.903 20.526-2.186-43.118 74.089-22.226z"/><path fill="#000" d="m124.075 41.87 1.727-.495v8.564l-1.727.495zm10.547-3.024v8.564l-1.977.567-3.226-4.724v5.65l-1.727.494v-8.564l1.966-.564 3.237 4.721v-5.65zm7.084 3.301-1.086.312v3.231l-1.727.496V37.62l3.215-.922q3.03-.87 3.03 1.809 0 1.965-1.683 2.968l2.031 2.82-1.933.553zm-1.086-1.214 1.488-.426q1.282-.367 1.282-1.498 0-.598-.315-.78-.315-.192-.967-.005l-1.488.427zm9.693 2.17q-1.737.498-2.607-.156-.869-.655-.869-2.316v-5.288l1.727-.495v5.288q0 .96.435 1.333.446.357 1.314.109.858-.246 1.293-.857.445-.625.445-1.585v-5.288l1.727-.495v5.288q0 1.66-.858 2.81t-2.607 1.652m8-2.294q-1.683.484-2.976.22v-1.638q1.358.357 2.976-.107.695-.2 1.021-.564.337-.368.337-.809 0-.429-.304-.556-.294-.131-.989-.135l-.738-.003a5.3 5.3 0 0 1-1.119-.12 1.5 1.5 0 0 1-.793-.53q-.326-.404-.326-1.194 0-1.299.75-2.181.76-.897 2.128-1.289.815-.233 1.434-.252.63-.034 1.271.098v1.582q-1.206-.332-2.705.098-.63.18-.901.507a1.2 1.2 0 0 0-.261.786q.011.438.261.57.26.117.956.121h.749q.684-.004 1.173.127.489.13.804.56.326.415.326 1.24a3.17 3.17 0 0 1-.826 2.135q-.814.923-2.248 1.334m7.213-2.068q-1.685.483-2.976.22v-1.638q1.357.357 2.976-.108.694-.198 1.021-.564.336-.367.336-.808 0-.43-.304-.557-.293-.13-.988-.134l-.739-.003a5.3 5.3 0 0 1-1.118-.12 1.5 1.5 0 0 1-.793-.53q-.326-.403-.326-1.195 0-1.3.749-2.18.76-.896 2.129-1.289.814-.233 1.434-.253.63-.034 1.271.1v1.581q-1.206-.333-2.705.098-.63.18-.901.507a1.2 1.2 0 0 0-.261.786q.01.438.261.57.26.117.955.12h.75q.684-.004 1.173.128.489.13.804.56.326.415.326 1.24a3.18 3.18 0 0 1-.826 2.135q-.814.923-2.248 1.334m4.551-10.062 1.727-.495v8.564l-1.727.496zm8.624 4.16-3.247.93-.652 2.12-1.738.498 2.933-9.507 2.151-.617 2.943 7.823-1.738.498zm-.521-1.399-1.108-2.982-1.108 3.617zm7.547-5.735 1.706.302-.674 1.414-1.52-.706.195 1.877-1.347.386.196-1.988-1.521 1.577-.673-1.027 1.716-1.283-1.716-.3.673-1.413 1.521.706-.196-1.877 1.347-.386-.195 1.989 1.52-1.578.674 1.027z"/><path fill="#fff" stroke="#fff" stroke-width="3.90234" d="m74.951 92.388-1.4.412-6.194 1.821-1.261.372-.817-1.03L52.55 77.938v21.15l-1.397.414-7.113 2.111-2.506.743V59.382l1.39-.418 7.895-2.373 1.31-.394.816 1.097 10.087 13.54V52.92l1.387-.419 8.017-2.42 2.514-.76zm44.576-8.384-1.398.414-19.068 5.652-2.506.743V43.505l-7.676 4.972-1.629 1.055-1.063-1.623-7.166-10.931-1-1.526 1.454-1.1 36.923-27.935 3.129-2.367zM84.379 52.4c1.701-.239 4.105.063 6.204 1.404 2.363 1.51 4.158 4.22 4.286 8.401l.008.42c.025 4.074-1.449 6.894-3.406 8.753l.525-.156 2.51-.75v10.251l-1.378.424-14.574 4.481-2.525.776v-10.41l1.392-.417 4.766-1.424a9.5 9.5 0 0 1-3.134-1.513c-2.198-1.624-3.874-4.37-3.874-8.432l.014-.672c.292-6.83 5.025-10.345 8.856-11.082zm.445 9.278c-.063.008-.205.052-.404.266-.232.25-.46.662-.561 1.203l-.035.239c-.074.66.07 1.203.265 1.54.196.335.36.355.371.356h.035c.063-.008.206-.053.406-.267.265-.285.523-.783.596-1.442l.018-.242c.019-.55-.112-1.002-.283-1.297-.197-.336-.361-.356-.371-.357z"/><path fill="#CE0F2D" d="m73 90.928-6.194 1.822-16.205-20.457v25.358l-7.114 2.09V60.834l7.894-2.373 13.603 18.257V54.37l8.017-2.42zm44.575-8.381L98.506 88.2V39.916l-10.688 6.923-7.166-10.931 36.923-27.935zm-25.02-3.267L77.98 83.763v-6.316l14.575-4.355z"/><path fill="#CE0F2D" fill-rule="evenodd" d="M84.417 54.37c2.527-.486 8.282.728 8.502 7.894.243 7.895-5.731 9.86-7.894 10.202-2.308.365-7.895-1.336-7.895-8.259 0-6.218 4.13-9.23 7.287-9.838m.66 5.366c-1.534-.17-2.963 1.367-3.193 3.434s.827 3.88 2.36 4.05c1.534.171 2.963-1.366 3.193-3.433s-.827-3.88-2.36-4.05" clip-rule="evenodd"/></svg>