<svg xmlns="http://www.w3.org/2000/svg" width="1071" height="552" fill="none" viewBox="0 0 1071 552"><g filter="url(#a)" opacity="0.3" style="mix-blend-mode:multiply"><path fill="#242C29" d="M881.015 63.462c29.679-3.349 36.32-3.905 42.96-4.462 2.122.86 7.284 10.136 7.015 14.701-1.564 26.493-13.278 62.182-19.527 78.39-3.366 8.729-7.236 16.999-13.427 28.129-5.78 10.391-9.957 21.627-21.036 35.981-6.732 8.721-13.657 19.244-62.898 60.508-13.326 11.168-20.727 18.69-45.978 36.134-19.829 13.697-53.634 35.964-84.529 53.12-30.896 17.155-57.801 29.436-75.063 35.551-23.643 8.375-35.89 11.277-87.566 10.307-46.252-.869-130.763-3.096-181.414-5.643-50.652-2.547-67.194-4.622-82.874-9.59-31.015-9.826-58.746-19.599-79.398-32.295-13.72-8.435-24.558-14.465-31.07-24.477-4.564-7.018-8.058-35.086-5.14-71.22 1.216-15.064 1.918-32.481 7.646-58.502 4.564-20.731 10.493-38.594 20.442-50.505 6.073-7.27 14.2-14.271 57.969-27.699 37.225-11.42 103.626-30.347 195.911-40.384s206.978-11.15 291.379-14.861 136.919-9.835 166.598-13.183"/></g><defs><filter id="a" width="1071" height="633" x="0" y="-81" color-interpolation-filters="sRGB" filterUnits="userSpaceOnUse"><feFlood flood-opacity="0" result="BackgroundImageFix"/><feBlend in="SourceGraphic" in2="BackgroundImageFix" result="shape"/><feGaussianBlur result="effect1_foregroundBlur_4193_162" stdDeviation="70"/></filter></defs></svg>