<svg width="34" height="34" viewBox="0 0 34 34" fill="none" xmlns="http://www.w3.org/2000/svg">
<g clip-path="url(#clip0_3736_1868)">
<g filter="url(#filter0_di_3736_1868)">
<mask id="path-1-inside-1_3736_1868" fill="white">
<path fill-rule="evenodd" clip-rule="evenodd" d="M9.67528 17.1442C9.58225 16.9674 9.30316 16.7905 9.30316 16.7905L4.65158 15.3753C4.18197 15.2284 3.67125 15.2563 3.22238 15.4533C2.77351 15.6502 2.41987 16.0016 2.23276 16.4367C2.10619 16.7765 2.09182 17.1449 2.19158 17.4926C2.29134 17.8404 2.50046 18.1509 2.79095 18.3825C3.13448 18.7158 3.69564 18.9065 4.18642 18.9132H7.90768C8.21209 18.9274 8.51552 18.8703 8.79129 18.7469C9.06705 18.6236 9.30672 18.4377 9.48922 18.2056C9.68071 17.9284 9.69305 17.3825 9.67528 17.1442ZM3.60811 17.286C3.6241 17.3924 3.66259 17.4946 3.72126 17.5865C3.77894 17.6484 3.85103 17.6966 3.93179 17.7273C4.01256 17.758 4.09975 17.7704 4.18642 17.7634H8.09375L4.37248 16.6136C4.2245 16.5807 4.06909 16.5981 3.93317 16.6627C3.79725 16.7273 3.68938 16.8351 3.62823 16.9674C3.59897 17.0712 3.59212 17.1796 3.60811 17.286Z"/>
<path fill-rule="evenodd" clip-rule="evenodd" d="M1.95366 24.22C1.80562 24.22 1.66364 24.164 1.55896 24.0645C1.45428 23.965 1.39547 23.83 1.39547 23.6893V15.9944C1.39547 15.7219 1.47338 15.4545 1.62085 15.2209C1.76833 14.9872 1.97984 14.796 2.23276 14.6677L4.09339 13.7833L4.37248 13.6064L7.72162 8.12271C7.91836 7.84972 8.18218 7.62648 8.4902 7.47236C8.79822 7.31823 9.14114 7.23787 9.48922 7.23825H17.0713V6H9.48922C8.91633 6.00966 8.35449 6.15157 7.8521 6.4135C7.3497 6.67543 6.9218 7.04953 6.60524 7.50359L5.0237 9.98009H2.41882C2.12274 9.98009 1.83878 10.0919 1.62942 10.291C1.42006 10.49 1.30244 10.76 1.30244 11.0414C1.2898 11.2695 1.32617 11.4975 1.40932 11.7117C1.49247 11.9259 1.62067 12.1218 1.78608 12.2873C1.9515 12.4529 2.15066 12.5846 2.37141 12.6745C2.59216 12.7645 2.82988 12.8107 3.07004 12.8104H3.16307L1.58154 13.5179C1.10769 13.757 0.710585 14.1133 0.432195 14.5492C0.153806 14.9851 0.00447876 15.4845 0 15.9944V23.6893C0.0144065 24.0038 0.116844 24.309 0.296739 24.5733C0.476634 24.8376 0.727468 25.0515 1.02335 25.1929V26.5196C1.02335 26.9653 1.20958 27.3927 1.54107 27.7078C1.87255 28.023 2.32215 28.2 2.79095 28.2H5.58189C6.05069 28.2 6.50029 28.023 6.83178 27.7078C7.16327 27.3927 7.34949 26.9653 7.34949 26.5196V25.3698H20.56C20.3074 25.0056 20.0895 24.6209 19.9088 24.22H1.95366ZM4.27945 11.0414H2.51185C2.53405 11.1664 2.60252 11.2796 2.7049 11.3607C2.80727 11.4418 2.93679 11.4854 3.07004 11.4837H4.00036L4.27945 11.0414ZM5.91773 26.8667C6.00304 26.7694 6.04891 26.6462 6.04705 26.5196V25.3698H2.41882V26.5196C2.41696 26.6462 2.46283 26.7694 2.54814 26.8667C2.63345 26.964 2.75258 27.0291 2.88398 27.0502H5.58189C5.71329 27.0291 5.83242 26.964 5.91773 26.8667Z"/>
<path fill-rule="evenodd" clip-rule="evenodd" d="M12.4662 18.4709H18.1926C18.2391 18.6478 18.2495 18.8247 18.2599 19.0016C18.2703 19.1785 18.2807 19.3554 18.3272 19.5323H12.0941C11.8789 19.5339 11.6678 19.4762 11.4863 19.3664C11.3047 19.2566 11.1604 19.0992 11.0708 18.9132L10.9262 18.4709L10.7917 17.8518L10.7917 17.3211C10.7917 17.2327 10.8655 17.0663 10.9777 16.9674C11.2311 16.744 11.5626 16.6179 11.908 16.6136H18.3272V17.8518H12.1871L12.4662 18.4709ZM8.838 21.3897L8.65194 22.1857H19.0715C19.1645 22.3626 19.2343 22.5616 19.304 22.7606C19.3738 22.9596 19.4436 23.1586 19.5366 23.3355H8.37284C8.21396 23.3424 8.05556 23.3141 7.91022 23.2527C7.76488 23.1913 7.6366 23.0985 7.53556 22.9817C7.43964 22.873 7.37266 22.7439 7.34028 22.6053C7.30789 22.4668 7.31105 22.3228 7.34949 22.1857L7.53556 20.9474C7.61234 20.7214 7.7609 20.5235 7.96081 20.3809C8.16071 20.2384 8.40215 20.1582 8.65194 20.1514H18.6063L18.8854 21.3897H8.838Z"/>
<path fill-rule="evenodd" clip-rule="evenodd" d="M24.4786 17.1442C24.5717 16.9674 24.8508 16.7905 24.8508 16.7905L29.5023 15.3753C29.972 15.2284 30.4827 15.2563 30.9315 15.4533C31.3804 15.6502 31.7341 16.0016 31.9212 16.4367C32.0477 16.7765 32.0621 17.1449 31.9623 17.4926C31.8626 17.8404 31.6535 18.1509 31.363 18.3825C31.0194 18.7158 30.4583 18.9065 29.9675 18.9132H26.2462C25.9418 18.9274 25.6384 18.8703 25.3626 18.7469C25.0869 18.6236 24.8472 18.4377 24.6647 18.2056C24.4732 17.9284 24.4609 17.3825 24.4786 17.1442ZM30.5458 17.286C30.5298 17.3924 30.4913 17.4946 30.4327 17.5865C30.375 17.6484 30.3029 17.6966 30.2221 17.7273C30.1414 17.758 30.0542 17.7704 29.9675 17.7634H26.0602L29.7814 16.6136C29.9294 16.5807 30.0848 16.5981 30.2207 16.6627C30.3567 16.7273 30.4645 16.8351 30.5257 16.9674C30.555 17.0712 30.5618 17.1796 30.5458 17.286Z"/>
<path fill-rule="evenodd" clip-rule="evenodd" d="M32.2003 24.22C32.3483 24.22 32.4903 24.164 32.595 24.0645C32.6996 23.965 32.7584 23.83 32.7584 23.6893V15.9944C32.7584 15.7219 32.6805 15.4545 32.5331 15.2209C32.3856 14.9872 32.1741 14.796 31.9212 14.6677L30.0605 13.7833L29.7814 13.6064L26.4323 8.12271C26.2356 7.84972 25.9717 7.62648 25.6637 7.47236C25.3557 7.31823 25.0128 7.23787 24.6647 7.23825H17.0826V6H24.6647C25.2376 6.00966 25.7994 6.15157 26.3018 6.4135C26.8042 6.67543 27.2321 7.04953 27.5487 7.50359L29.1302 9.98009H31.7351C32.0312 9.98009 32.3151 10.0919 32.5245 10.291C32.7339 10.49 32.8515 10.76 32.8515 11.0414C32.8641 11.2695 32.8278 11.4975 32.7446 11.7117C32.6614 11.9259 32.5333 12.1218 32.3678 12.2873C32.2024 12.4529 32.0033 12.5846 31.7825 12.6745C31.5618 12.7645 31.324 12.8107 31.0839 12.8104H30.9908L32.5724 13.5179C33.0462 13.757 33.4433 14.1133 33.7217 14.5492C34.0001 14.9851 34.1494 15.4845 34.1539 15.9944V23.6893C34.1395 24.0038 34.0371 24.309 33.8572 24.5733C33.6773 24.8376 33.4265 25.0515 33.1306 25.1929V26.5196C33.1306 26.9653 32.9443 27.3927 32.6129 27.7078C32.2814 28.023 31.8318 28.2 31.363 28.2H28.572C28.1032 28.2 27.6536 28.023 27.3221 27.7078C26.9907 27.3927 26.8044 26.9653 26.8044 26.5196V25.3698H13.5939C13.8465 25.0056 14.0645 24.6209 14.2452 24.22H32.2003ZM29.8745 11.0414H31.6421C31.6199 11.1664 31.5514 11.2796 31.449 11.3607C31.3466 11.4418 31.2171 11.4854 31.0839 11.4837H30.1536L29.8745 11.0414ZM28.2362 26.8667C28.1509 26.7694 28.105 26.6462 28.1069 26.5196V25.3698H31.7351V26.5196C31.737 26.6462 31.6911 26.7694 31.6058 26.8667C31.5205 26.964 31.4013 27.0291 31.2699 27.0502H28.572C28.4406 27.0291 28.3215 26.964 28.2362 26.8667Z"/>
<path fill-rule="evenodd" clip-rule="evenodd" d="M21.6877 18.4709H15.9613C15.9148 18.6478 15.9044 18.8247 15.894 19.0016C15.8836 19.1785 15.8732 19.3554 15.8267 19.5323H22.0598C22.275 19.5339 22.4861 19.4762 22.6677 19.3664C22.8492 19.2566 22.9935 19.0992 23.0832 18.9132L23.2277 18.4709L23.3623 17.8518V17.3211C23.3623 17.2327 23.2884 17.0663 23.1762 16.9674C22.9229 16.744 22.5914 16.6179 22.2459 16.6136H15.8267V17.8518H21.9668L21.6877 18.4709ZM25.3159 21.3897L25.502 22.1857H15.0825C14.9894 22.3626 14.9196 22.5616 14.8499 22.7606C14.7801 22.9596 14.7103 23.1586 14.6173 23.3355H25.7811C25.94 23.3424 26.0984 23.3141 26.2437 23.2527C26.389 23.1913 26.5173 23.0985 26.6184 22.9817C26.7143 22.873 26.7813 22.7439 26.8136 22.6053C26.846 22.4668 26.8429 22.3228 26.8044 22.1857L26.6184 20.9474C26.5416 20.7214 26.393 20.5235 26.1931 20.3809C25.9932 20.2384 25.7518 20.1582 25.502 20.1514H15.5476L15.2685 21.3897H25.3159Z"/>
<path fill-rule="evenodd" clip-rule="evenodd" d="M27.495 13.6138V12.7907H6.6434V13.5505L27.495 13.6138Z"/>
</mask>
<path fill-rule="evenodd" clip-rule="evenodd" d="M9.67528 17.1442C9.58225 16.9674 9.30316 16.7905 9.30316 16.7905L4.65158 15.3753C4.18197 15.2284 3.67125 15.2563 3.22238 15.4533C2.77351 15.6502 2.41987 16.0016 2.23276 16.4367C2.10619 16.7765 2.09182 17.1449 2.19158 17.4926C2.29134 17.8404 2.50046 18.1509 2.79095 18.3825C3.13448 18.7158 3.69564 18.9065 4.18642 18.9132H7.90768C8.21209 18.9274 8.51552 18.8703 8.79129 18.7469C9.06705 18.6236 9.30672 18.4377 9.48922 18.2056C9.68071 17.9284 9.69305 17.3825 9.67528 17.1442ZM3.60811 17.286C3.6241 17.3924 3.66259 17.4946 3.72126 17.5865C3.77894 17.6484 3.85103 17.6966 3.93179 17.7273C4.01256 17.758 4.09975 17.7704 4.18642 17.7634H8.09375L4.37248 16.6136C4.2245 16.5807 4.06909 16.5981 3.93317 16.6627C3.79725 16.7273 3.68938 16.8351 3.62823 16.9674C3.59897 17.0712 3.59212 17.1796 3.60811 17.286Z" stroke="white" stroke-width="3.41539" shape-rendering="crispEdges" mask="url(#path-1-inside-1_3736_1868)"/>
<path fill-rule="evenodd" clip-rule="evenodd" d="M1.95366 24.22C1.80562 24.22 1.66364 24.164 1.55896 24.0645C1.45428 23.965 1.39547 23.83 1.39547 23.6893V15.9944C1.39547 15.7219 1.47338 15.4545 1.62085 15.2209C1.76833 14.9872 1.97984 14.796 2.23276 14.6677L4.09339 13.7833L4.37248 13.6064L7.72162 8.12271C7.91836 7.84972 8.18218 7.62648 8.4902 7.47236C8.79822 7.31823 9.14114 7.23787 9.48922 7.23825H17.0713V6H9.48922C8.91633 6.00966 8.35449 6.15157 7.8521 6.4135C7.3497 6.67543 6.9218 7.04953 6.60524 7.50359L5.0237 9.98009H2.41882C2.12274 9.98009 1.83878 10.0919 1.62942 10.291C1.42006 10.49 1.30244 10.76 1.30244 11.0414C1.2898 11.2695 1.32617 11.4975 1.40932 11.7117C1.49247 11.9259 1.62067 12.1218 1.78608 12.2873C1.9515 12.4529 2.15066 12.5846 2.37141 12.6745C2.59216 12.7645 2.82988 12.8107 3.07004 12.8104H3.16307L1.58154 13.5179C1.10769 13.757 0.710585 14.1133 0.432195 14.5492C0.153806 14.9851 0.00447876 15.4845 0 15.9944V23.6893C0.0144065 24.0038 0.116844 24.309 0.296739 24.5733C0.476634 24.8376 0.727468 25.0515 1.02335 25.1929V26.5196C1.02335 26.9653 1.20958 27.3927 1.54107 27.7078C1.87255 28.023 2.32215 28.2 2.79095 28.2H5.58189C6.05069 28.2 6.50029 28.023 6.83178 27.7078C7.16327 27.3927 7.34949 26.9653 7.34949 26.5196V25.3698H20.56C20.3074 25.0056 20.0895 24.6209 19.9088 24.22H1.95366ZM4.27945 11.0414H2.51185C2.53405 11.1664 2.60252 11.2796 2.7049 11.3607C2.80727 11.4418 2.93679 11.4854 3.07004 11.4837H4.00036L4.27945 11.0414ZM5.91773 26.8667C6.00304 26.7694 6.04891 26.6462 6.04705 26.5196V25.3698H2.41882V26.5196C2.41696 26.6462 2.46283 26.7694 2.54814 26.8667C2.63345 26.964 2.75258 27.0291 2.88398 27.0502H5.58189C5.71329 27.0291 5.83242 26.964 5.91773 26.8667Z" stroke="white" stroke-width="3.41539" shape-rendering="crispEdges" mask="url(#path-1-inside-1_3736_1868)"/>
<path fill-rule="evenodd" clip-rule="evenodd" d="M12.4662 18.4709H18.1926C18.2391 18.6478 18.2495 18.8247 18.2599 19.0016C18.2703 19.1785 18.2807 19.3554 18.3272 19.5323H12.0941C11.8789 19.5339 11.6678 19.4762 11.4863 19.3664C11.3047 19.2566 11.1604 19.0992 11.0708 18.9132L10.9262 18.4709L10.7917 17.8518L10.7917 17.3211C10.7917 17.2327 10.8655 17.0663 10.9777 16.9674C11.2311 16.744 11.5626 16.6179 11.908 16.6136H18.3272V17.8518H12.1871L12.4662 18.4709ZM8.838 21.3897L8.65194 22.1857H19.0715C19.1645 22.3626 19.2343 22.5616 19.304 22.7606C19.3738 22.9596 19.4436 23.1586 19.5366 23.3355H8.37284C8.21396 23.3424 8.05556 23.3141 7.91022 23.2527C7.76488 23.1913 7.6366 23.0985 7.53556 22.9817C7.43964 22.873 7.37266 22.7439 7.34028 22.6053C7.30789 22.4668 7.31105 22.3228 7.34949 22.1857L7.53556 20.9474C7.61234 20.7214 7.7609 20.5235 7.96081 20.3809C8.16071 20.2384 8.40215 20.1582 8.65194 20.1514H18.6063L18.8854 21.3897H8.838Z" stroke="white" stroke-width="3.41539" shape-rendering="crispEdges" mask="url(#path-1-inside-1_3736_1868)"/>
<path fill-rule="evenodd" clip-rule="evenodd" d="M24.4786 17.1442C24.5717 16.9674 24.8508 16.7905 24.8508 16.7905L29.5023 15.3753C29.972 15.2284 30.4827 15.2563 30.9315 15.4533C31.3804 15.6502 31.7341 16.0016 31.9212 16.4367C32.0477 16.7765 32.0621 17.1449 31.9623 17.4926C31.8626 17.8404 31.6535 18.1509 31.363 18.3825C31.0194 18.7158 30.4583 18.9065 29.9675 18.9132H26.2462C25.9418 18.9274 25.6384 18.8703 25.3626 18.7469C25.0869 18.6236 24.8472 18.4377 24.6647 18.2056C24.4732 17.9284 24.4609 17.3825 24.4786 17.1442ZM30.5458 17.286C30.5298 17.3924 30.4913 17.4946 30.4327 17.5865C30.375 17.6484 30.3029 17.6966 30.2221 17.7273C30.1414 17.758 30.0542 17.7704 29.9675 17.7634H26.0602L29.7814 16.6136C29.9294 16.5807 30.0848 16.5981 30.2207 16.6627C30.3567 16.7273 30.4645 16.8351 30.5257 16.9674C30.555 17.0712 30.5618 17.1796 30.5458 17.286Z" stroke="white" stroke-width="3.41539" shape-rendering="crispEdges" mask="url(#path-1-inside-1_3736_1868)"/>
<path fill-rule="evenodd" clip-rule="evenodd" d="M32.2003 24.22C32.3483 24.22 32.4903 24.164 32.595 24.0645C32.6996 23.965 32.7584 23.83 32.7584 23.6893V15.9944C32.7584 15.7219 32.6805 15.4545 32.5331 15.2209C32.3856 14.9872 32.1741 14.796 31.9212 14.6677L30.0605 13.7833L29.7814 13.6064L26.4323 8.12271C26.2356 7.84972 25.9717 7.62648 25.6637 7.47236C25.3557 7.31823 25.0128 7.23787 24.6647 7.23825H17.0826V6H24.6647C25.2376 6.00966 25.7994 6.15157 26.3018 6.4135C26.8042 6.67543 27.2321 7.04953 27.5487 7.50359L29.1302 9.98009H31.7351C32.0312 9.98009 32.3151 10.0919 32.5245 10.291C32.7339 10.49 32.8515 10.76 32.8515 11.0414C32.8641 11.2695 32.8278 11.4975 32.7446 11.7117C32.6614 11.9259 32.5333 12.1218 32.3678 12.2873C32.2024 12.4529 32.0033 12.5846 31.7825 12.6745C31.5618 12.7645 31.324 12.8107 31.0839 12.8104H30.9908L32.5724 13.5179C33.0462 13.757 33.4433 14.1133 33.7217 14.5492C34.0001 14.9851 34.1494 15.4845 34.1539 15.9944V23.6893C34.1395 24.0038 34.0371 24.309 33.8572 24.5733C33.6773 24.8376 33.4265 25.0515 33.1306 25.1929V26.5196C33.1306 26.9653 32.9443 27.3927 32.6129 27.7078C32.2814 28.023 31.8318 28.2 31.363 28.2H28.572C28.1032 28.2 27.6536 28.023 27.3221 27.7078C26.9907 27.3927 26.8044 26.9653 26.8044 26.5196V25.3698H13.5939C13.8465 25.0056 14.0645 24.6209 14.2452 24.22H32.2003ZM29.8745 11.0414H31.6421C31.6199 11.1664 31.5514 11.2796 31.449 11.3607C31.3466 11.4418 31.2171 11.4854 31.0839 11.4837H30.1536L29.8745 11.0414ZM28.2362 26.8667C28.1509 26.7694 28.105 26.6462 28.1069 26.5196V25.3698H31.7351V26.5196C31.737 26.6462 31.6911 26.7694 31.6058 26.8667C31.5205 26.964 31.4013 27.0291 31.2699 27.0502H28.572C28.4406 27.0291 28.3215 26.964 28.2362 26.8667Z" stroke="white" stroke-width="3.41539" shape-rendering="crispEdges" mask="url(#path-1-inside-1_3736_1868)"/>
<path fill-rule="evenodd" clip-rule="evenodd" d="M21.6877 18.4709H15.9613C15.9148 18.6478 15.9044 18.8247 15.894 19.0016C15.8836 19.1785 15.8732 19.3554 15.8267 19.5323H22.0598C22.275 19.5339 22.4861 19.4762 22.6677 19.3664C22.8492 19.2566 22.9935 19.0992 23.0832 18.9132L23.2277 18.4709L23.3623 17.8518V17.3211C23.3623 17.2327 23.2884 17.0663 23.1762 16.9674C22.9229 16.744 22.5914 16.6179 22.2459 16.6136H15.8267V17.8518H21.9668L21.6877 18.4709ZM25.3159 21.3897L25.502 22.1857H15.0825C14.9894 22.3626 14.9196 22.5616 14.8499 22.7606C14.7801 22.9596 14.7103 23.1586 14.6173 23.3355H25.7811C25.94 23.3424 26.0984 23.3141 26.2437 23.2527C26.389 23.1913 26.5173 23.0985 26.6184 22.9817C26.7143 22.873 26.7813 22.7439 26.8136 22.6053C26.846 22.4668 26.8429 22.3228 26.8044 22.1857L26.6184 20.9474C26.5416 20.7214 26.393 20.5235 26.1931 20.3809C25.9932 20.2384 25.7518 20.1582 25.502 20.1514H15.5476L15.2685 21.3897H25.3159Z" stroke="white" stroke-width="3.41539" shape-rendering="crispEdges" mask="url(#path-1-inside-1_3736_1868)"/>
<path fill-rule="evenodd" clip-rule="evenodd" d="M27.495 13.6138V12.7907H6.6434V13.5505L27.495 13.6138Z" stroke="white" stroke-width="3.41539" shape-rendering="crispEdges" mask="url(#path-1-inside-1_3736_1868)"/>
</g>
</g>
<defs>
<filter id="filter0_di_3736_1868" x="-1.13846" y="5.43077" width="36.4307" height="24.477" filterUnits="userSpaceOnUse" color-interpolation-filters="sRGB">
<feFlood flood-opacity="0" result="BackgroundImageFix"/>
<feColorMatrix in="SourceAlpha" type="matrix" values="0 0 0 0 0 0 0 0 0 0 0 0 0 0 0 0 0 0 127 0" result="hardAlpha"/>
<feOffset dy="0.569232"/>
<feGaussianBlur stdDeviation="0.569232"/>
<feComposite in2="hardAlpha" operator="out"/>
<feColorMatrix type="matrix" values="0 0 0 0 1 0 0 0 0 1 0 0 0 0 1 0 0 0 0.5 0"/>
<feBlend mode="normal" in2="BackgroundImageFix" result="effect1_dropShadow_3736_1868"/>
<feBlend mode="normal" in="SourceGraphic" in2="effect1_dropShadow_3736_1868" result="shape"/>
<feColorMatrix in="SourceAlpha" type="matrix" values="0 0 0 0 0 0 0 0 0 0 0 0 0 0 0 0 0 0 127 0" result="hardAlpha"/>
<feOffset dy="0.653861"/>
<feGaussianBlur stdDeviation="0.32693"/>
<feComposite in2="hardAlpha" operator="arithmetic" k2="-1" k3="1"/>
<feColorMatrix type="matrix" values="0 0 0 0 0 0 0 0 0 0 0 0 0 0 0 0 0 0 0.3 0"/>
<feBlend mode="normal" in2="shape" result="effect2_innerShadow_3736_1868"/>
</filter>
<clipPath id="clip0_3736_1868">
<rect width="34" height="34" fill="white"/>
</clipPath>
</defs>
</svg>
