<svg width="75" height="54" viewBox="0 0 75 54" fill="none" xmlns="http://www.w3.org/2000/svg">
<g filter="url(#filter0_di_3813_8351)">
<path d="M30.9782 42.7321C30.7798 42.7321 30.4932 42.688 30.3536 42.6513L30.4418 41.9092C30.5079 41.9312 30.6255 41.9533 30.7357 41.9533C31.2574 41.9533 31.7423 41.6226 31.7423 38.544V37.53H35.2692V42.6733H34.3654V38.3456H32.5873V38.8085C32.5873 42.0782 31.9921 42.7321 30.9782 42.7321ZM36.3761 42.6733V37.53H40.1895V38.3383H37.2798V39.6755H39.8588V40.4838H37.2798V41.8651H40.2262V42.6733H36.3761ZM42.3417 42.6733V38.3677H40.7106V37.53H44.884V38.3677H43.2528V42.6733H42.3417Z" fill="white"/>
</g>
<g filter="url(#filter1_di_3813_8351)">
<path d="M22.0278 30.0005V26.5819L28.5567 21.2299C30.9945 19.2124 31.9472 18.1476 31.9472 16.5224C31.9472 14.8691 30.8544 13.9725 29.3133 13.9725C27.8001 13.9725 26.7634 14.8131 25.3063 16.6065L22.28 14.1686C24.2135 11.5346 26.0909 10.1056 29.5935 10.1056C33.6565 10.1056 36.3465 12.4874 36.3465 16.2142C36.3465 19.4926 34.6653 21.1178 31.1907 23.8078L27.9963 26.2737H36.5427V30.0005H22.0278ZM45.819 30.3367C42.6806 30.3367 40.3829 29.2159 38.4775 27.3945L41.0834 24.2842C42.5685 25.6292 44.0256 26.4138 45.7629 26.4138C47.7804 26.4138 49.0414 25.4331 49.0414 23.6397C49.0414 21.9585 47.6123 20.9777 45.5668 20.9777C44.3338 20.9777 43.213 21.314 42.2883 21.7063L39.7944 20.053L40.3549 10.3858H52.4039V14.1686H44.0536L43.8295 17.5592C44.6141 17.363 45.3146 17.2229 46.4074 17.2229C50.2183 17.2229 53.2725 19.0723 53.2725 23.5557C53.2725 27.7028 50.3303 30.3367 45.819 30.3367Z" fill="white"/>
</g>
<g filter="url(#filter2_di_3813_8351)">
<path d="M27.4915 50.9999C18.1746 49.0334 11.459 43.9329 7.91143 35.3343C4.13531 26.172 6.52167 16.4859 12.1767 10.3022C12.067 10.4532 11.9664 10.6085 11.8476 10.7595C9.29204 14.0178 7.61428 17.6445 6.91483 21.6974C4.63361 34.8727 13.4705 46.8183 25.3428 49.6726C25.9554 49.8191 26.5543 50.0056 27.1715 50.1166C27.688 50.2098 27.8069 50.4229 27.4915 50.9999Z" fill="white"/>
<path d="M10.7493 47.9428C13.7528 46.8513 16.6585 46.1717 19.4991 48.4371C19.1265 49.2557 18.4979 49.7088 17.7901 50.0383C16.9239 50.445 16.0252 50.4914 15.0986 50.3369C13.7202 50.1052 11.5781 48.9725 10.7493 47.9428Z" fill="white"/>
<path d="M6.66724 43.0581C9.64555 42.3788 13.3085 43.5171 14.2504 45.4127C13.5527 46.17 12.6675 46.4317 11.7038 46.3261C9.64119 46.1058 8.0452 44.995 6.76753 43.3243C6.71956 43.2646 6.71084 43.1774 6.66724 43.0581Z" fill="white"/>
<path d="M3.75073 37.0689C6.25712 36.8101 10.1544 38.83 10.7506 40.6971C8.52868 42.0593 4.37846 39.9036 3.75073 37.0689Z" fill="white"/>
<path d="M2 30.6512C4.50868 31.6576 6.63006 32.8846 7.68635 35.4764C7.99884 36.2347 7.82719 36.4507 7.03057 36.4645C5.91267 36.4874 4.98401 35.9773 4.2138 35.2007C3.03428 34.0197 2.33889 32.5446 2 30.6512Z" fill="white"/>
<path d="M6.06635 30.6483C5.24649 30.6787 4.53786 30.4225 3.96108 29.8839C2.36255 28.3943 2.00412 26.4225 2 24.2554C4.04347 25.3368 6.30118 28.1337 6.06635 30.6483Z" fill="white"/>
<path d="M2.72987 17.8606C5.13069 19.4424 6.58661 23.0273 5.92132 25.4187C5.21747 25.3673 4.63896 25.049 4.15204 24.5717C3.18304 23.617 2.6672 22.4282 2.59488 21.1132C2.54185 20.0836 2.67684 19.0399 2.72987 17.8606Z" fill="white"/>
<path d="M18.4932 40.5359C20.3304 41.8576 21.2146 45.0114 20.3121 46.9312C17.8793 46.7054 16.9813 43.6018 18.4932 40.5359Z" fill="white"/>
<path d="M5.36366 12.6278C6.72604 14.7212 7.65794 16.8333 7.07136 19.3285C7.03079 19.5164 6.97055 19.6996 6.8916 19.8752C6.7355 20.207 6.54628 20.2818 6.18676 20.0575C5.06091 19.3566 4.58786 18.3005 4.38918 17.0669C4.17158 15.7071 4.61151 13.6091 5.36366 12.6278Z" fill="white"/>
<path d="M15.4004 37.0464C16.8831 38.7849 16.9907 42.0788 15.6255 44.0231C13.4138 43.2271 12.7336 39.6038 15.4004 37.0464Z" fill="white"/>
<path d="M8.56011 7.97632C9.93602 10.6653 10.0084 13.6473 8.26527 14.9531C7.60835 14.5308 7.11178 14.0395 6.88418 13.3371C6.23761 11.316 7.1066 9.65263 8.56011 7.97632Z" fill="white"/>
<path d="M11.8894 39.9532C9.88512 38.4326 10.656 34.633 13.1662 33.5579C14.0479 35.1256 13.8456 38.6724 11.8894 39.9532Z" fill="white"/>
<path d="M7.58848 30.6509C6.21918 27.8374 9.31662 25.0148 11.3092 24.8369C11.583 26.8798 9.46771 30.5369 7.58848 30.6509Z" fill="white"/>
<path d="M11.7905 29.4888C12.3132 31.8467 11.1211 34.4905 9.20108 35.3027C7.46179 33.9062 8.72717 30.6491 11.7905 29.4888Z" fill="white"/>
<path d="M10.8556 10.8831C10.2824 10.2713 10.1325 9.44485 10.17 8.57732C10.2486 6.74182 10.9568 5.28072 12.0433 4.06161C12.1033 3.99769 12.1857 3.96116 12.2606 3.90637C12.8451 6.15281 12.3393 9.90144 10.8556 10.8831Z" fill="white"/>
<path d="M17.1492 1C17.3295 2.99425 16.198 6.84521 14.1649 7.39535C13.5022 6.52888 13.5969 5.52947 13.9034 4.6034C14.4444 2.96216 15.5533 1.77478 17.1492 1Z" fill="white"/>
<path d="M7.36181 25.4144C6.66143 22.9661 9.38055 20.6367 11.9166 20.7732C11.8204 22.7723 9.09673 25.5421 7.36181 25.4144Z" fill="white"/>
<path d="M7.86286 20.1808C7.50333 18.1166 10.2275 16.3462 13.0807 16.7573C12.924 18.3642 9.99701 20.2983 7.86286 20.1808Z" fill="white"/>
<path d="M17.7504 9.874C16.1643 11.7151 13.6475 12.6332 11.9172 11.6411C12.1182 10.57 12.7868 9.95791 13.6213 9.57784C15.0064 8.93616 16.3741 8.97071 17.7504 9.874Z" fill="white"/>
<path d="M14.8292 12.9947C13.5694 14.9029 12.1599 16.2517 10.1059 16.1053C9.61947 16.0687 9.4781 15.8126 9.64857 15.3054C9.81904 14.7983 9.97288 14.3696 10.2307 14.0141C11.1787 12.7228 13.4239 12.221 14.8292 12.9947Z" fill="white"/>
<path d="M22.4152 2.384C21.5921 4.0836 19.3788 5.80636 17.6559 5.63965C17.1996 5.59334 17.0844 5.40809 17.2166 4.94498C17.754 3.07403 20.7648 1.58282 22.4152 2.384Z" fill="white"/>
<path d="M20.6667 7.28539C19.7355 8.10033 18.6694 8.3466 17.5642 8.49884C16.7417 8.61526 15.9411 8.58839 15.1839 8.16749C14.788 7.94361 14.714 7.67047 15.0316 7.35256C15.3493 7.03464 15.6017 6.75255 15.9541 6.60927C17.612 5.92418 19.1655 6.18836 20.6667 7.28539Z" fill="white"/>
<path d="M62.1902 9.72095C62.836 10.5946 63.5219 11.446 64.1231 12.3554C65.6641 14.6866 66.8622 17.1784 67.5347 19.902C71.0353 34.0992 62.5777 46.3664 51.1316 50.1597C50.1474 50.4851 49.1408 50.7437 48.1298 50.9844C47.8982 51.0379 47.4529 50.9487 47.3861 50.8016C47.1767 50.3113 47.6533 50.3158 47.9428 50.2444C50.8911 49.5535 53.7682 48.6575 56.3202 46.9592C62.6267 42.7602 66.586 36.9788 67.646 29.4233C68.6214 22.4695 66.9334 16.1443 62.6178 10.5634L62.061 9.8413L62.1902 9.72095Z" fill="white"/>
<path d="M64.2488 47.9905C63.7966 48.3359 63.4874 48.5989 63.1551 48.8257C61.5768 49.9085 59.9293 50.6871 58.0095 50.3313C56.865 50.1199 55.8498 49.3465 55.499 48.4029C58.2633 46.1703 61.1476 46.8509 64.2488 47.9905Z" fill="white"/>
<path d="M60.749 45.4066C61.8162 43.3371 65.4792 42.4337 68.3322 43.0513C68.2668 43.1849 68.2276 43.3278 68.1492 43.4292C66.9166 44.9825 65.4008 46.0426 63.4713 46.3099C62.4434 46.4528 61.5025 46.2085 60.749 45.4066Z" fill="white"/>
<path d="M64.2502 40.7362C64.713 38.9019 68.7913 36.769 71.2501 37.0761C70.7284 39.8617 66.5956 42.0202 64.2502 40.7362Z" fill="white"/>
<path d="M72.9999 30.6512C72.9909 33.0416 70.8046 35.9745 68.7175 36.4329C68.2306 36.5405 67.6852 36.3487 67.1667 36.2973C67.2885 35.8342 67.3245 35.3243 67.5454 34.9174C68.7445 32.7001 70.719 31.526 72.9999 30.6512Z" fill="white"/>
<path d="M68.3481 30.6478C68.1161 28.1249 70.5523 25.414 72.8494 24.2554C73.6568 27.0581 71.0674 30.7702 68.3481 30.6478Z" fill="white"/>
<path d="M69.0961 25.4189C68.3636 23.3113 70.0176 19.4451 72.0496 18.4421C73.2452 21.915 71.3502 25.2907 69.0961 25.4189Z" fill="white"/>
<path d="M54.6485 46.9312C53.8228 44.8581 54.6891 41.784 56.4172 40.5359C58.0821 43.0614 57.1256 46.5794 54.6485 46.9312Z" fill="white"/>
<path d="M69.7337 12.6278C69.9914 13.3443 70.2348 13.8954 70.3971 14.4695C70.736 15.6912 70.7837 16.9221 70.3589 18.1392C70.0869 18.9154 69.5952 19.5308 68.8841 20.0131C68.3972 20.3346 68.1395 20.1876 68.0345 19.7375C67.8913 19.1037 67.7529 18.4561 67.7481 17.8131C67.729 15.9347 68.5595 14.3318 69.7337 12.6278Z" fill="white"/>
<path d="M59.3987 44.0231C58.004 42.0643 58.1169 38.649 59.605 37.0464C61.9868 39.2791 61.8984 42.8451 59.3987 44.0231Z" fill="white"/>
<path d="M66.6896 14.9531C65.0013 13.5932 65.0891 10.4879 66.3798 7.97632C68.3572 9.3318 69.4105 13.571 66.6896 14.9531Z" fill="white"/>
<path d="M63.1451 39.9532C61.4373 38.8092 60.7819 35.4846 61.8583 33.5579C64.3076 34.4524 65.116 38.3834 63.1451 39.9532Z" fill="white"/>
<path d="M66.962 30.6509C65.3574 30.5277 63.5088 27.0502 63.6783 24.8369C65.9405 24.9145 67.8016 28.182 66.962 30.6509Z" fill="white"/>
<path d="M65.8378 35.3023C63.932 34.5131 62.6144 31.365 63.2465 28.907C64.671 29.6241 65.7163 30.6073 66.2851 31.9784C66.8199 33.2547 66.6254 34.4364 65.8378 35.3023Z" fill="white"/>
<path d="M62.2197 3.90637C64.6408 5.0845 65.7311 9.46108 63.9565 10.8831C61.979 9.79703 61.5307 5.72419 62.2197 3.90637Z" fill="white"/>
<path d="M60.831 7.39535C58.9903 6.53124 57.4571 3.13486 57.9139 1C60.5416 2.03509 62.224 5.67175 60.831 7.39535Z" fill="white"/>
<path d="M63.0864 20.7801C65.7977 20.5708 68.2654 23.0054 67.6609 25.4186C67.1646 25.2435 66.6368 25.1453 66.2127 24.8975C64.5977 23.9493 63.6323 22.5355 63.0864 20.7801Z" fill="white"/>
<path d="M67.1491 20.1658C65.1515 20.4009 62.2833 18.5324 61.9167 16.79C64.6062 16.2651 67.4149 18.0538 67.1491 20.1658Z" fill="white"/>
<path d="M57.2517 9.88816C59.2856 8.35075 62.517 9.31163 63.0849 11.5931C61.5353 12.6722 58.7661 11.7163 57.2517 9.88816Z" fill="white"/>
<path d="M59.5852 13.0032C61.1727 12.2084 63.7378 12.7242 64.748 14.0927C65.1018 14.5716 65.2043 15.2822 65.4184 15.8927C64.9529 15.9717 64.4827 16.1559 64.0264 16.1085C62.127 15.9138 60.7677 14.6874 59.5852 13.0032Z" fill="white"/>
<path d="M52.5845 2.28755C53.0093 2.23619 53.3217 2.14281 53.6299 2.16615C55.196 2.29688 56.6288 2.75443 57.5159 4.38853C57.5808 4.49363 57.6379 4.6045 57.6867 4.72002C57.9824 5.42501 57.845 5.74716 57.1744 5.62577C56.3872 5.48104 55.5875 5.21492 54.8794 4.81339C53.9423 4.28581 53.2342 3.40807 52.5845 2.28755Z" fill="white"/>
<path d="M53.7502 7.32239C55.3758 6.19858 57.0205 5.95388 58.7843 6.54297C59.4326 6.76048 59.9808 7.13207 60.1668 7.82538C59.6376 8.06555 59.1228 8.45979 58.5698 8.51416C56.8679 8.69089 55.2614 8.3465 53.7502 7.32239Z" fill="white"/>
</g>
<defs>
<filter id="filter0_di_3813_8351" x="28.5675" y="36.637" width="18.1026" height="8.77425" filterUnits="userSpaceOnUse" color-interpolation-filters="sRGB">
<feFlood flood-opacity="0" result="BackgroundImageFix"/>
<feColorMatrix in="SourceAlpha" type="matrix" values="0 0 0 0 0 0 0 0 0 0 0 0 0 0 0 0 0 0 127 0" result="hardAlpha"/>
<feOffset dy="0.893024"/>
<feGaussianBlur stdDeviation="0.893024"/>
<feComposite in2="hardAlpha" operator="out"/>
<feColorMatrix type="matrix" values="0 0 0 0 1 0 0 0 0 1 0 0 0 0 1 0 0 0 0.5 0"/>
<feBlend mode="normal" in2="BackgroundImageFix" result="effect1_dropShadow_3813_8351"/>
<feBlend mode="normal" in="SourceGraphic" in2="effect1_dropShadow_3813_8351" result="shape"/>
<feColorMatrix in="SourceAlpha" type="matrix" values="0 0 0 0 0 0 0 0 0 0 0 0 0 0 0 0 0 0 127 0" result="hardAlpha"/>
<feOffset dy="1.02579"/>
<feGaussianBlur stdDeviation="0.512896"/>
<feComposite in2="hardAlpha" operator="arithmetic" k2="-1" k3="1"/>
<feColorMatrix type="matrix" values="0 0 0 0 0 0 0 0 0 0 0 0 0 0 0 0 0 0 0.3 0"/>
<feBlend mode="normal" in2="shape" result="effect2_innerShadow_3813_8351"/>
</filter>
<filter id="filter1_di_3813_8351" x="20.2418" y="9.21257" width="34.8167" height="23.8033" filterUnits="userSpaceOnUse" color-interpolation-filters="sRGB">
<feFlood flood-opacity="0" result="BackgroundImageFix"/>
<feColorMatrix in="SourceAlpha" type="matrix" values="0 0 0 0 0 0 0 0 0 0 0 0 0 0 0 0 0 0 127 0" result="hardAlpha"/>
<feOffset dy="0.893024"/>
<feGaussianBlur stdDeviation="0.893024"/>
<feComposite in2="hardAlpha" operator="out"/>
<feColorMatrix type="matrix" values="0 0 0 0 1 0 0 0 0 1 0 0 0 0 1 0 0 0 0.5 0"/>
<feBlend mode="normal" in2="BackgroundImageFix" result="effect1_dropShadow_3813_8351"/>
<feBlend mode="normal" in="SourceGraphic" in2="effect1_dropShadow_3813_8351" result="shape"/>
<feColorMatrix in="SourceAlpha" type="matrix" values="0 0 0 0 0 0 0 0 0 0 0 0 0 0 0 0 0 0 127 0" result="hardAlpha"/>
<feOffset dy="1.02579"/>
<feGaussianBlur stdDeviation="0.512896"/>
<feComposite in2="hardAlpha" operator="arithmetic" k2="-1" k3="1"/>
<feColorMatrix type="matrix" values="0 0 0 0 0 0 0 0 0 0 0 0 0 0 0 0 0 0 0.3 0"/>
<feBlend mode="normal" in2="shape" result="effect2_innerShadow_3813_8351"/>
</filter>
<filter id="filter2_di_3813_8351" x="0.213951" y="0.106976" width="74.5721" height="53.5721" filterUnits="userSpaceOnUse" color-interpolation-filters="sRGB">
<feFlood flood-opacity="0" result="BackgroundImageFix"/>
<feColorMatrix in="SourceAlpha" type="matrix" values="0 0 0 0 0 0 0 0 0 0 0 0 0 0 0 0 0 0 127 0" result="hardAlpha"/>
<feOffset dy="0.893024"/>
<feGaussianBlur stdDeviation="0.893024"/>
<feComposite in2="hardAlpha" operator="out"/>
<feColorMatrix type="matrix" values="0 0 0 0 1 0 0 0 0 1 0 0 0 0 1 0 0 0 0.5 0"/>
<feBlend mode="normal" in2="BackgroundImageFix" result="effect1_dropShadow_3813_8351"/>
<feBlend mode="normal" in="SourceGraphic" in2="effect1_dropShadow_3813_8351" result="shape"/>
<feColorMatrix in="SourceAlpha" type="matrix" values="0 0 0 0 0 0 0 0 0 0 0 0 0 0 0 0 0 0 127 0" result="hardAlpha"/>
<feOffset dy="1.02579"/>
<feGaussianBlur stdDeviation="0.512896"/>
<feComposite in2="hardAlpha" operator="arithmetic" k2="-1" k3="1"/>
<feColorMatrix type="matrix" values="0 0 0 0 0 0 0 0 0 0 0 0 0 0 0 0 0 0 0.3 0"/>
<feBlend mode="normal" in2="shape" result="effect2_innerShadow_3813_8351"/>
</filter>
</defs>
</svg>
