<svg width="64" height="60" viewBox="0 0 64 60" fill="none" xmlns="http://www.w3.org/2000/svg">
<g filter="url(#filter0_di_3813_8340)">
<path d="M31.3778 49H6.8C6.05739 49 5.3452 48.705 4.8201 48.1799C4.295 47.6548 4 46.9426 4 46.2V9.8C4 9.05739 4.295 8.3452 4.8201 7.8201C5.3452 7.295 6.05739 7 6.8 7H57.2C57.9426 7 58.6548 7.295 59.1799 7.8201C59.705 8.3452 60 9.05739 60 9.8V46.2C60 46.9426 59.705 47.6548 59.1799 48.1799C58.6548 48.705 57.9426 49 57.2 49H49.4222M15.2 18.2H48.8M15.2 28H23.6M15.2 37.8H20.8" stroke="white" stroke-width="3" stroke-linejoin="round" shape-rendering="crispEdges"/>
</g>
<g filter="url(#filter1_di_3813_8340)">
<path d="M38.875 51.8628L43.25 54V42.75C43.25 42.75 42.0031 44.3828 38.875 44.3828C35.7469 44.3828 34.5 42.7799 34.5 42.7799V54L38.875 51.8628Z" fill="white"/>
</g>
<g filter="url(#filter2_di_3813_8340)">
<path d="M39 42C40.8565 42 42.637 41.2625 43.9497 39.9497C45.2625 38.637 46 36.8565 46 35C46 33.1435 45.2625 31.363 43.9497 30.0503C42.637 28.7375 40.8565 28 39 28C37.1435 28 35.363 28.7375 34.0503 30.0503C32.7375 31.363 32 33.1435 32 35C32 36.8565 32.7375 38.637 34.0503 39.9497C35.363 41.2625 37.1435 42 39 42Z" fill="white"/>
</g>
<defs>
<filter id="filter0_di_3813_8340" x="0.5" y="4.5" width="63" height="49" filterUnits="userSpaceOnUse" color-interpolation-filters="sRGB">
<feFlood flood-opacity="0" result="BackgroundImageFix"/>
<feColorMatrix in="SourceAlpha" type="matrix" values="0 0 0 0 0 0 0 0 0 0 0 0 0 0 0 0 0 0 127 0" result="hardAlpha"/>
<feOffset dy="1"/>
<feGaussianBlur stdDeviation="1"/>
<feComposite in2="hardAlpha" operator="out"/>
<feColorMatrix type="matrix" values="0 0 0 0 1 0 0 0 0 1 0 0 0 0 1 0 0 0 0.5 0"/>
<feBlend mode="normal" in2="BackgroundImageFix" result="effect1_dropShadow_3813_8340"/>
<feBlend mode="normal" in="SourceGraphic" in2="effect1_dropShadow_3813_8340" result="shape"/>
<feColorMatrix in="SourceAlpha" type="matrix" values="0 0 0 0 0 0 0 0 0 0 0 0 0 0 0 0 0 0 127 0" result="hardAlpha"/>
<feOffset dy="1.14867"/>
<feGaussianBlur stdDeviation="0.574336"/>
<feComposite in2="hardAlpha" operator="arithmetic" k2="-1" k3="1"/>
<feColorMatrix type="matrix" values="0 0 0 0 0 0 0 0 0 0 0 0 0 0 0 0 0 0 0.3 0"/>
<feBlend mode="normal" in2="shape" result="effect2_innerShadow_3813_8340"/>
</filter>
<filter id="filter1_di_3813_8340" x="32.714" y="41.857" width="12.3221" height="14.8221" filterUnits="userSpaceOnUse" color-interpolation-filters="sRGB">
<feFlood flood-opacity="0" result="BackgroundImageFix"/>
<feColorMatrix in="SourceAlpha" type="matrix" values="0 0 0 0 0 0 0 0 0 0 0 0 0 0 0 0 0 0 127 0" result="hardAlpha"/>
<feOffset dy="0.893024"/>
<feGaussianBlur stdDeviation="0.893024"/>
<feComposite in2="hardAlpha" operator="out"/>
<feColorMatrix type="matrix" values="0 0 0 0 1 0 0 0 0 1 0 0 0 0 1 0 0 0 0.5 0"/>
<feBlend mode="normal" in2="BackgroundImageFix" result="effect1_dropShadow_3813_8340"/>
<feBlend mode="normal" in="SourceGraphic" in2="effect1_dropShadow_3813_8340" result="shape"/>
<feColorMatrix in="SourceAlpha" type="matrix" values="0 0 0 0 0 0 0 0 0 0 0 0 0 0 0 0 0 0 127 0" result="hardAlpha"/>
<feOffset dy="1.02579"/>
<feGaussianBlur stdDeviation="0.512896"/>
<feComposite in2="hardAlpha" operator="arithmetic" k2="-1" k3="1"/>
<feColorMatrix type="matrix" values="0 0 0 0 0 0 0 0 0 0 0 0 0 0 0 0 0 0 0.3 0"/>
<feBlend mode="normal" in2="shape" result="effect2_innerShadow_3813_8340"/>
</filter>
<filter id="filter2_di_3813_8340" x="30.214" y="27.107" width="17.5721" height="17.5721" filterUnits="userSpaceOnUse" color-interpolation-filters="sRGB">
<feFlood flood-opacity="0" result="BackgroundImageFix"/>
<feColorMatrix in="SourceAlpha" type="matrix" values="0 0 0 0 0 0 0 0 0 0 0 0 0 0 0 0 0 0 127 0" result="hardAlpha"/>
<feOffset dy="0.893024"/>
<feGaussianBlur stdDeviation="0.893024"/>
<feComposite in2="hardAlpha" operator="out"/>
<feColorMatrix type="matrix" values="0 0 0 0 1 0 0 0 0 1 0 0 0 0 1 0 0 0 0.5 0"/>
<feBlend mode="normal" in2="BackgroundImageFix" result="effect1_dropShadow_3813_8340"/>
<feBlend mode="normal" in="SourceGraphic" in2="effect1_dropShadow_3813_8340" result="shape"/>
<feColorMatrix in="SourceAlpha" type="matrix" values="0 0 0 0 0 0 0 0 0 0 0 0 0 0 0 0 0 0 127 0" result="hardAlpha"/>
<feOffset dy="1.02579"/>
<feGaussianBlur stdDeviation="0.512896"/>
<feComposite in2="hardAlpha" operator="arithmetic" k2="-1" k3="1"/>
<feColorMatrix type="matrix" values="0 0 0 0 0 0 0 0 0 0 0 0 0 0 0 0 0 0 0.3 0"/>
<feBlend mode="normal" in2="shape" result="effect2_innerShadow_3813_8340"/>
</filter>
</defs>
</svg>
