<svg width="64" height="60" viewBox="0 0 64 60" fill="none" xmlns="http://www.w3.org/2000/svg">
<g filter="url(#filter0_di_3813_8313)">
<mask id="path-1-inside-1_3813_8313" fill="white">
<path fill-rule="evenodd" clip-rule="evenodd" d="M18.9971 29.5777C18.8336 29.2669 18.3433 28.9562 18.3433 28.9562L10.1717 26.4701C9.34668 26.2121 8.44947 26.261 7.66092 26.607C6.87237 26.953 6.25112 27.5704 5.9224 28.3347C5.70006 28.9316 5.67482 29.5788 5.85007 30.1897C6.02532 30.8006 6.39269 31.3461 6.903 31.753C7.5065 32.3385 8.49233 32.6736 9.35451 32.6853H15.8918C16.4266 32.7103 16.9597 32.61 17.4441 32.3932C17.9286 32.1765 18.3496 31.8499 18.6702 31.4422C19.0066 30.9552 19.0283 29.9963 18.9971 29.5777ZM8.33856 29.8267C8.36665 30.0136 8.43427 30.1932 8.53734 30.3546C8.63866 30.4633 8.76531 30.5481 8.90719 30.602C9.04907 30.656 9.20225 30.6777 9.35451 30.6653H16.2187L9.68137 28.6454C9.4214 28.5877 9.14839 28.6182 8.90961 28.7318C8.67083 28.8453 8.48133 29.0346 8.37391 29.2669C8.3225 29.4493 8.31047 29.6397 8.33856 29.8267Z"/>
<path fill-rule="evenodd" clip-rule="evenodd" d="M5.4321 42.008C5.17203 42.008 4.92261 41.9097 4.73871 41.7349C4.55482 41.5601 4.4515 41.323 4.4515 41.0757V27.5578C4.4515 27.079 4.58836 26.6093 4.84744 26.1988C5.10652 25.7882 5.47808 25.4524 5.9224 25.2271L9.19107 23.6733L9.68137 23.3625L15.565 13.7291C15.9106 13.2495 16.3741 12.8573 16.9152 12.5866C17.4563 12.3158 18.0587 12.1746 18.6702 12.1753H31.99V10H18.6702C17.6638 10.017 16.6768 10.2663 15.7942 10.7264C14.9116 11.1866 14.1599 11.8438 13.6038 12.6414L10.8254 16.992H6.24927C5.72913 16.992 5.23029 17.1885 4.86249 17.5381C4.49469 17.8878 4.28807 18.3621 4.28807 18.8566C4.26586 19.2571 4.32975 19.6578 4.47583 20.0341C4.62191 20.4104 4.84712 20.7545 5.13771 21.0453C5.4283 21.3361 5.77817 21.5675 6.16598 21.7255C6.55379 21.8835 6.97139 21.9647 7.3933 21.9641H7.55674L4.77837 23.2072C3.94594 23.6271 3.24832 24.2531 2.75926 25.0189C2.2702 25.7847 2.00787 26.6619 2 27.5578V41.0757C2.02531 41.6282 2.20527 42.1644 2.5213 42.6287C2.83733 43.093 3.27798 43.4688 3.79777 43.7171V46.0478C3.79777 46.8308 4.12493 47.5817 4.70727 48.1353C5.28962 48.689 6.07944 49 6.903 49H11.806C12.6296 49 13.4194 48.689 14.0017 48.1353C14.5841 47.5817 14.9112 46.8308 14.9112 46.0478V44.0279H38.1188C37.6751 43.3882 37.2922 42.7122 36.9748 42.008H5.4321ZM9.51794 18.8566H6.4127C6.4517 19.076 6.57199 19.275 6.75184 19.4175C6.93169 19.56 7.15922 19.6366 7.3933 19.6335H9.02764L9.51794 18.8566ZM12.396 46.6577C12.5459 46.4867 12.6264 46.2704 12.6232 46.0478V44.0279H6.24927V46.0478C6.246 46.2704 6.32658 46.4867 6.47646 46.6577C6.62633 46.8286 6.8356 46.943 7.06644 46.9801H11.806C12.0368 46.943 12.2461 46.8286 12.396 46.6577Z"/>
<path fill-rule="evenodd" clip-rule="evenodd" d="M23.9001 31.9084H33.9599C34.0416 32.2191 34.0599 32.5299 34.0781 32.8406C34.0964 33.1514 34.1147 33.4622 34.1964 33.7729H23.2464C22.8683 33.7756 22.4975 33.6744 22.1785 33.4815C21.8596 33.2885 21.6061 33.012 21.4486 32.6853L21.1946 31.9084L20.9583 30.8207L20.9583 29.8884C20.9583 29.7331 21.0881 29.4407 21.2852 29.2669C21.7302 28.8746 22.3126 28.6531 22.9195 28.6454H34.1964V30.8207H23.4098L23.9001 31.9084ZM17.5262 37.0359L17.1993 38.4343H35.5039C35.6673 38.745 35.7899 39.0946 35.9124 39.4442C36.035 39.7938 36.1576 40.1434 36.321 40.4542H16.709C16.4299 40.4664 16.1516 40.4166 15.8963 40.3087C15.641 40.2008 15.4156 40.0378 15.2381 39.8327C15.0696 39.6416 14.9519 39.4148 14.8951 39.1714C14.8382 38.928 14.8437 38.6752 14.9112 38.4343L15.2381 36.259C15.373 35.8618 15.634 35.5141 15.9852 35.2637C16.3364 35.0133 16.7605 34.8725 17.1993 34.8606H34.6867L35.177 37.0359H17.5262Z"/>
<path fill-rule="evenodd" clip-rule="evenodd" d="M45.0029 29.5777C45.1664 29.2669 45.6567 28.9562 45.6567 28.9562L53.8283 26.4701C54.6533 26.2121 55.5505 26.261 56.3391 26.607C57.1276 26.953 57.7489 27.5704 58.0776 28.3347C58.2999 28.9316 58.3252 29.5788 58.1499 30.1897C57.9747 30.8006 57.6073 31.3461 57.097 31.753C56.4935 32.3385 55.5077 32.6736 54.6455 32.6853H48.1082C47.5734 32.7103 47.0403 32.61 46.5559 32.3932C46.0714 32.1765 45.6504 31.8499 45.3298 31.4422C44.9934 30.9552 44.9717 29.9963 45.0029 29.5777ZM55.6614 29.8267C55.6334 30.0136 55.5657 30.1932 55.4627 30.3546C55.3613 30.4633 55.2347 30.5481 55.0928 30.602C54.9509 30.656 54.7978 30.6777 54.6455 30.6653H47.7813L54.3186 28.6454C54.5786 28.5877 54.8516 28.6182 55.0904 28.7318C55.3292 28.8453 55.5187 29.0346 55.6261 29.2669C55.6775 29.4493 55.6895 29.6397 55.6614 29.8267Z"/>
<path fill-rule="evenodd" clip-rule="evenodd" d="M58.5679 42.008C58.828 42.008 59.0774 41.9097 59.2613 41.7349C59.4452 41.5601 59.5485 41.323 59.5485 41.0757V27.5578C59.5485 27.079 59.4116 26.6093 59.1526 26.1988C58.8935 25.7882 58.5219 25.4524 58.0776 25.2271L54.8089 23.6733L54.3186 23.3625L48.435 13.7291C48.0894 13.2495 47.6259 12.8573 47.0848 12.5866C46.5437 12.3158 45.9413 12.1746 45.3298 12.1753H32.01V10H45.3298C46.3362 10.017 47.3232 10.2663 48.2058 10.7264C49.0884 11.1866 49.8401 11.8438 50.3962 12.6414L53.1746 16.992H57.7507C58.2709 16.992 58.7697 17.1885 59.1375 17.5381C59.5053 17.8878 59.7119 18.3621 59.7119 18.8566C59.7341 19.2571 59.6703 19.6578 59.5242 20.0341C59.3781 20.4104 59.1529 20.7545 58.8623 21.0453C58.5717 21.3361 58.2218 21.5675 57.834 21.7255C57.4462 21.8835 57.0286 21.9647 56.6067 21.9641H56.4433L59.2216 23.2072C60.0541 23.6271 60.7517 24.2531 61.2407 25.0189C61.7298 25.7847 61.9921 26.6619 62 27.5578V41.0757C61.9747 41.6282 61.7947 42.1644 61.4787 42.6287C61.1627 43.093 60.722 43.4688 60.2022 43.7171V46.0478C60.2022 46.8308 59.8751 47.5817 59.2927 48.1353C58.7104 48.689 57.9206 49 57.097 49H52.194C51.3704 49 50.5806 48.689 49.9983 48.1353C49.4159 47.5817 49.0888 46.8308 49.0888 46.0478V44.0279H25.8812C26.3249 43.3882 26.7078 42.7122 27.0252 42.008H58.5679ZM54.4821 18.8566H57.5873C57.5483 19.076 57.428 19.275 57.2482 19.4175C57.0683 19.56 56.8408 19.6366 56.6067 19.6335H54.9724L54.4821 18.8566ZM51.604 46.6577C51.4541 46.4867 51.3736 46.2704 51.3768 46.0478V44.0279H57.7507V46.0478C57.754 46.2704 57.6734 46.4867 57.5235 46.6577C57.3737 46.8286 57.1644 46.943 56.9336 46.9801H52.194C51.9632 46.943 51.7539 46.8286 51.604 46.6577Z"/>
<path fill-rule="evenodd" clip-rule="evenodd" d="M40.0999 31.9084H30.0401C29.9584 32.2191 29.9401 32.5299 29.9219 32.8406C29.9036 33.1514 29.8853 33.4622 29.8036 33.7729H40.7537C41.1317 33.7756 41.5025 33.6744 41.8215 33.4815C42.1404 33.2885 42.3939 33.012 42.5514 32.6853L42.8054 31.9084L43.0417 30.8207V29.8884C43.0417 29.7331 42.9119 29.4407 42.7149 29.2669C42.2698 28.8746 41.6874 28.6531 41.0805 28.6454H29.8036V30.8207H40.5902L40.0999 31.9084ZM46.4738 37.0359L46.8007 38.4343H28.4961C28.3327 38.745 28.2101 39.0946 28.0876 39.4442C27.965 39.7938 27.8424 40.1434 27.679 40.4542H47.291C47.5701 40.4664 47.8484 40.4166 48.1037 40.3087C48.359 40.2008 48.5844 40.0378 48.7619 39.8327C48.9304 39.6416 49.0481 39.4148 49.1049 39.1714C49.1618 38.928 49.1563 38.6752 49.0888 38.4343L48.7619 36.259C48.627 35.8618 48.366 35.5141 48.0148 35.2637C47.6636 35.0133 47.2395 34.8725 46.8007 34.8606H29.3133L28.823 37.0359H46.4738Z"/>
<path fill-rule="evenodd" clip-rule="evenodd" d="M50.302 23.3755V21.9296H13.6708V23.2643L50.302 23.3755Z"/>
</mask>
<path fill-rule="evenodd" clip-rule="evenodd" d="M18.9971 29.5777C18.8336 29.2669 18.3433 28.9562 18.3433 28.9562L10.1717 26.4701C9.34668 26.2121 8.44947 26.261 7.66092 26.607C6.87237 26.953 6.25112 27.5704 5.9224 28.3347C5.70006 28.9316 5.67482 29.5788 5.85007 30.1897C6.02532 30.8006 6.39269 31.3461 6.903 31.753C7.5065 32.3385 8.49233 32.6736 9.35451 32.6853H15.8918C16.4266 32.7103 16.9597 32.61 17.4441 32.3932C17.9286 32.1765 18.3496 31.8499 18.6702 31.4422C19.0066 30.9552 19.0283 29.9963 18.9971 29.5777ZM8.33856 29.8267C8.36665 30.0136 8.43427 30.1932 8.53734 30.3546C8.63866 30.4633 8.76531 30.5481 8.90719 30.602C9.04907 30.656 9.20225 30.6777 9.35451 30.6653H16.2187L9.68137 28.6454C9.4214 28.5877 9.14839 28.6182 8.90961 28.7318C8.67083 28.8453 8.48133 29.0346 8.37391 29.2669C8.3225 29.4493 8.31047 29.6397 8.33856 29.8267Z" stroke="white" stroke-width="6" shape-rendering="crispEdges" mask="url(#path-1-inside-1_3813_8313)"/>
<path fill-rule="evenodd" clip-rule="evenodd" d="M5.4321 42.008C5.17203 42.008 4.92261 41.9097 4.73871 41.7349C4.55482 41.5601 4.4515 41.323 4.4515 41.0757V27.5578C4.4515 27.079 4.58836 26.6093 4.84744 26.1988C5.10652 25.7882 5.47808 25.4524 5.9224 25.2271L9.19107 23.6733L9.68137 23.3625L15.565 13.7291C15.9106 13.2495 16.3741 12.8573 16.9152 12.5866C17.4563 12.3158 18.0587 12.1746 18.6702 12.1753H31.99V10H18.6702C17.6638 10.017 16.6768 10.2663 15.7942 10.7264C14.9116 11.1866 14.1599 11.8438 13.6038 12.6414L10.8254 16.992H6.24927C5.72913 16.992 5.23029 17.1885 4.86249 17.5381C4.49469 17.8878 4.28807 18.3621 4.28807 18.8566C4.26586 19.2571 4.32975 19.6578 4.47583 20.0341C4.62191 20.4104 4.84712 20.7545 5.13771 21.0453C5.4283 21.3361 5.77817 21.5675 6.16598 21.7255C6.55379 21.8835 6.97139 21.9647 7.3933 21.9641H7.55674L4.77837 23.2072C3.94594 23.6271 3.24832 24.2531 2.75926 25.0189C2.2702 25.7847 2.00787 26.6619 2 27.5578V41.0757C2.02531 41.6282 2.20527 42.1644 2.5213 42.6287C2.83733 43.093 3.27798 43.4688 3.79777 43.7171V46.0478C3.79777 46.8308 4.12493 47.5817 4.70727 48.1353C5.28962 48.689 6.07944 49 6.903 49H11.806C12.6296 49 13.4194 48.689 14.0017 48.1353C14.5841 47.5817 14.9112 46.8308 14.9112 46.0478V44.0279H38.1188C37.6751 43.3882 37.2922 42.7122 36.9748 42.008H5.4321ZM9.51794 18.8566H6.4127C6.4517 19.076 6.57199 19.275 6.75184 19.4175C6.93169 19.56 7.15922 19.6366 7.3933 19.6335H9.02764L9.51794 18.8566ZM12.396 46.6577C12.5459 46.4867 12.6264 46.2704 12.6232 46.0478V44.0279H6.24927V46.0478C6.246 46.2704 6.32658 46.4867 6.47646 46.6577C6.62633 46.8286 6.8356 46.943 7.06644 46.9801H11.806C12.0368 46.943 12.2461 46.8286 12.396 46.6577Z" stroke="white" stroke-width="6" shape-rendering="crispEdges" mask="url(#path-1-inside-1_3813_8313)"/>
<path fill-rule="evenodd" clip-rule="evenodd" d="M23.9001 31.9084H33.9599C34.0416 32.2191 34.0599 32.5299 34.0781 32.8406C34.0964 33.1514 34.1147 33.4622 34.1964 33.7729H23.2464C22.8683 33.7756 22.4975 33.6744 22.1785 33.4815C21.8596 33.2885 21.6061 33.012 21.4486 32.6853L21.1946 31.9084L20.9583 30.8207L20.9583 29.8884C20.9583 29.7331 21.0881 29.4407 21.2852 29.2669C21.7302 28.8746 22.3126 28.6531 22.9195 28.6454H34.1964V30.8207H23.4098L23.9001 31.9084ZM17.5262 37.0359L17.1993 38.4343H35.5039C35.6673 38.745 35.7899 39.0946 35.9124 39.4442C36.035 39.7938 36.1576 40.1434 36.321 40.4542H16.709C16.4299 40.4664 16.1516 40.4166 15.8963 40.3087C15.641 40.2008 15.4156 40.0378 15.2381 39.8327C15.0696 39.6416 14.9519 39.4148 14.8951 39.1714C14.8382 38.928 14.8437 38.6752 14.9112 38.4343L15.2381 36.259C15.373 35.8618 15.634 35.5141 15.9852 35.2637C16.3364 35.0133 16.7605 34.8725 17.1993 34.8606H34.6867L35.177 37.0359H17.5262Z" stroke="white" stroke-width="6" shape-rendering="crispEdges" mask="url(#path-1-inside-1_3813_8313)"/>
<path fill-rule="evenodd" clip-rule="evenodd" d="M45.0029 29.5777C45.1664 29.2669 45.6567 28.9562 45.6567 28.9562L53.8283 26.4701C54.6533 26.2121 55.5505 26.261 56.3391 26.607C57.1276 26.953 57.7489 27.5704 58.0776 28.3347C58.2999 28.9316 58.3252 29.5788 58.1499 30.1897C57.9747 30.8006 57.6073 31.3461 57.097 31.753C56.4935 32.3385 55.5077 32.6736 54.6455 32.6853H48.1082C47.5734 32.7103 47.0403 32.61 46.5559 32.3932C46.0714 32.1765 45.6504 31.8499 45.3298 31.4422C44.9934 30.9552 44.9717 29.9963 45.0029 29.5777ZM55.6614 29.8267C55.6334 30.0136 55.5657 30.1932 55.4627 30.3546C55.3613 30.4633 55.2347 30.5481 55.0928 30.602C54.9509 30.656 54.7978 30.6777 54.6455 30.6653H47.7813L54.3186 28.6454C54.5786 28.5877 54.8516 28.6182 55.0904 28.7318C55.3292 28.8453 55.5187 29.0346 55.6261 29.2669C55.6775 29.4493 55.6895 29.6397 55.6614 29.8267Z" stroke="white" stroke-width="6" shape-rendering="crispEdges" mask="url(#path-1-inside-1_3813_8313)"/>
<path fill-rule="evenodd" clip-rule="evenodd" d="M58.5679 42.008C58.828 42.008 59.0774 41.9097 59.2613 41.7349C59.4452 41.5601 59.5485 41.323 59.5485 41.0757V27.5578C59.5485 27.079 59.4116 26.6093 59.1526 26.1988C58.8935 25.7882 58.5219 25.4524 58.0776 25.2271L54.8089 23.6733L54.3186 23.3625L48.435 13.7291C48.0894 13.2495 47.6259 12.8573 47.0848 12.5866C46.5437 12.3158 45.9413 12.1746 45.3298 12.1753H32.01V10H45.3298C46.3362 10.017 47.3232 10.2663 48.2058 10.7264C49.0884 11.1866 49.8401 11.8438 50.3962 12.6414L53.1746 16.992H57.7507C58.2709 16.992 58.7697 17.1885 59.1375 17.5381C59.5053 17.8878 59.7119 18.3621 59.7119 18.8566C59.7341 19.2571 59.6703 19.6578 59.5242 20.0341C59.3781 20.4104 59.1529 20.7545 58.8623 21.0453C58.5717 21.3361 58.2218 21.5675 57.834 21.7255C57.4462 21.8835 57.0286 21.9647 56.6067 21.9641H56.4433L59.2216 23.2072C60.0541 23.6271 60.7517 24.2531 61.2407 25.0189C61.7298 25.7847 61.9921 26.6619 62 27.5578V41.0757C61.9747 41.6282 61.7947 42.1644 61.4787 42.6287C61.1627 43.093 60.722 43.4688 60.2022 43.7171V46.0478C60.2022 46.8308 59.8751 47.5817 59.2927 48.1353C58.7104 48.689 57.9206 49 57.097 49H52.194C51.3704 49 50.5806 48.689 49.9983 48.1353C49.4159 47.5817 49.0888 46.8308 49.0888 46.0478V44.0279H25.8812C26.3249 43.3882 26.7078 42.7122 27.0252 42.008H58.5679ZM54.4821 18.8566H57.5873C57.5483 19.076 57.428 19.275 57.2482 19.4175C57.0683 19.56 56.8408 19.6366 56.6067 19.6335H54.9724L54.4821 18.8566ZM51.604 46.6577C51.4541 46.4867 51.3736 46.2704 51.3768 46.0478V44.0279H57.7507V46.0478C57.754 46.2704 57.6734 46.4867 57.5235 46.6577C57.3737 46.8286 57.1644 46.943 56.9336 46.9801H52.194C51.9632 46.943 51.7539 46.8286 51.604 46.6577Z" stroke="white" stroke-width="6" shape-rendering="crispEdges" mask="url(#path-1-inside-1_3813_8313)"/>
<path fill-rule="evenodd" clip-rule="evenodd" d="M40.0999 31.9084H30.0401C29.9584 32.2191 29.9401 32.5299 29.9219 32.8406C29.9036 33.1514 29.8853 33.4622 29.8036 33.7729H40.7537C41.1317 33.7756 41.5025 33.6744 41.8215 33.4815C42.1404 33.2885 42.3939 33.012 42.5514 32.6853L42.8054 31.9084L43.0417 30.8207V29.8884C43.0417 29.7331 42.9119 29.4407 42.7149 29.2669C42.2698 28.8746 41.6874 28.6531 41.0805 28.6454H29.8036V30.8207H40.5902L40.0999 31.9084ZM46.4738 37.0359L46.8007 38.4343H28.4961C28.3327 38.745 28.2101 39.0946 28.0876 39.4442C27.965 39.7938 27.8424 40.1434 27.679 40.4542H47.291C47.5701 40.4664 47.8484 40.4166 48.1037 40.3087C48.359 40.2008 48.5844 40.0378 48.7619 39.8327C48.9304 39.6416 49.0481 39.4148 49.1049 39.1714C49.1618 38.928 49.1563 38.6752 49.0888 38.4343L48.7619 36.259C48.627 35.8618 48.366 35.5141 48.0148 35.2637C47.6636 35.0133 47.2395 34.8725 46.8007 34.8606H29.3133L28.823 37.0359H46.4738Z" stroke="white" stroke-width="6" shape-rendering="crispEdges" mask="url(#path-1-inside-1_3813_8313)"/>
<path fill-rule="evenodd" clip-rule="evenodd" d="M50.302 23.3755V21.9296H13.6708V23.2643L50.302 23.3755Z" stroke="white" stroke-width="6" shape-rendering="crispEdges" mask="url(#path-1-inside-1_3813_8313)"/>
</g>
<defs>
<filter id="filter0_di_3813_8313" x="0" y="9" width="64" height="43" filterUnits="userSpaceOnUse" color-interpolation-filters="sRGB">
<feFlood flood-opacity="0" result="BackgroundImageFix"/>
<feColorMatrix in="SourceAlpha" type="matrix" values="0 0 0 0 0 0 0 0 0 0 0 0 0 0 0 0 0 0 127 0" result="hardAlpha"/>
<feOffset dy="1"/>
<feGaussianBlur stdDeviation="1"/>
<feComposite in2="hardAlpha" operator="out"/>
<feColorMatrix type="matrix" values="0 0 0 0 1 0 0 0 0 1 0 0 0 0 1 0 0 0 0.5 0"/>
<feBlend mode="normal" in2="BackgroundImageFix" result="effect1_dropShadow_3813_8313"/>
<feBlend mode="normal" in="SourceGraphic" in2="effect1_dropShadow_3813_8313" result="shape"/>
<feColorMatrix in="SourceAlpha" type="matrix" values="0 0 0 0 0 0 0 0 0 0 0 0 0 0 0 0 0 0 127 0" result="hardAlpha"/>
<feOffset dy="1.14867"/>
<feGaussianBlur stdDeviation="0.574336"/>
<feComposite in2="hardAlpha" operator="arithmetic" k2="-1" k3="1"/>
<feColorMatrix type="matrix" values="0 0 0 0 0 0 0 0 0 0 0 0 0 0 0 0 0 0 0.3 0"/>
<feBlend mode="normal" in2="shape" result="effect2_innerShadow_3813_8313"/>
</filter>
</defs>
</svg>
