<svg width="42" height="34" viewBox="0 0 42 34" fill="none" xmlns="http://www.w3.org/2000/svg">
<g clip-path="url(#clip0_3736_1884)">
<g filter="url(#filter0_di_3736_1884)">
<path d="M15.7309 23.2778H18.7309V27.4778H17.8069V24.1118H16.5949V24.4298C16.5949 26.9018 16.1929 27.5318 15.2329 27.5318C15.0829 27.5318 14.8609 27.5078 14.7469 27.4778L14.8069 26.7158C14.8489 26.7218 14.8909 26.7278 14.9509 26.7278C15.4489 26.7278 15.7309 26.4098 15.7309 24.1478V23.2778ZM19.5574 27.4778V23.2778H22.7254V24.0998H20.4754V24.9518H22.4554V25.7738H20.4754V26.6558H22.7554V27.4778H19.5574ZM24.3749 27.4778V24.1298H23.0969V23.2778H26.5769V24.1298H25.2989V27.4778H24.3749Z" fill="white"/>
</g>
<g filter="url(#filter1_di_3736_1884)">
<path d="M12.0292 19.2473V17.3303L15.6904 14.3291C17.0575 13.1977 17.5917 12.6006 17.5917 11.6892C17.5917 10.7621 16.9789 10.2593 16.1147 10.2593C15.2662 10.2593 14.6848 10.7307 13.8677 11.7364L12.1706 10.3693C13.2549 8.89225 14.3077 8.09088 16.2718 8.09088C18.5502 8.09088 20.0587 9.42651 20.0587 11.5164C20.0587 13.3548 19.1159 14.2662 17.1675 15.7747L15.3762 17.1574H20.1687V19.2473H12.0292ZM25.3706 19.4359C23.6107 19.4359 22.3222 18.8073 21.2537 17.786L22.715 16.0418C23.5478 16.796 24.3649 17.236 25.3391 17.236C26.4705 17.236 27.1776 16.686 27.1776 15.6804C27.1776 14.7376 26.3762 14.1876 25.2291 14.1876C24.5377 14.1876 23.9092 14.3762 23.3907 14.5962L21.9922 13.6691L22.3065 8.24801H29.0632V10.3693H24.3806L24.2549 12.2706C24.6949 12.1606 25.0877 12.0821 25.7005 12.0821C27.8375 12.0821 29.5503 13.1191 29.5503 15.6333C29.5503 17.9588 27.9004 19.4359 25.3706 19.4359Z" fill="white"/>
</g>
<g filter="url(#filter2_di_3736_1884)">
<path d="M15.087 31.0875C9.87056 29.9828 6.11049 27.1176 4.12424 22.2874C2.01 17.1404 3.34611 11.6993 6.51235 8.22559C6.45092 8.31037 6.39461 8.39765 6.32806 8.48243C4.89724 10.3128 3.95786 12.3501 3.56624 14.6268C2.28899 22.028 7.23672 28.7385 13.884 30.3419C14.227 30.4242 14.5623 30.5289 14.9079 30.5913C15.1971 30.6436 15.2637 30.7633 15.087 31.0875Z" fill="white"/>
<path d="M5.71338 29.3701C7.39504 28.757 9.02195 28.3752 10.6124 29.6478C10.4038 30.1076 10.0518 30.3622 9.65551 30.5473C9.17056 30.7757 8.66737 30.8018 8.14853 30.715C7.37679 30.5849 6.17747 29.9486 5.71338 29.3701Z" fill="white"/>
<path d="M3.42725 26.6261C5.0948 26.2445 7.14566 26.8839 7.67303 27.9488C7.28239 28.3742 6.78676 28.5212 6.24719 28.4619C5.09235 28.3381 4.19876 27.7142 3.4834 26.7756C3.45654 26.7421 3.45166 26.6931 3.42725 26.6261Z" fill="white"/>
<path d="M1.79443 23.2618C3.19775 23.1164 5.37986 24.2511 5.71362 25.2999C4.46959 26.0651 2.1459 24.8542 1.79443 23.2618Z" fill="white"/>
<path d="M0.814453 19.6566C2.21906 20.222 3.40681 20.9112 3.99822 22.3672C4.17318 22.7931 4.07708 22.9144 3.63106 22.9222C3.00514 22.9351 2.48519 22.6485 2.05396 22.2123C1.39354 21.5488 1.0042 20.7202 0.814453 19.6566Z" fill="white"/>
<path d="M3.09119 19.6548C2.63215 19.6719 2.23539 19.528 1.91245 19.2254C1.01744 18.3886 0.81676 17.281 0.814453 16.0636C1.95859 16.6711 3.22267 18.2422 3.09119 19.6548Z" fill="white"/>
<path d="M1.22348 12.4714C2.56769 13.36 3.38286 15.3738 3.01036 16.7172C2.61628 16.6883 2.29237 16.5095 2.01975 16.2414C1.47721 15.7051 1.18839 15.0373 1.1479 14.2986C1.11821 13.7202 1.19379 13.1339 1.22348 12.4714Z" fill="white"/>
<path d="M10.0492 25.2092C11.0778 25.9517 11.5729 27.7233 11.0675 28.8018C9.70544 28.6749 9.20266 26.9315 10.0492 25.2092Z" fill="white"/>
<path d="M2.69788 9.53186C3.46067 10.7078 3.98244 11.8943 3.65402 13.296C3.6313 13.4015 3.59757 13.5045 3.55337 13.6031C3.46597 13.7895 3.36002 13.8315 3.15873 13.7055C2.52837 13.3117 2.26351 12.7185 2.15227 12.0255C2.03044 11.2617 2.27676 10.0831 2.69788 9.53186Z" fill="white"/>
<path d="M8.31766 23.2491C9.14779 24.2257 9.20806 26.0761 8.44369 27.1683C7.20535 26.7212 6.82453 24.6858 8.31766 23.2491Z" fill="white"/>
<path d="M4.48706 6.91895C5.25743 8.42949 5.29797 10.1046 4.32198 10.8381C3.95417 10.6009 3.67614 10.3249 3.54871 9.93035C3.1867 8.79502 3.67325 7.86061 4.48706 6.91895Z" fill="white"/>
<path d="M6.35176 24.882C5.22955 24.0278 5.66117 21.8934 7.06663 21.2894C7.5603 22.1701 7.447 24.1625 6.35176 24.882Z" fill="white"/>
<path d="M3.94342 19.6564C3.17676 18.0759 4.911 16.4903 6.02662 16.3904C6.17996 17.538 4.9956 19.5923 3.94342 19.6564Z" fill="white"/>
<path d="M6.29634 19.0035C6.58903 20.3281 5.92158 21.8133 4.84655 22.2695C3.87272 21.485 4.58121 19.6553 6.29634 19.0035Z" fill="white"/>
<path d="M5.77266 8.55187C5.4517 8.20818 5.36779 7.74393 5.38877 7.25659C5.43282 6.2255 5.8293 5.40473 6.43765 4.7199C6.47122 4.68399 6.51737 4.66347 6.55932 4.63269C6.88658 5.89463 6.60338 8.00042 5.77266 8.55187Z" fill="white"/>
<path d="M9.29676 3C9.39772 4.12027 8.7642 6.28355 7.62588 6.59259C7.25485 6.10585 7.30786 5.54443 7.47949 5.02421C7.78237 4.10224 8.40327 3.43523 9.29676 3Z" fill="white"/>
<path d="M3.81651 16.7146C3.42437 15.3393 4.94679 14.0308 6.3667 14.1075C6.31287 15.2305 4.78789 16.7864 3.81651 16.7146Z" fill="white"/>
<path d="M4.09753 13.7748C3.89623 12.6153 5.42148 11.6207 7.01898 11.8517C6.93123 12.7544 5.29244 13.8408 4.09753 13.7748Z" fill="white"/>
<path d="M9.63317 7.9849C8.74512 9.01915 7.33597 9.53489 6.36719 8.97756C6.47972 8.37586 6.85403 8.03203 7.3213 7.81853C8.09682 7.45806 8.86255 7.47747 9.63317 7.9849Z" fill="white"/>
<path d="M7.99749 9.73796C7.29212 10.8099 6.50295 11.5676 5.35294 11.4854C5.08057 11.4648 5.00142 11.3209 5.09687 11.036C5.19231 10.7512 5.27845 10.5103 5.42278 10.3106C5.95355 9.58524 7.21065 9.30331 7.99749 9.73796Z" fill="white"/>
<path d="M12.2451 3.7774C11.7842 4.73215 10.545 5.69991 9.58034 5.60625C9.32485 5.58024 9.26038 5.47618 9.3344 5.21603C9.63526 4.16502 11.321 3.32734 12.2451 3.7774Z" fill="white"/>
<path d="M11.266 6.53087C10.7446 6.98866 10.1477 7.12701 9.52889 7.21253C9.06842 7.27793 8.62014 7.26283 8.19622 7.02639C7.97451 6.90063 7.93309 6.74719 8.11095 6.5686C8.2888 6.39002 8.4301 6.23155 8.62745 6.15106C9.55569 5.76622 10.4255 5.91462 11.266 6.53087Z" fill="white"/>
<path d="M34.5149 7.89905C34.8765 8.38984 35.2605 8.8681 35.5972 9.37892C36.46 10.6885 37.1308 12.0883 37.5073 13.6182C39.4673 21.5935 34.7319 28.4846 28.3233 30.6155C27.7722 30.7983 27.2086 30.9435 26.6426 31.0788C26.5129 31.1088 26.2636 31.0587 26.2261 30.9761C26.1089 30.7007 26.3758 30.7032 26.5378 30.6631C28.1886 30.275 29.7995 29.7717 31.2284 28.8176C34.7593 26.4588 36.9761 23.2111 37.5696 18.9668C38.1157 15.0605 37.1707 11.5073 34.7543 8.37231L34.4426 7.96666L34.5149 7.89905Z" fill="white"/>
<path d="M35.6675 29.3969C35.4143 29.5909 35.2412 29.7387 35.0552 29.8661C34.1715 30.4744 33.2491 30.9117 32.1742 30.7119C31.5334 30.5931 30.9649 30.1587 30.7686 29.6286C32.3163 28.3744 33.9312 28.7568 35.6675 29.3969Z" fill="white"/>
<path d="M33.708 27.9454C34.3055 26.7828 36.3564 26.2753 37.9538 26.6223C37.9172 26.6974 37.8953 26.7776 37.8514 26.8346C37.1612 27.7072 36.3125 28.3027 35.2322 28.4528C34.6567 28.5331 34.1299 28.3959 33.708 27.9454Z" fill="white"/>
<path d="M35.6685 25.3219C35.9275 24.2915 38.211 23.0933 39.5876 23.2658C39.2955 24.8307 36.9816 26.0432 35.6685 25.3219Z" fill="white"/>
<path d="M40.5673 19.6566C40.5622 20.9994 39.3381 22.647 38.1695 22.9045C37.8969 22.9649 37.5915 22.8572 37.3013 22.8283C37.3694 22.5681 37.3896 22.2817 37.5133 22.0531C38.1847 20.8076 39.2901 20.148 40.5673 19.6566Z" fill="white"/>
<path d="M37.9632 19.6545C37.8333 18.2373 39.1973 16.7145 40.4834 16.0636C40.9355 17.638 39.4857 19.7233 37.9632 19.6545Z" fill="white"/>
<path d="M38.3816 16.7173C37.9715 15.5333 38.8976 13.3615 40.0353 12.7981C40.7047 14.749 39.6437 16.6453 38.3816 16.7173Z" fill="white"/>
<path d="M30.2924 28.8018C29.8301 27.6372 30.3151 25.9103 31.2827 25.2092C32.2148 26.6279 31.6793 28.6042 30.2924 28.8018Z" fill="white"/>
<path d="M38.7383 9.53186C38.8827 9.93434 39.0189 10.2439 39.1098 10.5665C39.2995 11.2527 39.3263 11.9442 39.0884 12.6279C38.9361 13.0639 38.6608 13.4096 38.2627 13.6805C37.9901 13.8611 37.8458 13.7786 37.787 13.5257C37.7068 13.1697 37.6293 12.8059 37.6266 12.4447C37.616 11.3895 38.0809 10.4891 38.7383 9.53186Z" fill="white"/>
<path d="M32.9522 27.1683C32.1713 26.068 32.2346 24.1494 33.0677 23.2491C34.4013 24.5034 34.3518 26.5066 32.9522 27.1683Z" fill="white"/>
<path d="M37.0344 10.8381C36.0891 10.0742 36.1382 8.32985 36.8609 6.91895C37.9681 7.68039 38.5578 10.0618 37.0344 10.8381Z" fill="white"/>
<path d="M35.0497 24.882C34.0935 24.2394 33.7265 22.3718 34.3292 21.2894C35.7005 21.792 36.1532 24.0002 35.0497 24.882Z" fill="white"/>
<path d="M37.1869 19.6564C36.2885 19.5872 35.2534 17.6337 35.3484 16.3904C36.615 16.434 37.6569 18.2695 37.1869 19.6564Z" fill="white"/>
<path d="M36.5571 22.2693C35.49 21.826 34.7523 20.0575 35.1062 18.6768C35.9038 19.0796 36.489 19.6319 36.8075 20.4021C37.107 21.1191 36.9981 21.7829 36.5571 22.2693Z" fill="white"/>
<path d="M34.5314 4.63269C35.887 5.29451 36.4974 7.75304 35.5039 8.55187C34.3967 7.94176 34.1456 5.65385 34.5314 4.63269Z" fill="white"/>
<path d="M33.754 6.59259C32.7234 6.10717 31.865 4.19926 32.1208 3C33.592 3.58146 34.534 5.62435 33.754 6.59259Z" fill="white"/>
<path d="M35.0166 14.1113C36.5346 13.9938 37.9163 15.3614 37.5778 16.717C37.3 16.6187 37.0045 16.5635 36.767 16.4243C35.8628 15.8917 35.3222 15.0975 35.0166 14.1113Z" fill="white"/>
<path d="M37.2914 13.7664C36.1729 13.8985 34.567 12.8489 34.3618 11.87C35.8677 11.5752 37.4402 12.58 37.2914 13.7664Z" fill="white"/>
<path d="M31.75 7.99285C32.8888 7.12921 34.698 7.66898 35.016 8.9506C34.1483 9.55681 32.5979 9.0198 31.75 7.99285Z" fill="white"/>
<path d="M33.0566 9.74272C33.9455 9.29627 35.3817 9.58602 35.9473 10.3547C36.1454 10.6238 36.2027 11.0229 36.3226 11.3659C36.062 11.4103 35.7987 11.5138 35.5433 11.4871C34.4798 11.3777 33.7187 10.6888 33.0566 9.74272Z" fill="white"/>
<path d="M29.1367 3.72321C29.3746 3.69436 29.5495 3.64191 29.7221 3.65502C30.5989 3.72846 31.4011 3.98548 31.8978 4.90344C31.9341 4.96248 31.9661 5.02476 31.9934 5.08965C32.159 5.48568 32.0821 5.66665 31.7066 5.59846C31.2658 5.51716 30.8181 5.36766 30.4217 5.14211C29.897 4.84574 29.5005 4.35267 29.1367 3.72321Z" fill="white"/>
<path d="M29.7896 6.55166C30.6997 5.92036 31.6205 5.7829 32.6081 6.11382C32.9711 6.23601 33.278 6.44474 33.3821 6.83421C33.0859 6.96913 32.7976 7.19059 32.488 7.22114C31.5351 7.32041 30.6356 7.12695 29.7896 6.55166Z" fill="white"/>
</g>
</g>
<defs>
<filter id="filter0_di_3736_1884" x="13.7455" y="22.7771" width="13.8332" height="6.25703" filterUnits="userSpaceOnUse" color-interpolation-filters="sRGB">
<feFlood flood-opacity="0" result="BackgroundImageFix"/>
<feColorMatrix in="SourceAlpha" type="matrix" values="0 0 0 0 0 0 0 0 0 0 0 0 0 0 0 0 0 0 127 0" result="hardAlpha"/>
<feOffset dy="0.50078"/>
<feGaussianBlur stdDeviation="0.50078"/>
<feComposite in2="hardAlpha" operator="out"/>
<feColorMatrix type="matrix" values="0 0 0 0 1 0 0 0 0 1 0 0 0 0 1 0 0 0 0.5 0"/>
<feBlend mode="normal" in2="BackgroundImageFix" result="effect1_dropShadow_3736_1884"/>
<feBlend mode="normal" in="SourceGraphic" in2="effect1_dropShadow_3736_1884" result="shape"/>
<feColorMatrix in="SourceAlpha" type="matrix" values="0 0 0 0 0 0 0 0 0 0 0 0 0 0 0 0 0 0 127 0" result="hardAlpha"/>
<feOffset dy="0.575232"/>
<feGaussianBlur stdDeviation="0.287616"/>
<feComposite in2="hardAlpha" operator="arithmetic" k2="-1" k3="1"/>
<feColorMatrix type="matrix" values="0 0 0 0 0 0 0 0 0 0 0 0 0 0 0 0 0 0 0.3 0"/>
<feBlend mode="normal" in2="shape" result="effect2_innerShadow_3736_1884"/>
</filter>
<filter id="filter1_di_3736_1884" x="11.0277" y="7.59004" width="19.5241" height="13.3482" filterUnits="userSpaceOnUse" color-interpolation-filters="sRGB">
<feFlood flood-opacity="0" result="BackgroundImageFix"/>
<feColorMatrix in="SourceAlpha" type="matrix" values="0 0 0 0 0 0 0 0 0 0 0 0 0 0 0 0 0 0 127 0" result="hardAlpha"/>
<feOffset dy="0.50078"/>
<feGaussianBlur stdDeviation="0.50078"/>
<feComposite in2="hardAlpha" operator="out"/>
<feColorMatrix type="matrix" values="0 0 0 0 1 0 0 0 0 1 0 0 0 0 1 0 0 0 0.5 0"/>
<feBlend mode="normal" in2="BackgroundImageFix" result="effect1_dropShadow_3736_1884"/>
<feBlend mode="normal" in="SourceGraphic" in2="effect1_dropShadow_3736_1884" result="shape"/>
<feColorMatrix in="SourceAlpha" type="matrix" values="0 0 0 0 0 0 0 0 0 0 0 0 0 0 0 0 0 0 127 0" result="hardAlpha"/>
<feOffset dy="0.575232"/>
<feGaussianBlur stdDeviation="0.287616"/>
<feComposite in2="hardAlpha" operator="arithmetic" k2="-1" k3="1"/>
<feColorMatrix type="matrix" values="0 0 0 0 0 0 0 0 0 0 0 0 0 0 0 0 0 0 0.3 0"/>
<feBlend mode="normal" in2="shape" result="effect2_innerShadow_3736_1884"/>
</filter>
<filter id="filter2_di_3736_1884" x="-0.187107" y="2.49922" width="41.756" height="30.0906" filterUnits="userSpaceOnUse" color-interpolation-filters="sRGB">
<feFlood flood-opacity="0" result="BackgroundImageFix"/>
<feColorMatrix in="SourceAlpha" type="matrix" values="0 0 0 0 0 0 0 0 0 0 0 0 0 0 0 0 0 0 127 0" result="hardAlpha"/>
<feOffset dy="0.50078"/>
<feGaussianBlur stdDeviation="0.50078"/>
<feComposite in2="hardAlpha" operator="out"/>
<feColorMatrix type="matrix" values="0 0 0 0 1 0 0 0 0 1 0 0 0 0 1 0 0 0 0.5 0"/>
<feBlend mode="normal" in2="BackgroundImageFix" result="effect1_dropShadow_3736_1884"/>
<feBlend mode="normal" in="SourceGraphic" in2="effect1_dropShadow_3736_1884" result="shape"/>
<feColorMatrix in="SourceAlpha" type="matrix" values="0 0 0 0 0 0 0 0 0 0 0 0 0 0 0 0 0 0 127 0" result="hardAlpha"/>
<feOffset dy="0.575232"/>
<feGaussianBlur stdDeviation="0.287616"/>
<feComposite in2="hardAlpha" operator="arithmetic" k2="-1" k3="1"/>
<feColorMatrix type="matrix" values="0 0 0 0 0 0 0 0 0 0 0 0 0 0 0 0 0 0 0.3 0"/>
<feBlend mode="normal" in2="shape" result="effect2_innerShadow_3736_1884"/>
</filter>
<clipPath id="clip0_3736_1884">
<rect width="42" height="34" fill="white"/>
</clipPath>
</defs>
</svg>
