<svg width="42" height="34" viewBox="0 0 42 34" fill="none" xmlns="http://www.w3.org/2000/svg">
<g clip-path="url(#clip0_3736_1996)">
<g filter="url(#filter0_di_3736_1996)">
<path d="M20.6 28.3928H4.8C4.32261 28.3928 3.86477 28.2032 3.52721 27.8656C3.18964 27.5281 3 27.0702 3 26.5928V3.19282C3 2.71543 3.18964 2.2576 3.52721 1.92003C3.86477 1.58246 4.32261 1.39282 4.8 1.39282H37.2C37.6774 1.39282 38.1352 1.58246 38.4728 1.92003C38.8104 2.2576 39 2.71543 39 3.19282V26.5928C39 27.0702 38.8104 27.5281 38.4728 27.8656C38.1352 28.2032 37.6774 28.3928 37.2 28.3928H32.2M10.2 8.59282H31.8M10.2 14.8928H15.6M10.2 21.1928H13.8" stroke="white" stroke-width="1.92857" stroke-linejoin="round" shape-rendering="crispEdges"/>
</g>
<g filter="url(#filter1_di_3736_1996)">
<path d="M25.4194 30.2333L28.2319 31.6071V24.375C28.2319 24.375 27.4304 25.4246 25.4194 25.4246C23.4085 25.4246 22.6069 24.3942 22.6069 24.3942V31.6071L25.4194 30.2333Z" fill="white"/>
</g>
<g filter="url(#filter2_di_3736_1996)">
<path d="M25.5 23.8928C26.6935 23.8928 27.8381 23.4187 28.682 22.5748C29.5259 21.7309 30 20.5863 30 19.3928C30 18.1993 29.5259 17.0548 28.682 16.2108C27.8381 15.3669 26.6935 14.8928 25.5 14.8928C24.3065 14.8928 23.1619 15.3669 22.318 16.2108C21.4741 17.0548 21 18.1993 21 19.3928C21 20.5863 21.4741 21.7309 22.318 22.5748C23.1619 23.4187 24.3065 23.8928 25.5 23.8928Z" fill="white"/>
</g>
</g>
<defs>
<filter id="filter0_di_3736_1996" x="0.74993" y="-0.214268" width="40.5001" height="31.4999" filterUnits="userSpaceOnUse" color-interpolation-filters="sRGB">
<feFlood flood-opacity="0" result="BackgroundImageFix"/>
<feColorMatrix in="SourceAlpha" type="matrix" values="0 0 0 0 0 0 0 0 0 0 0 0 0 0 0 0 0 0 127 0" result="hardAlpha"/>
<feOffset dy="0.642857"/>
<feGaussianBlur stdDeviation="0.642857"/>
<feComposite in2="hardAlpha" operator="out"/>
<feColorMatrix type="matrix" values="0 0 0 0 1 0 0 0 0 1 0 0 0 0 1 0 0 0 0.5 0"/>
<feBlend mode="normal" in2="BackgroundImageFix" result="effect1_dropShadow_3736_1996"/>
<feBlend mode="normal" in="SourceGraphic" in2="effect1_dropShadow_3736_1996" result="shape"/>
<feColorMatrix in="SourceAlpha" type="matrix" values="0 0 0 0 0 0 0 0 0 0 0 0 0 0 0 0 0 0 127 0" result="hardAlpha"/>
<feOffset dy="0.738432"/>
<feGaussianBlur stdDeviation="0.369216"/>
<feComposite in2="hardAlpha" operator="arithmetic" k2="-1" k3="1"/>
<feColorMatrix type="matrix" values="0 0 0 0 0 0 0 0 0 0 0 0 0 0 0 0 0 0 0.3 0"/>
<feBlend mode="normal" in2="shape" result="effect2_innerShadow_3736_1996"/>
</filter>
<filter id="filter1_di_3736_1996" x="21.4588" y="23.8009" width="7.92135" height="9.52853" filterUnits="userSpaceOnUse" color-interpolation-filters="sRGB">
<feFlood flood-opacity="0" result="BackgroundImageFix"/>
<feColorMatrix in="SourceAlpha" type="matrix" values="0 0 0 0 0 0 0 0 0 0 0 0 0 0 0 0 0 0 127 0" result="hardAlpha"/>
<feOffset dy="0.574087"/>
<feGaussianBlur stdDeviation="0.574087"/>
<feComposite in2="hardAlpha" operator="out"/>
<feColorMatrix type="matrix" values="0 0 0 0 1 0 0 0 0 1 0 0 0 0 1 0 0 0 0.5 0"/>
<feBlend mode="normal" in2="BackgroundImageFix" result="effect1_dropShadow_3736_1996"/>
<feBlend mode="normal" in="SourceGraphic" in2="effect1_dropShadow_3736_1996" result="shape"/>
<feColorMatrix in="SourceAlpha" type="matrix" values="0 0 0 0 0 0 0 0 0 0 0 0 0 0 0 0 0 0 127 0" result="hardAlpha"/>
<feOffset dy="0.659437"/>
<feGaussianBlur stdDeviation="0.329719"/>
<feComposite in2="hardAlpha" operator="arithmetic" k2="-1" k3="1"/>
<feColorMatrix type="matrix" values="0 0 0 0 0 0 0 0 0 0 0 0 0 0 0 0 0 0 0.3 0"/>
<feBlend mode="normal" in2="shape" result="effect2_innerShadow_3736_1996"/>
</filter>
<filter id="filter2_di_3736_1996" x="19.8518" y="14.3187" width="11.2963" height="11.2963" filterUnits="userSpaceOnUse" color-interpolation-filters="sRGB">
<feFlood flood-opacity="0" result="BackgroundImageFix"/>
<feColorMatrix in="SourceAlpha" type="matrix" values="0 0 0 0 0 0 0 0 0 0 0 0 0 0 0 0 0 0 127 0" result="hardAlpha"/>
<feOffset dy="0.574087"/>
<feGaussianBlur stdDeviation="0.574087"/>
<feComposite in2="hardAlpha" operator="out"/>
<feColorMatrix type="matrix" values="0 0 0 0 1 0 0 0 0 1 0 0 0 0 1 0 0 0 0.5 0"/>
<feBlend mode="normal" in2="BackgroundImageFix" result="effect1_dropShadow_3736_1996"/>
<feBlend mode="normal" in="SourceGraphic" in2="effect1_dropShadow_3736_1996" result="shape"/>
<feColorMatrix in="SourceAlpha" type="matrix" values="0 0 0 0 0 0 0 0 0 0 0 0 0 0 0 0 0 0 127 0" result="hardAlpha"/>
<feOffset dy="0.659437"/>
<feGaussianBlur stdDeviation="0.329719"/>
<feComposite in2="hardAlpha" operator="arithmetic" k2="-1" k3="1"/>
<feColorMatrix type="matrix" values="0 0 0 0 0 0 0 0 0 0 0 0 0 0 0 0 0 0 0.3 0"/>
<feBlend mode="normal" in2="shape" result="effect2_innerShadow_3736_1996"/>
</filter>
<clipPath id="clip0_3736_1996">
<rect width="42" height="34" fill="white"/>
</clipPath>
</defs>
</svg>
