<svg width="60" height="60" viewBox="0 0 60 60" fill="none" xmlns="http://www.w3.org/2000/svg">
<g filter="url(#filter0_di_3813_8407)">
<path fill-rule="evenodd" clip-rule="evenodd" d="M29.5247 3C30.0094 3 30.4741 3.19479 30.8168 3.54151C31.1595 3.88824 31.352 4.3585 31.352 4.84884V10.2474L35.5426 6.00744C35.889 5.68086 36.3472 5.50307 36.8206 5.51152C37.294 5.51997 37.7457 5.71401 38.0805 6.05275C38.4152 6.39149 38.607 6.84848 38.6154 7.32746C38.6237 7.80643 38.448 8.26999 38.1252 8.62046L31.352 15.4735V26.2978L40.6152 20.8869L43.0955 11.5244C43.1576 11.2898 43.2647 11.07 43.4107 10.8773C43.5568 10.6847 43.7389 10.523 43.9467 10.4016C44.1545 10.2801 44.3839 10.2013 44.6218 10.1696C44.8598 10.1378 45.1015 10.1538 45.3333 10.2166C45.5651 10.2794 45.7824 10.3878 45.9729 10.5356C46.1633 10.6834 46.323 10.8676 46.4431 11.0779C46.5631 11.2881 46.641 11.5203 46.6724 11.761C46.7037 12.0017 46.6879 12.2463 46.6258 12.4808L45.0909 18.2739L49.7103 15.5746C50.1298 15.3333 50.6266 15.2696 51.0923 15.3975C51.5579 15.5255 51.9547 15.8345 52.196 16.2573C52.4372 16.6802 52.5034 17.1823 52.3801 17.6543C52.2567 18.1263 51.9539 18.5298 51.5376 18.7767L46.9206 21.4736L52.6462 23.0266C53.1143 23.1538 53.5134 23.4639 53.7556 23.8887C53.9977 24.3136 54.0632 24.8184 53.9375 25.292C53.8118 25.7657 53.5053 26.1695 53.0854 26.4145C52.6655 26.6595 52.1666 26.7257 51.6984 26.5986L42.445 24.0891L33.1793 29.5L42.4425 34.9109L51.696 32.4014C52.1645 32.2746 52.6636 32.3413 53.0835 32.5867C53.5034 32.8322 53.8097 33.2364 53.9351 33.7104C54.0604 34.1844 53.9945 34.6894 53.7519 35.1142C53.5093 35.5391 53.1098 35.849 52.6413 35.9759L46.9182 37.5264L51.5376 40.2257C51.7471 40.3462 51.931 40.5075 52.0786 40.7002C52.2263 40.8929 52.3348 41.1132 52.3979 41.3485C52.4611 41.5838 52.4776 41.8295 52.4465 42.0713C52.4155 42.313 52.3374 42.5462 52.217 42.7574C52.0965 42.9685 51.9359 43.1535 51.7444 43.3016C51.553 43.4497 51.3345 43.558 51.1015 43.6204C50.8686 43.6827 50.6257 43.6978 50.3869 43.6647C50.1482 43.6317 49.9182 43.5512 49.7103 43.4279L45.0909 40.7286L46.6258 46.5192C46.6879 46.7537 46.7037 46.9983 46.6724 47.239C46.641 47.4797 46.5631 47.7119 46.4431 47.9221C46.323 48.1324 46.1633 48.3166 45.9729 48.4644C45.7824 48.6122 45.5651 48.7206 45.3333 48.7834C45.1015 48.8462 44.8598 48.8622 44.6218 48.8304C44.3839 48.7987 44.1545 48.7199 43.9467 48.5984C43.7389 48.477 43.5568 48.3153 43.4107 48.1227C43.2647 47.93 43.1576 47.7102 43.0955 47.4756L40.6152 38.1131L31.352 32.7047V43.5265L38.1252 50.3795C38.2998 50.55 38.4391 50.7539 38.535 50.9795C38.6309 51.205 38.6814 51.4476 38.6836 51.693C38.6858 51.9385 38.6397 52.182 38.548 52.4093C38.4562 52.6365 38.3206 52.843 38.1491 53.0167C37.9776 53.1904 37.7737 53.3277 37.5491 53.4208C37.3246 53.5139 37.084 53.5608 36.8414 53.5588C36.5988 53.5567 36.359 53.5059 36.136 53.4091C35.913 53.3123 35.7113 53.1715 35.5426 52.995L31.352 48.755V54.1512C31.352 54.6415 31.1595 55.1118 30.8168 55.4585C30.4741 55.8052 30.0094 56 29.5247 56C29.0401 56 28.5753 55.8052 28.2326 55.4585C27.8899 55.1118 27.6974 54.6415 27.6974 54.1512V48.7526L23.5068 52.9926C23.1604 53.3191 22.7023 53.4969 22.2289 53.4885C21.7555 53.48 21.3038 53.286 20.969 52.9473C20.6342 52.6085 20.4424 52.1515 20.4341 51.6725C20.4257 51.1936 20.6015 50.73 20.9242 50.3795L27.6974 43.5265V32.7022L18.4342 38.1131L15.954 47.4756C15.8919 47.7102 15.7848 47.93 15.6387 48.1227C15.4927 48.3153 15.3105 48.477 15.1027 48.5984C14.8949 48.7199 14.6655 48.7987 14.4276 48.8304C14.1897 48.8622 13.9479 48.8462 13.7161 48.7834C13.4843 48.7206 13.267 48.6122 13.0766 48.4644C12.8862 48.3166 12.7264 48.1324 12.6064 47.9221C12.4864 47.7119 12.4085 47.4797 12.3771 47.239C12.3457 46.9983 12.3616 46.7537 12.4236 46.5192L13.9586 40.7261L9.33913 43.4279C8.91912 43.6731 8.42005 43.7394 7.95171 43.6123C7.48338 43.4851 7.08414 43.175 6.84182 42.75C6.59951 42.325 6.53397 41.8201 6.65962 41.3462C6.78527 40.8724 7.09182 40.4684 7.51183 40.2233L12.1313 37.5264L6.40571 35.9734C6.16778 35.9163 5.9436 35.8115 5.74644 35.6652C5.54928 35.5188 5.38316 35.3339 5.25791 35.1214C5.13266 34.909 5.05084 34.6732 5.01729 34.4281C4.98373 34.1831 4.99913 33.9337 5.06257 33.6948C5.12601 33.4558 5.2362 33.2322 5.38662 33.0372C5.53703 32.8421 5.72461 32.6796 5.93823 32.5592C6.15186 32.4388 6.38719 32.3631 6.63029 32.3364C6.87339 32.3097 7.1193 32.3327 7.35347 32.4039L16.6069 34.9109L25.8701 29.5L16.6069 24.0891L7.35347 26.5986C7.1215 26.6614 6.87958 26.6773 6.64152 26.6455C6.40346 26.6137 6.17391 26.5348 5.966 26.4133C5.75808 26.2917 5.57587 26.1299 5.42975 25.9371C5.28364 25.7443 5.17648 25.5243 5.11441 25.2896C5.05234 25.0549 5.03657 24.8101 5.06799 24.5692C5.09941 24.3284 5.17742 24.0961 5.29755 23.8858C5.41769 23.6754 5.5776 23.491 5.76815 23.3432C5.95871 23.1954 6.17618 23.0869 6.40814 23.0241L12.1313 21.4736L7.51183 18.7767C7.30386 18.6553 7.12156 18.4937 6.97534 18.301C6.82912 18.1083 6.72183 17.8884 6.65962 17.6538C6.5974 17.4191 6.58147 17.1744 6.61273 16.9336C6.644 16.6927 6.72184 16.4604 6.84182 16.25C6.9618 16.0396 7.12157 15.8551 7.31201 15.7072C7.50245 15.5592 7.71982 15.4507 7.95171 15.3877C8.42005 15.2606 8.91912 15.3269 9.33913 15.5721L13.9561 18.2739L12.4212 12.4833C12.2958 12.0093 12.3617 11.5043 12.6043 11.0795C12.8469 10.6546 13.2464 10.3447 13.7149 10.2179C14.1834 10.091 14.6825 10.1577 15.1024 10.4032C15.5223 10.6486 15.8286 11.0528 15.954 11.5268L18.4318 20.8893L27.6974 26.2953V15.4735L20.9242 8.62046C20.6015 8.26999 20.4257 7.80643 20.4341 7.32746C20.4424 6.84848 20.6342 6.39149 20.969 6.05275C21.3038 5.71401 21.7555 5.51997 22.2289 5.51152C22.7023 5.50307 23.1604 5.68086 23.5068 6.00744L27.6974 10.2474V4.84884C27.6974 4.3585 27.8899 3.88824 28.2326 3.54151C28.5753 3.19479 29.0401 3 29.5247 3Z" fill="white"/>
</g>
<defs>
<filter id="filter0_di_3813_8407" x="3" y="2" width="53" height="57" filterUnits="userSpaceOnUse" color-interpolation-filters="sRGB">
<feFlood flood-opacity="0" result="BackgroundImageFix"/>
<feColorMatrix in="SourceAlpha" type="matrix" values="0 0 0 0 0 0 0 0 0 0 0 0 0 0 0 0 0 0 127 0" result="hardAlpha"/>
<feOffset dy="1"/>
<feGaussianBlur stdDeviation="1"/>
<feComposite in2="hardAlpha" operator="out"/>
<feColorMatrix type="matrix" values="0 0 0 0 1 0 0 0 0 1 0 0 0 0 1 0 0 0 0.5 0"/>
<feBlend mode="normal" in2="BackgroundImageFix" result="effect1_dropShadow_3813_8407"/>
<feBlend mode="normal" in="SourceGraphic" in2="effect1_dropShadow_3813_8407" result="shape"/>
<feColorMatrix in="SourceAlpha" type="matrix" values="0 0 0 0 0 0 0 0 0 0 0 0 0 0 0 0 0 0 127 0" result="hardAlpha"/>
<feOffset dy="1.14867"/>
<feGaussianBlur stdDeviation="0.574336"/>
<feComposite in2="hardAlpha" operator="arithmetic" k2="-1" k3="1"/>
<feColorMatrix type="matrix" values="0 0 0 0 0 0 0 0 0 0 0 0 0 0 0 0 0 0 0.3 0"/>
<feBlend mode="normal" in2="shape" result="effect2_innerShadow_3813_8407"/>
</filter>
</defs>
</svg>
