<svg width="38" height="37" viewBox="0 0 38 37" fill="none" xmlns="http://www.w3.org/2000/svg">
<g filter="url(#filter0_di_3735_1829)">
<path fill-rule="evenodd" clip-rule="evenodd" d="M19.0172 1C19.3534 1 19.6759 1.12496 19.9137 1.34739C20.1515 1.56981 20.2851 1.87149 20.2851 2.18605V5.6493L23.1929 2.9293C23.4332 2.7198 23.7511 2.60574 24.0796 2.61117C24.4081 2.61659 24.7215 2.74106 24.9538 2.95837C25.1861 3.17567 25.3192 3.46884 25.325 3.7761C25.3308 4.08337 25.2088 4.38075 24.9849 4.60558L20.2851 9.00186V15.9458L26.7126 12.4746L28.4336 6.46847C28.4767 6.31801 28.551 6.17696 28.6524 6.05337C28.7537 5.92978 28.8801 5.82608 29.0243 5.74818C29.1684 5.67027 29.3276 5.6197 29.4927 5.59934C29.6578 5.57899 29.8256 5.58925 29.9864 5.62953C30.1472 5.66982 30.298 5.73935 30.4301 5.83415C30.5623 5.92895 30.6731 6.04716 30.7564 6.18204C30.8397 6.31692 30.8938 6.46582 30.9155 6.62024C30.9373 6.77467 30.9263 6.93159 30.8832 7.08205L29.8182 10.7983L33.0235 9.0667C33.3146 8.9119 33.6593 8.87108 33.9824 8.95314C34.3055 9.0352 34.5808 9.23348 34.7482 9.50471C34.9156 9.77595 34.9616 10.0981 34.876 10.4009C34.7904 10.7037 34.5803 10.9625 34.2914 11.1209L31.0878 12.851L35.0606 13.8473C35.3855 13.9288 35.6624 14.1278 35.8304 14.4003C35.9984 14.6729 36.0438 14.9967 35.9566 15.3006C35.8694 15.6044 35.6567 15.8634 35.3654 16.0206C35.074 16.1778 34.7278 16.2203 34.403 16.1387L27.9822 14.5288L21.553 18L27.9805 21.4712L34.4013 19.8613C34.7264 19.7799 35.0727 19.8227 35.364 19.9802C35.6554 20.1377 35.868 20.3969 35.9549 20.701C36.0419 21.0051 35.9962 21.329 35.8279 21.6016C35.6595 21.8741 35.3823 22.073 35.0572 22.1543L31.0861 23.149L34.2914 24.8807C34.4368 24.958 34.5644 25.0614 34.6668 25.185C34.7693 25.3086 34.8446 25.45 34.8884 25.6009C34.9322 25.7519 34.9436 25.9095 34.9221 26.0646C34.9005 26.2197 34.8464 26.3693 34.7628 26.5047C34.6792 26.6402 34.5678 26.7588 34.4349 26.8539C34.3021 26.9489 34.1505 27.0184 33.9888 27.0584C33.8272 27.0983 33.6586 27.108 33.493 27.0868C33.3273 27.0656 33.1677 27.014 33.0235 26.9349L29.8182 25.2033L30.8832 28.918C30.9263 29.0684 30.9373 29.2253 30.9155 29.3798C30.8938 29.5342 30.8397 29.6831 30.7564 29.818C30.6731 29.9528 30.5623 30.071 30.4301 30.1658C30.298 30.2606 30.1472 30.3302 29.9864 30.3705C29.8256 30.4108 29.6578 30.421 29.4927 30.4007C29.3276 30.3803 29.1684 30.3297 29.0243 30.2518C28.8801 30.1739 28.7537 30.0702 28.6524 29.9466C28.551 29.823 28.4767 29.682 28.4336 29.5315L26.7126 23.5254L20.2851 20.0558V26.9981L24.9849 31.3944C25.106 31.5038 25.2027 31.6346 25.2692 31.7793C25.3357 31.924 25.3708 32.0796 25.3723 32.2371C25.3739 32.3945 25.3419 32.5507 25.2782 32.6965C25.2145 32.8423 25.1204 32.9748 25.0014 33.0862C24.8824 33.1976 24.7409 33.2857 24.5851 33.3454C24.4293 33.4051 24.2624 33.4352 24.094 33.4339C23.9257 33.4326 23.7593 33.4 23.6046 33.3379C23.4498 33.2758 23.3099 33.1855 23.1929 33.0723L20.2851 30.3523V33.814C20.2851 34.1285 20.1515 34.4302 19.9137 34.6526C19.6759 34.875 19.3534 35 19.0172 35C18.6809 35 18.3584 34.875 18.1206 34.6526C17.8828 34.4302 17.7492 34.1285 17.7492 33.814V30.3507L14.8415 33.0707C14.6011 33.2802 14.2832 33.3943 13.9547 33.3888C13.6262 33.3834 13.3128 33.2589 13.0805 33.0416C12.8482 32.8243 12.7152 32.5312 12.7094 32.2239C12.7036 31.9166 12.8255 31.6193 13.0495 31.3944L17.7492 26.9981V20.0542L11.3217 23.5254L9.60071 29.5315C9.55764 29.682 9.48331 29.823 9.38197 29.9466C9.28063 30.0702 9.15425 30.1739 9.01006 30.2518C8.86587 30.3297 8.70669 30.3803 8.54161 30.4007C8.37653 30.421 8.20877 30.4108 8.04793 30.3705C7.88708 30.3302 7.7363 30.2606 7.60418 30.1658C7.47206 30.071 7.36119 29.9528 7.27792 29.818C7.19463 29.6831 7.14057 29.5342 7.11881 29.3798C7.09705 29.2253 7.10801 29.0684 7.15108 28.918L8.21614 25.2017L5.01083 26.9349C4.71939 27.0922 4.3731 27.1347 4.04813 27.0531C3.72316 26.9716 3.44614 26.7726 3.278 26.5C3.10986 26.2274 3.06438 25.9035 3.15157 25.5995C3.23876 25.2955 3.45147 25.0364 3.7429 24.8791L6.94822 23.149L2.97539 22.1527C2.8103 22.1161 2.65474 22.0489 2.51794 21.955C2.38114 21.8611 2.26587 21.7425 2.17896 21.6062C2.09205 21.4699 2.03528 21.3187 2.01199 21.1615C1.98871 21.0042 1.9994 20.8443 2.04342 20.691C2.08744 20.5377 2.1639 20.3943 2.26826 20.2691C2.37263 20.144 2.50279 20.0397 2.65102 19.9625C2.79925 19.8853 2.96254 19.8367 3.13122 19.8196C3.2999 19.8025 3.47054 19.8172 3.63302 19.8629L10.0538 21.4712L16.4813 18L10.0538 14.5288L3.63302 16.1387C3.47206 16.179 3.3042 16.1892 3.13901 16.1688C2.97383 16.1484 2.81455 16.0978 2.67029 16.0198C2.52602 15.9419 2.39958 15.8381 2.29819 15.7144C2.19681 15.5907 2.12246 15.4495 2.07939 15.299C2.03632 15.1484 2.02537 14.9914 2.04718 14.8369C2.06898 14.6824 2.12311 14.5334 2.20647 14.3984C2.28982 14.2635 2.40078 14.1452 2.533 14.0504C2.66523 13.9555 2.81612 13.886 2.97708 13.8457L6.94822 12.851L3.7429 11.1209C3.5986 11.0431 3.47211 10.9394 3.37064 10.8157C3.26918 10.6921 3.19474 10.5511 3.15157 10.4005C3.1084 10.25 3.09735 10.093 3.11904 9.9385C3.14073 9.78399 3.19475 9.63499 3.278 9.5C3.36125 9.36501 3.47211 9.24669 3.60425 9.15178C3.73639 9.05687 3.88722 8.98724 4.04813 8.94685C4.3731 8.8653 4.71939 8.90784 5.01083 9.06512L8.21445 10.7983L7.14939 7.08363C7.06241 6.77955 7.10812 6.45561 7.27647 6.18306C7.44482 5.91052 7.72202 5.71169 8.04708 5.63033C8.37215 5.54896 8.71845 5.59172 9.00982 5.7492C9.30118 5.90668 9.51373 6.16597 9.60071 6.47005L11.32 12.4762L17.7492 15.9442V9.00186L13.0495 4.60558C12.8255 4.38075 12.7036 4.08337 12.7094 3.7761C12.7152 3.46884 12.8482 3.17567 13.0805 2.95837C13.3128 2.74106 13.6262 2.61659 13.9547 2.61117C14.2832 2.60574 14.6011 2.7198 14.8415 2.9293L17.7492 5.6493V2.18605C17.7492 1.87149 17.8828 1.56981 18.1206 1.34739C18.3584 1.12496 18.6809 1 19.0172 1Z" fill="white"/>
</g>
<defs>
<filter id="filter0_di_3735_1829" x="0.720042" y="0.360021" width="36.5599" height="36.5599" filterUnits="userSpaceOnUse" color-interpolation-filters="sRGB">
<feFlood flood-opacity="0" result="BackgroundImageFix"/>
<feColorMatrix in="SourceAlpha" type="matrix" values="0 0 0 0 0 0 0 0 0 0 0 0 0 0 0 0 0 0 127 0" result="hardAlpha"/>
<feOffset dy="0.639979"/>
<feGaussianBlur stdDeviation="0.639979"/>
<feComposite in2="hardAlpha" operator="out"/>
<feColorMatrix type="matrix" values="0 0 0 0 1 0 0 0 0 1 0 0 0 0 1 0 0 0 0.5 0"/>
<feBlend mode="normal" in2="BackgroundImageFix" result="effect1_dropShadow_3735_1829"/>
<feBlend mode="normal" in="SourceGraphic" in2="effect1_dropShadow_3735_1829" result="shape"/>
<feColorMatrix in="SourceAlpha" type="matrix" values="0 0 0 0 0 0 0 0 0 0 0 0 0 0 0 0 0 0 127 0" result="hardAlpha"/>
<feOffset dy="0.735125"/>
<feGaussianBlur stdDeviation="0.367563"/>
<feComposite in2="hardAlpha" operator="arithmetic" k2="-1" k3="1"/>
<feColorMatrix type="matrix" values="0 0 0 0 0 0 0 0 0 0 0 0 0 0 0 0 0 0 0.3 0"/>
<feBlend mode="normal" in2="shape" result="effect2_innerShadow_3735_1829"/>
</filter>
</defs>
</svg>
